<svg xmlns="http://www.w3.org/2000/svg" width="290" height="200" viewBox="0 0 290 200"><path fill="#FAD488" d="M177.114 116.49l62.14 3.28-62.513-26.456 54.684-33.243-70.13 15.66 35.062-55.037-54.705 37.433-41.92-49.52 12.778 56.766L72.384 49.88l22.28 31.915-44.448 9.63 42.83 17.232-46.967 19.478 47.84 1.728-21.454 46.972 50.742-34.25 2.048 33.045 14.472-31.972 44.144 49.04-20.432-55.573 41.614 13.775"/><path fill="#F9C662" d="M198.642 104.876l40.68-20.327-45.765-6.1 40.678-30.492-46.78 10.164 9.152-50.82-40.678 45.74-10.17-31.51-6.103 34.558L84.74 19.5l33.56 48.786-43.73-3.05 35.595 26.428-61.02 12.197 67.12 10.165-44.745 45.737 64.07-32.524-20.34 62 43.73-49.803 52.882 37.606-26.44-51.835 42.712 5.082"/><path fill="#F5AC1E" d="M189.88 25.97c-15.757-13.255-42.22-.464-57.48 26.86-14.384 25.758-13.39 54.096.74 65.362 14.044 11.198 37.254 2.59 53.293-21.182 16.993-25.185 19.096-57.877 3.447-71.04z"/><path fill="#F5AC1E" d="M159.57 67.88c-17.348-9.87-43.41 3.817-58.21 30.567-14.803 26.75-12.74 56.435 4.607 66.303s43.408-3.818 58.21-30.568 12.74-56.434-4.608-66.303z"/><g fill-rule="evenodd" clip-rule="evenodd" fill="#885C14"><path d="M200.914 52.13c-.173 10.483-2.723 20.39-7.077 29.91-5.144 11.246-11.79 21.453-20.375 30.374-.775.805-1.173 1.783-1.433 2.847-2.28 9.313-6.265 17.857-11.55 25.836-3.458 5.222-7.285 10.158-12.046 14.22-7.292 6.22-15.435 11.037-25.066 12.48-9.41 1.41-17.81-.924-24.21-8.36-4.81-5.588-7.465-12.172-8.066-19.55-.368-4.508.162-9.008.188-13.494.033-5.635 2.136-10.607 3.598-15.793 1.122-3.98 3-7.69 4.99-11.32 1.354-2.475 2.38-5.147 4.207-7.337 2.775-3.325 5.21-6.93 8.258-10.033l2.477-2.507c2.43-2.26 4.817-4.558 7.598-6.396.708-.47 1.06-1.177 1.29-1.956 1.627-5.445 4.19-10.494 6.603-15.606 1.502-2.604 1.42-2.622 1.502-2.604 3.574-6.42 7.854-12.312 13.023-17.542 5.35-5.412 11.183-10.31 18.422-12.818 11.72-4.062 22.376-2.998 31.354 7.757 3.492 4.182 5.05 9.357 5.902 14.71.38 2.377.413 4.772.412 7.182zm-33.14 19.273c-.14.156-.443.384-.302.504.274.232.447-.062.564-.31l.206-.374c1.72-2.715 2.766-5.687 2.912-8.883.153-3.347-.572-6.384-4.003-8.007-.19-.09-.45-.23-.26-.556.542-.1 1.048.382 1.638.14.17-.405-.464-.776-.023-1.24l1.98 1.416c-.145-.93-.763-1.154-1.18-1.55-.237-.225-.525-.47-.234-.795.278-.31.58-.12.824.124.375.374.72.804 1.452.737-.315-.917-1.747-1.06-1.36-2.278.61.047.88.682 1.434.79.072.195.292.36.402.25.198-.203-.097-.306-.218-.432-.237-.265-.463-.542-.717-.792-.247-.244-.685-.458-.377-.855.343-.444.698-.062 1.032.135.5.294.835.904 1.56.9-.328-1.116-1.636-1.4-1.85-2.508 1.126-.58 1.59.984 2.582.84-.254-1.095-1.724-1.385-1.63-2.722.852.254 1.326.903 1.996 1.24.112.058.186.31.338.137.1-.113.034-.293-.143-.37-.317-.857-1.347-1.375-1.215-2.47 1.164.18 1.8 1.26 2.865 1.55l-.01.154.1-.014-.12-.123c-.217-1.353-1.727-1.812-2.15-3.104 1.387-.286 1.983 1.118 3.26 1.51-.53-.967-1.18-1.543-1.782-2.153-.272-.275-.496-.603-.248-.942.293-.4.642-.07.947.078.722.35 1.287 1.033 2.27 1.102-.386-.898-1.15-1.316-1.655-1.952-.245-.31-.817-.603-.467-1.05.448-.572.91-.11 1.325.2.508.38 1.028.74 1.543 1.11.09.123.21.196.33.068.032-.035-.047-.174-.075-.266-.43-.83-1.037-1.508-1.77-2.083-.308-.242-.516-.556-.232-.916.31-.393.567.006.802.15.82.51 1.62 1.046 2.43 1.572-.462-1.15-1.374-1.84-2.17-2.633-.25-.25-.593-.54-.285-.907.248-.297.603-.094.867.08.498.328.966.702 1.467 1.025.26.167.425.637.92.31-.57-1.036-1.233-1.957-2.236-2.602-.172-.11-.55-.14-.38-.47.13-.252.443-.422.716-.29.39.188.747.453 1.088.724.847.673 1.676 1.37 2.603 2.13.093-.683-.288-.905-.54-1.188-.768-.865-1.552-1.717-2.33-2.575-.203-.227-.587-.455-.315-.784.245-.297.596-.047.86.11.444.264.88.544 1.298.85.59.433 1.077 1.014 1.945 1.37-.554-1.768-2.092-2.572-2.94-3.953 1.895-.114 2.7 1.75 4.422 2.472-.907-1.65-2.028-2.792-3.224-3.878-.21-.192-.684-.36-.437-.715.215-.31.655-.216.99-.042 1.025.536 2.018 1.126 2.855 1.94.105.134.203.432.36.312.24-.18-.018-.357-.162-.502-.708-1.595-2.205-2.393-3.767-3.53 2.174-.358 3.325 1.2 4.876 1.727-.92-1.254-2.254-2.05-3.508-3.082.868-.364 1.42.2 2.04.092-.1-.477-.714-.41-.74-.876.575-.126 1.024.105 1.48.377 2.713 1.61 5.013 3.685 6.903 6.2 4.644 6.175 5.606 13.398 5.86 20.813.013.35.034.835-.42.868-.59.043-.514-.5-.51-.875.032-2.645-.322-5.25-.75-7.85-.456-2.757-1.134-5.435-2.59-7.86-.063-.073-.17-.218-.182-.21-.162.1-.1.238-.04.372 1.818 4.375 2.254 9.038 2.81 13.672.112.948.22 1.908.045 2.864-.044.242.108.637-.31.645-.44.008-.448-.373-.456-.697-.02-.878.007-1.76-.06-2.635-.272-3.557-1.095-7.02-1.954-10.462-.34-1.36-1.15-2.605-1.787-3.988-.32.385-.168.552-.09.725 1.133 2.525 1.878 5.166 2.338 7.89.513 3.034 1.006 6.07 1.062 9.156.005.308.255.835-.27.883-.52.047-.558-.48-.596-.876-.046-.477-.057-.957-.085-1.436-.26-4.485-.955-8.883-2.663-13.07-.23-.562-.358-1.21-.973-1.596-.19.466.037.83.158 1.183 1.22 3.555 2.22 7.16 2.66 10.905.182 1.55.292 3.098.316 4.655.005.304-.063.655-.355.668-.365.017-.32-.378-.34-.648-.01-.16.008-.32-.004-.48-.367-4.876-1.15-9.662-3.073-14.203-.14-.332-.183-.735-.66-.82-.036.156-.088.24-.067.303.113.34.252.67.366 1.007 1.524 4.48 2.506 9.068 2.762 13.8.047.862-.005.865-.577 1.423-.534-5.204-1.218-10.326-3.38-15.267-.376.386-.284.53-.23.676 1.34 3.487 1.984 7.142 2.56 10.808.198 1.258.233 2.542.336 3.813.024.296-.027.626-.372.646-.47.028-.27-.386-.296-.62-.1-.83-.13-1.67-.264-2.497-.58-3.625-1.11-7.263-2.6-10.666-.11-.25-.155-.64-.508-.52-.376.128-.168.447-.053.698 1.178 2.57 1.64 5.334 2.12 8.08.316 1.807.436 3.647.63 5.474.03.3.13.737-.298.784-.494.054-.51-.384-.517-.756-.002-.12-.01-.24-.018-.36-.233-3.765-1.104-7.41-2.086-11.033-.07-.262-.063-.57-.497-.607-.095.482.02.942.128 1.404.816 3.502 1.508 7.026 1.733 10.624.034.532.355 1.226-.592 1.427-.27-2.285-.484-4.546-.82-6.79-.517-3.464-1.22-5.476-2.104-6.395-.125.338.05.618.153.917 1.35 3.842 1.852 7.832 2.027 11.874.02.427.212 1.162-.48 1.12-.513-.03-.255-.73-.265-1.11-.09-3.705-.886-7.277-1.978-10.796-.095-.3-.115-.737-.803-.687 1.636 4.346 1.956 8.822 1.826 13.364-.56-4.085-.938-8.196-2.755-12.135-.367.602-.07.942.05 1.3 1.128 3.362 1.518 6.847 1.722 10.362.02.327.166.864-.326.88-.512.02-.346-.536-.374-.854-.21-2.308-.447-4.614-1.008-6.867-.274-1.104-.494-2.256-1.363-3.116-.015.333.044.64.13.94.84 2.965 1.494 5.966 1.605 9.057.02.55.34 1.267-.536 1.645-.5-3.678-.705-7.354-2.41-10.702.748 3.677 1.77 7.317 1.387 11.136-.838-3.285-1.108-6.697-2.453-9.837.25 3.51 1.816 6.883.928 10.495-.675-3.04-.542-6.26-2.12-9.203-.347.483-.138.763-.034 1.056.873 2.473 1.146 5.048 1.316 7.642.028.43.15 1.037-.43 1.073-.615.04-.303-.594-.34-.91-.252-2.138-.293-4.312-1.06-6.36-.124-.333-.05-.9-.784-.895.102.365.19.698.287 1.028.616 2.082.912 4.21.91 6.38 0 .45.175 1.168-.46 1.17-.587.004-.263-.682-.296-1.053-.183-2.017-.232-4.055-1.123-5.937l-.22-.184c-.008.128-.014.257-.02.385.466 2.147.876 4.304.765 6.518-.016.31.197.827-.392.81-.53-.013-.44-.493-.412-.828.153-1.734-.102-3.422-.552-5.088-.073-.27-.056-.663-.64-.654.184.868.428 1.697.524 2.542.145 1.266.2 2.543.262 3.818.018.36-.074.83-.52.805-.443-.025-.266-.5-.28-.787-.033-.638-.008-1.28-.05-1.917-.076-1.164-.054-2.36-.984-3.57.108 1.407.613 2.508.51 3.664-.096 1.05.403 2.247-.676 3.396-.185-2.062-.007-3.882-.807-5.55-.4 1.766.36 3.543-.127 5.57-.973-1.386-.242-2.82-.753-4.087-.38.455-.188.9-.208 1.31-.02.436.04.875.03 1.31-.104 4.077-1.617 7.687-3.722 11.09-.3.487-.383.776.02 1.33 3.23 4.437 6.142 9.04 7.037 14.612.322 2.01.763 4 1.052 6.014.562 3.917 1.16 7.848-.133 11.758.358.152.46-.21.612-.392 3.6-4.287 6.874-8.802 9.796-13.586 6.282-10.29 10.834-21.218 12.49-33.234.978-7.11.993-14.164-1.28-21.093-1.808-5.513-4.814-10.163-9.627-13.485-8.025-5.54-16.614-5.235-25.256-1.906-6.37 2.454-11.784 6.522-16.61 11.32-10.13 10.068-17.047 22.117-21.706 35.535-.075.217-.297.497.014.75.67-.265.896-.857 1.136-1.454.79-1.958 1.585-3.913 2.393-5.863.174-.418.264-.95 1.04-.932-.526 2.51-2.207 4.56-2.707 7.143.944-.42 1.43-1.027 1.733-1.873.538-1.5 1.156-2.97 1.76-4.443.15-.367.19-1.048.8-.77.685.31.072.712-.112 1.045-.785 1.415-1.402 2.897-1.925 4.494.94.062 1.31-.442 1.578-1.115.503-1.26 1.018-2.512 1.55-3.758.15-.35.304-.88.824-.62.514.255.023.638-.085.898-.493 1.183-1.27 2.255-1.465 3.654.99-.208 1.258-.917 1.54-1.62.354-.886.71-1.77 1.086-2.648.12-.28.362-.464.675-.295.334.18.057.414-.02.603-.41 1.014-.837 2.02-1.31 3.153.9-.106 1.31-.472 1.513-1.163.212-.724.483-1.432.766-2.13.12-.296.336-.597.732-.357.375.227.07.485-.016.72-.257.714-.81 1.337-.72 2.18.8-.06 1.207-.472 1.405-1.167.12-.42.31-.82.496-1.215.102-.22.298-.456.548-.367.354.125.223.484.14.71-.158.442-.396.856-.63 1.34.673.096 1.13 0 1.404-.655.21-.506.33-1.167 1.098-1.223.183.556-.46.972-.15 1.49l-.154.005.03.098.103-.133c.903.223 1.175-.398 1.43-1.06.104-.268.258-.53.61-.435.487.133.118.442.103.67-.013.176-.235.377.016.514.234.126.493.037.634-.17.15-.225.23-.498.34-.75.12-.268.277-.518.622-.428.506.134.093.434.095.66.002.168-.227.344.013.52.55.08.78-.274.973-.694.095-.205.277-.27.494-.25.215.022.21.175.218.343.01.21-.34.595.232.56.304-.02.728.133.87-.225.64-1.604.843-.087 1.112.197.614-.252 1.11-1 1.636-.054.04.074.216.082.333.104 1.135.22 2.278.638 3.402.593 1.03-.042 1.892.938 2.964.34.252-.14.196.245.264.396.08.176.163.478.38.278.957-.89.73.26.885.562.53.027.523-.708 1.04-.528l.112.99c1.11-.848 1.88-1.938 2.67-3.013.208-.283.514-.504.804-.713 2.166-1.554 3.965-1.072 5.016 1.33.022.05.14.06.275.11.05-1.036-.262-1.865-1.092-2.492-.378-.286-.438-.747-.156-1.055.28-.306.533.16.81.255.256.087.33.575.733.33l-.025-.026c.68 1.707-.21 3.342-.304 5.01-.102 1.823-1.517 3.212-2.477 4.743.427.165.653.004.81-.247.642-1.047 1.502-1.975 1.777-3.226.068-.31.125-.746.528-.644.415.105.22.564.135.813-.19.56-.45 1.103-.735 1.624-.4.732-.85 1.438-1.277 2.155-.014.097-.073.245-.033.28.107.096.185 0 .228-.11 1.256-1.198 1.87-2.77 2.54-4.54.647 1.437-.512 2.222-.73 3.23-.09.16-.18.31-.27.463zm.923 11.417c-.075-.5-.122-.85-.182-1.197-.055-.32.042-.557.363-.655.304-.092.42.145.55.347.106.168.21.34.32.504.147.22.385.364.604.224.274-.176.054-.434-.046-.625-.426-.813-.884-1.607-1.306-2.42-3.017-5.814-7.916-9.57-13.766-12.058-6.137-2.608-12.47-1.953-18.668-.1-9.454 2.828-17.1 8.55-23.657 15.707-4.01 4.376-7.58 9.136-10.55 14.34-1.974 3.457-3.85 6.96-5.356 10.62-1.507 3.66-2.523 7.518-3.536 11.357-.292 1.108-.095 2.07.59 2.898.42.508.426.975.31 1.54-.63 3.09-1.323 6.17-1.258 9.353.01.426-.03.848-.65 1.335.077-4.323.326-8.38.977-12.425-.57.198-.586.636-.643.982-.738 4.495-1.28 8.99-1.16 13.58.198 7.69 2.252 14.713 6.806 20.943 5.34 7.308 12.735 10.53 21.584 10.064 7.347-.387 14.062-3.095 20.233-7.075 11.212-7.23 19.06-17.396 24.834-29.203 5.75-11.755 8.896-24.154 8.037-37.37-.023-.362.193-.82-.326-1.04-.46.404-.41.95-.367 1.457.285 3.488-.387 6.928-.498 10.396-.016.51-.076 1.02-.815 1.303.22-3.018.522-5.912.408-8.812-.025-.64.738-1.767-.737-1.924-.025-.003-.086-.274-.035-.325.992-.994-.228-2.14.22-3.185.092-.22.067-.725-.424-.673-.415.044-.196.39-.23.646-.152 1.2-.05 2.39.05 3.58.09 1.084.2 2.15.21 3.253.015 1.987-.333 3.925-.4 5.89-.018.465-.025 1.03-.57 1.408-.207-.71-.127-1.343-.094-1.965.205-3.92.096-7.825-.435-11.716-.08-.608-.162-1.208-.9-1.612.993 5.313.242 10.502-.727 15.696.026-5.286.366-10.576-.76-15.946-.91 1.44-.144 2.684-.124 3.936.06 3.85-.406 7.657-.827 11.47-.04.368.062.968-.495.91-.585-.06-.297-.647-.258-.978.285-2.422.334-4.85.376-7.286.036-2.082-.607-4.097-.408-6.18.032-.328-.133-.804-.576-.77-.425.03-.346.44-.296.762.75 4.842.188 9.636-.523 14.426-.06.41-.133.793-.728.83.71-5.767 1.048-11.497-.813-17.1.573 5.73.795 11.423-.957 17.008-.18-.307-.222-.613-.173-.904.778-4.545.324-9.07-.226-13.59-.026-.215.168-.65-.33-.59-.333.042-.427.325-.422.63.003.2 0 .402.03.598.502 3.192.085 6.383-.063 9.57-.073 1.582-.022 3.205-.6 4.734-.09.238-.022.67-.42.588-.433-.09-.297-.457-.22-.784.496-2.073.598-4.174.553-6.305-.05-2.408-.31-4.792-.564-7.18-.018-.154-.224-.357-.384-.41-.17-.057-.21.17-.247.32-.08.307-.162.596-.132.934.063.713.574 1.612.438 1.995-.534 1.497.034 2.975-.248 4.452-.375 1.955-.32 3.98-.74 5.938-.082.373-.065 1.025-.474.963-.553-.085-.242-.72-.217-1.09.118-1.715.32-3.422.44-5.136.117-1.72.154-3.442-.333-5.167-.86.478-.63 1.217-.605 1.863.115 3.248-.177 6.454-.914 9.62-.07.3-.07.72-.516.668-.506-.06-.312-.518-.24-.753.773-2.562.655-5.22.846-7.84.1-1.404-.215-2.78-.538-4.142-.058-.24-.103-.624-.503-.53-.43.1-.14.46-.178.7-.023.15.034.315.056.473.54 3.837.373 7.65-.39 11.442-.073.36-.002.98-.567.845-.523-.125-.205-.69-.148-1.03.22-1.302.41-2.603.416-3.927.01-2.248-.106-4.485-.517-6.702-.06-.324.063-.86-.396-.802-.47.06-.276.595-.218.915.69 3.803.126 7.565-.337 11.332-.055.445-.197.82-.674.99-.26-.45-.052-.84 0-1.213.478-3.38.767-6.755.023-10.13-.067-.306.09-.902-.416-.825-.522.08-.338.647-.28 1.018.217 1.38.574 2.743.465 4.16-.166 2.15-.338 4.3-.506 6.45-.025.315.007.66-.483.708-.19-3.65.74-7.383-.715-10.998-.537.396-.41.865-.358 1.335.333 3.052.854 6.103.106 9.167-.08.334-.042.86-.49.805-.485-.06-.27-.56-.253-.896.004-.08.015-.16.027-.238.47-2.88.334-5.728-.452-8.543-.063-.226-.018-.534-.333-.537-.373-.004-.412.317-.41.603.003.198.04.4.087.592.686 2.774.26 5.567.133 8.354-.015.326-.088.725-.516.638-.46-.094-.257-.507-.196-.79.188-.864.29-1.732.2-2.617-.26-2.492-.202-5.037-1.304-7.386-.177-.376-.366-.97.066-1.196.476-.25.738.3.98.662.137.205.27.41.41.625.925-.858-1.418-2.178.552-2.767.117.205.21.435.36.614.186.22.203.758.615.573.38-.17.125-.567 0-.843-.327-.724-.134-1.256.467-1.708.48.358.456 1.287 1.043 1.092.64-.213.078-.792-.018-1.214-.08-.348.026-.652.368-.795.38-.16.7-.11.85.352.07.21.12.535.43.44.3-.09.362-.37.305-.69-.056-.31-.094-.64-.046-.95.032-.21.178-.47.354-.58.275-.174.39.15.555.307.22.208.225.833.74.483.37-.25.206-.65.02-.972-.432-.745.03-1.017.632-1.157.623-.145.29.77.85.78.383-.393.428-.877.31-1.414-.07-.305-.153-.605.27-.795.486-.22.646.074.827.4.108.2.174.505.475.42.292-.08.418-.365.45-.654.032-.317.003-.64.04-.957.072-.594.286-.834.813-.306.205.205.394.625.764.394.32-.2.33-.604.34-.977.012-.48-.21-1.006.19-1.44.125.063.2.09.265.132.438.29.7 1.1 1.27.86.592-.25.35-.963.24-1.514-.07-.34.02-.66.354-.813.49-.225.61.193.773.502.144.272.344.47.664.37.364-.113.46-.404.384-.765-.04-.195-.087-.392-.1-.59-.025-.442-.055-1.004.397-1.148.4-.127.43.475.647.73.122.145.172.405.408.376.273-.034.374-.304.44-.52.064-.22.047-.473.032-.71-.022-.376-.02-.767.407-.89.422-.12.478.313.662.552.158.203.242.595.577.494.314-.095.313-.447.235-.722-.124-.437-.29-.96.153-1.2.435-.23.674.388 1.24.658zm7.71 24.737l-.354-.324c-.87 1.272-2.24 2.12-3.013 3.475l.308.265 3.06-3.416z"/><path d="M140.153 153.296c1.98-1.216 3.82-2.605 5.413-4.307.265-.284.523-.732.967-.32.493.46-.086.69-.31.94-2.23 2.485-4.817 4.53-7.7 6.216-.342.2-.862.252-.953.8.482.27.747-.148 1.06-.327 2.653-1.513 4.99-3.437 7.198-5.528.405-.384.826-.753 1.258-1.105.43-.35.944-.375 1.287.037.328.396-.216.597-.413.83-2.27 2.685-5.157 4.623-8.02 6.592-.32.22-.72.34-.926.712l-.134.188.294-.01c1.96-.772 3.508-2.18 5.165-3.41 1.572-1.17 2.956-2.56 4.353-3.933.228-.224.454-.45.69-.666.323-.298.67-.235.97.014.43.357-.033.555-.2.756-2.13 2.577-4.787 4.575-7.397 6.612-4.093 3.195-8.653 5.525-13.605 7.072-1.38.432-1.4.374-2.132-.016.584-.29 1.14-.564 1.834-.91-.823-.323-1.565.453-2.22-.286.45-.414.924-.85 1.478-1.355-.588-.384-1.59.18-1.68-.646-.088-.78 1.114-.423 1.35-1.103l-1.415-.49c.175-.756 1.025-.45 1.322-.98-.543-.212-1.45.035-1.56-.557-.144-.8 1-.54 1.36-1.107-.31-.41-1.022.294-1.143-.294-.16-.78.754-.905 1.145-1.465-.817-.1-1.66.105-2.29-.568.3-.55 1.25-.345 1.363-1.135-.38-.267-.768.145-1.2-.062.126-.747.792-1.176 1.198-1.748-.325-.25-.738.24-.886-.096-.226-.514.525-.615.618-1.15l-1.59-.108c.797-.458.775-.85.73-1.57-.23-3.533-1.022-7.015-.897-10.594.03-.867.38-2.13-.6-2.887.034-.56 1.07-.338.78-.92-.26-.518-.664-1.063-1.47-1.018-1.363.076-2.567-.478-3.726-1.13l-.562-.36-.345-.318c-.22-.296-.466-.492-.88-.17l.605.393.357.297.588.44c.406.407.93.605 1.452.797.364.134.863.144.823.684-.035.465-.524.404-.834.53-.175.072-.38.073-.564.105-.004.86 1.705.674 1.088 1.804-.35.64-1.02.096-1.63.197.16.543.68.747.934 1.143.36.56.536 1.066-.446 1.08-.257.002-.6-.166-.696.21-.08.314.26.46.43.666.863 1.055.863 1.045-.394 1.433-.356.11-.912.202-.435.75.273.31 1.033.196.85.913-.156.604-.855.308-1.193.643-.006.34.325.415.49.613.566.67.712 1.192-.407 1.34-.29.04-.565.11-.65.43-.062.235.185.312.292.463.3.415 1.25.185 1.107.946-.145.76-1.04.396-1.52.752-.03.35.312.396.48.57.263.274.815.41.68.874-.122.412-.605.474-1.012.436-.47-.043-.484.277-.56.593-.105.443.254.41.487.502.11.043.23.063.35.08.43.065.815.202.718.74-.08.445-.473.485-.84.486-.236 0-.473-.045-.71-.07l-.267.01.138.113c-.027.475.027.9.638.937.627.036.873.44.77.97-.106.535-.598.134-.9.23-.342.11-.912-.357-.973.448-.057.733.535.502.87.68.282.148.91-.224.83.455-.068.565-.324.972-1.05.68-.406-.166-.814-.248-.88.49-.072.788.437.583.82.627.348.04.7.045 1.07.065-.042.895-.39 1.293-1.284 1.04-.212-.06-.577-.274-.61.23-.025.387.032.728.514.79.616.08 1.263-.106 1.984.2-.458.774-1.18.654-1.792.76-.36.06-.78.072-.768.56.012.488.36.67.825.656.2-.005.41-.04.597.01.34.088.946-.303.99.268.05.645-.596.615-1.068.654-.2.017-.402-.006-.6.01-.23.02-.556-.012-.58.283-.028.352.303.41.58.433.4.035.8.034 1.197.074.283.027.598.104.59.46-.01.334-.283.453-.59.456-.554.005-1.107 0-1.774 0 .245.726.708.683 1.173.69.325.004.837-.175.875.333.042.55-.5.41-.81.408-6.517-.02-12.21-2.1-16.812-6.826-1.792-1.84-3.362-3.853-4.457-6.196-.264-.567-.582-1.14-.453-1.805.333-.144.473.083.558.293 2.28 5.677 6.468 9.353 12.05 11.62 1.89.77 3.764 1.544 5.793 1.86.335.05.697.256.97-.188-.365-.495-.93-.31-1.392-.446-5.036-1.488-9.794-3.47-13.218-7.714-1.385-1.717-2.467-3.624-3.372-5.635-.202-.448-.387-.877.16-1.393.822 1.88 1.792 3.593 2.91 5.23 1.904 2.782 4.3 4.89 7.527 6.03 2.135.755 4.118 1.93 6.375 2.352.345.064.9.43 1.027-.106.15-.634-.522-.397-.853-.486-7.45-2.018-13.186-6.09-16.17-13.467-.114-.28-.392-.64.03-.826.48-.212.47.316.567.56 2.8 6.98 8.63 10.263 15.29 12.518.328.11.834.41 1.04-.146.234-.64-.34-.68-.75-.805-6.123-1.858-10.765-5.605-14.096-11.034-.377-.615-.697-1.248-.946-1.926-.137-.375-.198-.688.23-.963 2.1 4.367 5.172 7.85 9.403 10.26 1.703.97 3.485 1.762 5.36 2.337.276.085.673.414.83.005.175-.46-.222-.675-.65-.813-.604-.194-1.188-.452-1.778-.692-5.548-2.26-9.183-6.465-11.84-11.658-.132-.255-.447-.582-.05-.836.443-.282.5.218.645.434.29.43.57.872.786 1.34 2.412 5.197 7.028 7.764 11.927 9.98.254.114.732.64.974-.04.193-.54-.202-.722-.658-.92-4.94-2.145-8.854-5.498-11.635-10.118-.452-.753-1.046-1.58-.652-2.64.455.2.49.538.614.814 2.375 5.27 6.563 8.513 11.812 10.572.24.094.53.366.722 0 .17-.322-.022-.644-.3-.824-.262-.17-.584-.24-.873-.37-4.458-2.004-7.825-5.177-10.082-9.503-.374-.72-.86-1.527-.2-2.51.9 2.474 2.114 4.645 3.932 6.458 1.808 1.805 3.932 3.12 6.21 4.214.665.318.675.296 1.265-.53-4.54-1.905-7.826-5.145-10.02-9.51-.255-.507-.998-1.178-.302-1.63.353-.228.686.722.927 1.183 1.65 3.146 3.78 5.815 7.045 7.43.683.34 1.37.64 2.11.815.25.06.505.126.628-.134.192-.405-.208-.46-.432-.55-2.436-.973-4.354-2.642-6.057-4.57-1.44-1.633-2.28-3.588-2.99-5.73.77.017.857.49 1 .865 1.355 3.604 3.967 6.003 7.33 7.696.558.282 1.085.503 1.633-.2-2.25-.92-4.136-2.28-5.654-4.14-1.252-1.535-2.092-3.29-2.843-5.103-.138-.33-.22-.667.154-.818.51-.21.448.294.528.553 1.113 3.572 3.527 6 6.77 7.694.33.172.76.497 1.033-.028.31-.598-.35-.588-.616-.738-3.538-1.995-5.396-5.143-6.387-9.144.85.437 1.004 1.13 1.192 1.728.903 2.864 3.082 4.583 5.42 6.17.214.143.45.38.688-.017.194-.325.033-.533-.184-.724-.42-.368-.845-.732-1.286-1.076-2.155-1.677-3.484-3.91-4.387-6.44-.122-.344-.357-.76.1-.923.423-.15.443.37.538.626.794 2.16 2.163 3.894 3.917 5.347.518.43 1.05.832 1.85.96-.285-.992-.967-1.514-1.645-2.037-2.104-1.625-3.1-3.897-3.716-6.388-.033-.138.04-.303.075-.547.774.35.875 1.046 1.014 1.66.452 1.98 1.85 3.214 3.39 4.318.28.2.794.667 1.13.104.297-.494-.185-.74-.55-1.014-1.742-1.303-3.036-2.93-3.546-5.096-.118-.502-.242-1.004-.02-1.565.585.194.56.713.655 1.147.374 1.694 1.46 2.888 2.75 3.946.326.27.654.373.934.03.345-.42-.173-.515-.363-.67-1.265-1.05-2.173-2.33-2.638-3.91-.068-.23-.353-.534.046-.722.47-.22.527.202.624.48.498 1.427 1.405 2.45 2.822 3.01.266-.432 0-.62-.233-.856-.446-.455-.916-.903-1.28-1.42-.98-1.387-.928-1.635.675-1.993 1.473-.33 2.597-1.393 4.042-1.738l.21.173c-.33.73-.275 1.498-.106 2.23.172.747.19 1.266-.905 1.145 1.444.938 2.942.937 4.438.722 2.683-.386 4.786-1.856 6.67-3.71 2.638-2.6 4.72-5.6 6.46-8.852.412-.772.408-.775 1.164-1.15.37.814-.08 1.442-.443 2.068-2.08 3.57-4.63 6.77-7.6 9.644-.14.136-.265.288-.386.42.063.32.254.26.45.196.457-.153.675.154.824.485.203.452-.275.498-.484.687-.264.238-.568.433-.855.646l-.82.544c-.266.104-.547.19-.6.553.36.11.582-.097.81-.28l.91-.58c.205-.105.403-.228.617-.313.368-.146.764-.685 1.096-.332.31.33-.157.764-.345 1.132l-1.498 1.06c.895.15 1.304-.43 1.796-.84.34-.072.718-.243.892.24.135.375-.154.583-.402.767-1.002.744-2.016 1.475-3.024 2.21-.218.12-.58.234-.333.534.133.16.376-.127.536-.273.942-.584 1.893-1.155 2.823-1.758.355-.23.635-.456.956.054.344.548-.202.597-.422.78-.736.608-1.506 1.178-2.263 1.762.078.104.154.208.23.312.69-.472 1.366-.963 2.075-1.403.31-.19.623-.746 1.063-.13.438.616-.256.692-.457 1.004-.24.163-.482.325-.724.488l-.38.3-.72.48c-.238.16-.476.317-.714.476l-.534.354-.847.552c-.173.098-.39.267-.223.43.22.214.394-.06.55-.215.29-.088.537-.232.71-.488.185-.12.37-.237.556-.355l.764-.515c.244-.163.488-.326.73-.49l.374-.3.72-.48c.34-.094.673-.568 1.025-.042.374.56-.1.787-.448 1.032-1.465 1.03-2.938 2.05-4.43 3.09.492.396.79-.043 1.096-.24 1.272-.82 2.53-1.667 3.778-2.523.326-.224.694-.427.94-.067.244.352-.07.653-.385.873-1.342.936-2.686 1.87-4.017 2.82-.373.266-.842.446-1.05 1.077 1.148-.307 1.89-1.11 2.774-1.645.784-.475 1.523-1.024 2.263-1.567.356-.26.826-.448 1.076-.138.335.415-.057.814-.423 1.064-1.45.988-2.92 1.95-4.372 2.936-.317.215-.738.33-.89.818.51.207.813-.187 1.138-.392 1.416-.893 2.807-1.826 4.22-2.725.35-.223.8-.632 1.143-.116.335.504-.226.758-.53 1.043-.262.245-.543.47-.815.703-.51.344-1.023.688-1.535 1.03l-2.926 1.81c.064.105.13.21.195.313 1.083-.483 2.028-1.21 3.003-1.882l1.558-1.044c.44-.27.88-.54 1.32-.812.293-.184.637-.55.935-.233.335.354.013.78-.252 1.054-.443.455-.943.862-1.446 1.255-.817.638-1.657 1.248-2.487 1.87l-.858.552c-.417.173-.89.276-1.144 1.02.57-.337.96-.568 1.347-.8l.89-.56c1.256-.553 2.306-1.404 3.34-2.28.334-.284.675-.565 1.042-.804.307-.2.718-.35.985-.023.297.362-.037.63-.3.896-.62.624-1.446 1.052-1.716 2.062.725-.568 1.44-1.146 2.175-1.7.23-.173.485-.505.804-.123.26.31.098.588-.113.852-.78.97-1.712 1.777-2.712 2.51-1.283.94-2.575 1.868-3.864 2.8-.155.075-.457.095-.31.345.112.193.32-.03.485-.078 2.125-1.268 4.158-2.655 6-4.323.557-.503 1.264-1.623 2.005-.84.595.63-.467 1.346-.98 1.867-1.523 1.55-3.453 2.562-5.218 3.793-.613.43-1.318.736-1.848 1.357.557.213.96-.072 1.342-.31 2.477-1.542 4.914-3.14 6.942-5.27.165-.174.328-.364.53-.48.293-.17.67-.193.893.056.24.267-.066.513-.227.72-1.112 1.447-2.65 2.41-4.032 3.552-.334.277-.674.55-1.01.824-1.115.69-2.228 1.384-3.34 2.076l.174.257c1.31-.378 2.334-1.225 3.36-2.067zm-9.3-22.1l-.374.18c.2.194.392.094.585-.014.114-.096.265-.21.09-.348-.19-.15-.226.073-.3.18zm-.118 8.04c.52-.213 1.057-.41 1.347-1.21-.765.216-1.213.55-1.582 1.015l-.06.285c.098-.03.197-.06.295-.088zm3.87 11.157c.892-.397 1.81-.758 2.455-1.503l-.184-.286-2.46 1.515c-.07.08-.213.197-.194.237.09.195.247.1.384.036zm2.344-1.598c1.196-.365 1.707-.803 1.882-1.603-.657.5-1.416.79-1.883 1.603zM139.633 69.176c.594.12 1.508-.834 1.737.173.25 1.096-.987.667-1.542.95-.278.142-.628.14-.912.275-.3.143-.854.164-.778.587.088.496.59.584 1.067.517.118-.018.238-.03.355-.053.333-.07.703-.087.82.278.136.423-.278.5-.563.605-.56.21-1.12.418-1.69.596-.265.083-.543.097-.766.302-.217.203-.385.463-.35.727.053.405.443.187.682.26.445.138 1.26-.35 1.288.282.026.583-.853.52-1.375.65-.193.046-.4.04-.59.1-.56.17-1.17.468-1.05 1.1.095.5.75.148 1.146.248.29.073.612.014 1.084.014-.53.925-1.273 1.223-2.067 1.442-.23.063-.477.07-.695.154-.347.135-.48.464-.408.784.09.4.448.216.693.17.448-.083 1.076-.46 1.23.152.104.424-.578.695-1.023.858-.713.26-1.676.153-1.692 1.38.457.332 1.306-.5 1.727.416-.62.285-1.194.677-1.822.804-.643.13-.69.556-.615.946.094.482.513.127.79.124.34-.006.68-.043 1.16-.076-.493.844-1.158 1.14-1.928 1.207-.526.046-.703.32-.684.78.026.61.457.22.703.254.402.053.918.057.982.506.06.41-.495.427-.784.605-.166.103-.364.17-.558.21-.434.09-1.034.15-.975.674.074.654.704.193 1.074.292.18.048.418-.05.512.2.092.245-.116.356-.254.48-.362.326-.77.58-1.27.617-.568.04-.755.414-.734.89.024.532.475.23.73.29.427.104 1.002.13.995.658-.007.454-.6.394-.95.515-.676.236-1.367.437-1.823 1.15.708.447 1.558.29 2.297.64-.307.923-1.09.554-1.687.6-.456.036-.848-.042-.82.654.034.79.538.51.927.5.358-.013.76-.38 1.134.31-1.65.35-3.3-.015-5.107.54l.896-.795c-.366-.658-1.678.452-1.52-.74.06-.463.358-1.28 1.232-1.48l-.352-.204c-.36-.207-1.03.474-1.148-.336-.097-.662.457-.825.975-.997.334-.11.946.043.9-.55-.047-.57-.52-.294-.847-.267-.498.042-.405-.376-.5-.653-.132-.392.04-.602.403-.71.926-.273 1.854-.548 2.75-1.056-.655 0-1.31.024-1.963-.014-.26-.015-.71.24-.745-.295-.027-.41.274-.683.623-.792.722-.228 1.464-.39 2.197-.584.186-.05.394-.08.52-.41-.938.102-1.81-.514-2.72.03-.31.186-.565.278-.68-.237-.094-.415-.105-.667.4-.775.935-.2 1.86-.452 2.788-.683.366-.092.805-.064 1.05-.934-1.398 1.21-2.824-.392-4.12.664 1.04-2.185 3.638-1.395 5.148-2.728-.532-.368-.907.083-1.314.066-.456-.02-1.022.914-1.405-.166-.05-.14-.54.223-.837.317-.318.1-.753.357-.938-.086-.186-.443.166-.768.573-.898 1.024-.33 2.072-.585 3.088-.937.556-.193 1.24-.188 1.825-.898-1.082-.042-1.83.362-2.617.526-.597.124-1.168.443-1.77-.028-.178-.138-.61.11-.633-.336-.022-.416.332-.503.627-.608 1.39-.492 2.788-.96 4.17-1.47.348-.13.803-.097 1.036-.57-.608-.377-1.124.086-1.64.175-1.14.197-2.262.49-3.378.793-.44.12-.85.15-1-.31-.15-.455.325-.582.63-.732 1.755-.866 3.552-1.62 5.49-1.987.343-.065.71-.075.954-.39-.022-.312-.263-.29-.434-.253-1.63.366-3.258.75-4.887 1.126-.335.077-.756.327-.93-.16-.148-.417.214-.635.555-.787 1.75-.78 3.55-1.417 5.398-1.93.586-.163 1.245-.197 1.77-.722-.14-.087-.25-.205-.305-.183-1.976.76-4.15.812-6.084 1.724-.343.16-.826.5-1.058.073-.237-.438.217-.774.613-.992 2.29-1.256 4.76-2.026 7.272-2.685.465-.122 1.05-.065 1.34-.89-2.217.533-4.253 1.14-6.248 1.89-.56.21-1.102.468-1.652.703-.308.13-.688.228-.867-.084-.212-.37.08-.673.385-.89.227-.16.467-.308.714-.435 3.624-1.87 7.435-3.064 11.582-3.182.107.84-.572.877-1.09 1.076-.75.286-1.723.16-2.103 1.132-.08.28-.044.412.26.21z"/><path d="M132 113.376c-.212.18-.413.378-.644.528-.117.076-.31.125-.435.083-.274-.094-.18-.33-.073-.488.38-.565.134-.72-.406-.593-.5.117-.683-.012-.572-.52.016-.075.054-.17.025-.225-.514-.994-.518-.996.41-1.824.712-.634 1.34-1.37 2.18-1.854.7 1.102 1.006 2.313 1.036 3.63 1.86-1.486 1.364-3.29.827-5.042-.223-.727-1.078-.89-1.665-1.287-.177-.12-.64-.11-.408-.517.195-.344.542-.354.81-.09 1.078 1.07 2.04 1 3.164-.037.552-.51 1.424-.682 2.162-.982.76-.31 1.293-.115 1.6.7.807 2.154.337 4.343.205 6.52-.016.26-.307.33-.56.332-.395-.768.272-1.757-.5-2.49-.214.47-.08.904-.08 1.332 0 .45.195 1.155-.402 1.177-.49.017-.502-.698-.562-1.166-.068-.536.14-1.13-.348-1.607-.327.93.206 2-.495 2.955-.69-.813-.132-1.895-.783-2.61-.053.08-.14.152-.13.205.24 1.23-.105 2.21-1.15 2.953-1.456 1.04-1.607 2.84-2.45 4.227-.39.644.44.86.03 1.562-.998 1.7-2.157 3.118-4.183 4.128h1.384c-.834 1.363-2.344 1.748-3.495 2.843 1.8.148 2.623-1.81 4.51-1.554-1.212 1.32-2.73 1.885-3.86 2.976 1.528-.095 2.483-1.62 4.057-1.73 0 .617-.707.728-.667 1.293.485.28.79-.535 1.302-.207.093.482-.44.66-.603 1.05.412.383.764-.286 1.227-.046-.49 1.132-1.388 1.9-2.31 2.628-1.2.95-2.623 1.49-4.026 2.065-.584.24-.813.042-1.058-.5-.6-1.327-.946-2.708-1.074-4.147-.062-.702.068-1.34.736-1.774.476-.31.75-.81 1.074-1.27.768-1.08 1.254-2.36 2.488-3.117.717-.44 1.077-1.26 1.194-2.135.137-1.028.134-2.073 1.73-2.01.52.022.79-1.385.677-1.534-.65-.846.244-1.095.45-1.588.128-.078.26-.21.136-.326-.142-.13-.336-.072-.472.082zm-3.136 13.848c-.238.192-.68.18-.67.69.402.042.628-.21.87-.43l.27-.147c.35-.267.978-.29.927-.997-.53.104-.8.46-1.123.737-.09.05-.18.098-.273.147zm-.743.817c-.104-.065-.072-.28-.255-.177-.098.056-.183.135-.273.202.073.068.072.253.24.168.1-.05.185-.122.29-.192z"/><path d="M141.92 104.103c.12 2.308.318 4.607.183 6.93-.087 1.49-.64 2.893-.665 4.38l.03-.026c-.39.15-.497.394-.252.755l.02-.034c-.425-.007-.258.3-.272.51l.023-.036c-.35.117-.968 1.182-.866-.284.036-.508.23-1.546.57-1.993.45-.593-.256-.89-.478-1.38 1.087-.188 1.42-.71.885-1.737-.184-.354-.125-.853-.117-1.284.04-2.208-.14-4.356-.96-6.462-.587-1.512-1.37-2.678-2.973-3.165-.33-.1-.813-.198-.63-.68.2-.514.638-.127.912-.04 1.723.557 2.89 1.78 3.808 3.286.172.282.185.677.565.813l-.01-.025c-.123.276-.122.488.258.506l-.03-.033zM105.284 128.672c-.77.735-.39 1.73-.63 2.602-.88-.12-.872-.745-.89-1.406-.013-.554.46-1.13-.036-1.73-.692 1.222-.12 2.623-.75 3.882-.55-.64-.246-1.42-.57-2.107-.422.316-.196.75-.28 1.09-.08.326-.19.68-.545.694-.43.02-.457-.437-.44-.703.082-1.312.218-2.62.343-3.93.026-.276.183-.48.47-.33.644.337 1.337.14 1.998.247.578.095 1.055.237 1.328.95.49 1.277 1.547 1.978 2.922 2.16.383.052.785.04 1.286.395-1.24.123-2.407-.203-3.376.624-.334.284-1.026-.66-.9-1.265.074-.37.407-.712.07-1.173zM126.554 112.985c.155.283.48-.104.593.125.1.2-.1.48-.255.46-1.136-.14-1.252.99-1.868 1.502-.537-.45-.133-.834.063-1.163.796-1.333 1.66-2.617 2.766-3.727.18-.18 1.105-.497.098-.912-.152-.06-.102-.276.013-.41 1.107-1.284 2.297-2.47 4.01-3.42-.172.74-.464 1.274.177 1.694.225.146.134.51-.108.828-.798 1.05-2.082 1.54-2.902 2.586-.14.18-1.03-.112-1.232.587-.068.236-1.042.614.08.75.04.005.098.294.057.422-.083.257-.31.216-.485.11-.706-.422-.765.2-.974.588-.052.04-.104.082-.155.124.054.01.106.02.16.032l-.036-.177zm2.29-3.713c.235-.14.625-.356.395-.59-.373-.383-.46.186-.666.358-.092.102-.254.204-.09.35.158.14.25-.046.36-.118zm1.18-1.272c.063-.096.14-.18.173-.277.05-.148-.097-.21-.174-.17-.085.048-.134.182-.167.287-.008.028.096.092.17.16zM98.368 124.408c.333.128.667.258 1 .384 1.09.41 1.65 1.422 1.502 2.558-.153 1.183-.208 2.378-.347 3.562-.04.33.135.856-.55.822-.735-.036-.563-.55-.522-.95.154-1.506.344-3.008.514-4.513.042-.376.238-.89-.343-.966-.588-.076-.374.493-.43.79-.328 1.76-.625 3.527-.94 5.29-.06.338-.055.837-.54.752-.406-.07-.228-.544-.202-.815.222-2.258.477-4.514.722-6.77.048-.046.094-.093.138-.142zM112.348 84.972c1.52-3.02 8.963-9.676 10.654-9.53-4.166 2.49-6.93 6.546-10.654 9.53zM146.034 106.666c-.07 1.067.132 2.192-.174 3.29-.067.243.05.683-.348.636-.41-.047-.345-.48-.312-.778.127-1.15.235-2.293.168-3.457-.12-2.085-.584-4.092-1.188-6.08-.125-.408-.5-.98.233-1.184.735-.203.708.5.828.902.646 2.16.69 4.397.794 6.67zM122.746 77.852c-3.487 2.405-6.48 5.32-9.362 8.363-.165.173-.348.57-.65.302-.25-.22-.045-.507.158-.723 2.656-2.822 5.303-5.653 8.518-7.87.403-.28.817-.52 1.336-.072z"/><path d="M144.553 107.63c-.088.603.14 1.576-.168 2.51-.086.26.067.777-.422.667-.326-.074-.29-.49-.252-.83.078-.712.11-1.43.143-2.146.104-2.222-.32-4.358-1.025-6.455-.138-.41-.478-1.098.01-1.238.657-.188 1.003.412 1.114 1.09.327 2.01.685 4.012.6 6.403zM94.373 133.035c-.258-.158-.307-.426-.293-.638.196-3.017.162-6.062 1.01-9.005.056-.193-.087-.707.42-.414.276.16.835.032.672.727-.682 2.902-1.54 5.777-1.55 8.8-.003.176-.168.35-.26.53zM114.253 89.506c.46-1.847 6.388-6.997 7.98-6.858-2.97 2.14-5.36 4.626-7.98 6.858zM165.122 123.46c.654-1.733 1.337-3.458 1.954-5.206.49-1.388.84-2.818 1.013-4.287.035-.298-.054-.745.42-.688.45.053.317.478.28.777-.305 2.55-1.155 4.947-2.126 7.3-.33.802-.453 1.768-1.542 2.104zM113.5 88.062c.39-1.74 7.764-8.06 9.19-7.808-3.525 2.228-6.2 5.203-9.19 7.808zM95.834 132.543c-.07-3.05.048-5.75.9-8.385.15-.456.352-.23.615-.177.505.1.495.347.368.763-.593 1.94-1.015 3.916-1.3 5.926-.074.524.085 1.118-.584 1.873z"/><path d="M141.702 103.655c.4-.453-.084-.77-.204-1.12-.17-.503-.436-.97.04-1.436 1.518.885 2.338 7.757 1.103 9.99-.336-.47-.16-.924-.106-1.35.225-1.804.112-3.582-.343-5.34-.04-.155-.057-.31-.27-.298l.03.03c.147-.287.136-.494-.26-.504l.012.027zM163.378 122.43c-.205-.605.072-1.035.227-1.474.78-2.214 1.635-4.403 1.95-6.753.04-.318.013-.835.55-.737.586.107.25.562.193.862-.482 2.51-1.274 4.926-2.23 7.293-.13.334-.205.684-.69.81zM158.867 121.547c-.32-.404.014-.762.123-1.11.67-2.126 1.367-4.244 2.07-6.36.075-.224.018-.66.45-.538.254.07.26.373.208.616-.51 2.47-1.335 4.834-2.358 7.133-.08.176-.254.305-.493.257zM121.167 123.454c.737-2.33 1.143-4.554 2.244-6.554.135-.243.21-.573.565-.48.37.1.3.487.228.705-.635 1.873-1.29 3.74-1.983 5.59-.117.312-.443.55-1.053.74zM111.19 93.25c-.036.05-.11.192-.216.302-1.908 1.962-3.126 4.39-4.524 6.696-.13.215-.177.614-.565.38-.26-.157-.137-.398-.007-.622 1.395-2.405 2.768-4.824 4.575-6.958.152-.18.26-.417.554-.286.158.07.226.21.183.488zM108.942 92.057c-1.39 1.637-2.475 3.413-3.463 5.25-.433.804-.848 1.617-1.268 2.427-.115.222-.25.45-.532.292-.205-.115-.154-.35-.063-.532 1.274-2.565 2.618-5.09 4.435-7.326.198-.245.43-.332.89-.11zM121.946 84.47c-2.17 1.953-4.193 3.975-6.27 5.938-.14.132-.278.3-.497.097-.21-.192-.104-.35.036-.504 1.86-2.036 3.88-3.893 6.163-5.45.14-.097.374-.057.566-.08zM156.857 120.862c-.044-1.173.337-1.93.604-2.704.492-1.427 1.06-2.83 1.27-4.34.034-.258-.07-.63.38-.564.44.065.42.436.35.75-.29 1.32-.62 2.632-1.14 3.885-.384.92-.533 1.96-1.463 2.972zM163.857 113.24c.438 2.41-1.086 6.873-2.848 8.443 1.248-2.912 2.293-5.6 2.847-8.443zM109.55 103.662c-.39-.245-.256-.533-.097-.81.737-1.275 1.456-2.563 2.23-3.816.524-.847 1.125-1.646 1.703-2.458.136-.19.315-.4.585-.197.192.144.193.373.053.532-1.727 1.963-2.946 4.25-4.178 6.53-.048.09-.177.135-.294.22zM107.702 101.343c.066-.162.12-.312.188-.455 1.077-2.23 2.263-4.39 3.943-6.24.217-.24.396-.577.754-.297.225.177.105.45-.08.623-1.856 1.724-2.925 3.963-4.05 6.166-.118.228-.182.563-.557.478-.08-.02-.13-.18-.198-.275zM121.956 86.756c.057.297-.11.35-.244.424-1.9 1.072-3.32 2.713-4.93 4.13-.18.157-.388.537-.676.274-.255-.233-.038-.523.172-.716 1.49-1.372 2.817-2.933 4.56-4.018.377-.233.756-.42 1.118-.094zM111.535 104.485c-.285-.107-.352-.277-.18-.55 1.18-1.88 2.17-3.88 3.547-5.636.185-.236.45-.58.782-.304.373.31.01.533-.208.76-1.416 1.49-2.268 3.352-3.33 5.075-.157.255-.2.63-.61.655zM154.393 120.333c.74-2.25 1.48-4.5 2.225-6.746.06-.182.15-.41.397-.31.11.044.254.27.225.363-.74 2.31-1.154 4.746-2.48 6.826-.122-.044-.244-.09-.367-.133zM113.375 106.3c-.378-.14-.5-.303-.396-.517 1.017-2.12 2.153-4.173 3.643-6.007.124-.153.322-.27.517-.107.178.147.177.356.026.527-1.52 1.72-2.574 3.73-3.6 5.755-.07.14-.15.274-.19.35zM154.44 112.648c.233.33.413.47.4.584-.22 1.917-.923 3.674-1.827 5.36-.09.17-.267.232-.397.152-.257-.157-.17-.422-.074-.633.57-1.268 1.053-2.566 1.42-3.908.122-.447.272-.887.478-1.554zM119.042 101.58c-.084.14-.143.294-.25.403-1.158 1.195-1.863 2.668-2.57 4.142-.126.26-.218.726-.63.53-.313-.148-.097-.49.02-.74.693-1.53 1.518-2.98 2.547-4.308.166-.216.33-.493.674-.328.09.042.13.183.208.3zM117.102 93.177c-.282-.546.012-.783.272-1.018 1.21-1.092 2.42-2.184 3.643-3.26.25-.222.586-.625.902-.24.293.356-.224.517-.423.694-1.442 1.28-2.907 2.534-4.395 3.823zM142.846 118.154l1.46-4.62c.068-.215.234-.353.442-.317.212.036.348.245.302.45-.362 1.647-.8 3.263-1.785 4.646l-.42-.16zM120.565 103.622c-.038.057-.088.165-.167.247-1.205 1.247-2.04 2.738-2.83 4.264-.113.22-.17.63-.547.43-.236-.127-.12-.44-.025-.657.722-1.645 1.792-3.07 2.85-4.504.12-.16.288-.29.514-.208.166.06.232.197.205.427zM149.94 119.183l1.99-6.05c.635 1.134-.45 4.7-1.99 6.05zM123.69 107.303c-.103.17-.166.313-.267.425-1.08 1.195-1.84 2.6-2.637 3.982-.135.232-.273.61-.59.453-.294-.146-.162-.472 0-.73.825-1.316 1.634-2.643 2.466-3.954.143-.228.318-.5.64-.47.128.012.24.175.39.293zM145.365 118.794c-.186-.828.3-1.52.48-2.258.255-1.04.616-2.05.94-3.07.058-.185.148-.41.376-.385.107.014.295.243.272.32-.56 1.796-.805 3.7-1.79 5.353-.023.042-.147.025-.277.04zM131.758 103.707c.174.583-.023.888-.408 1.213-1.208 1.025-2.676 1.76-3.572 3.142-.117.18-.317.266-.513.13-.29-.2-.112-.423.034-.6.792-.96 1.775-1.716 2.736-2.493.553-.45 1.107-.896 1.722-1.393zM122.125 105.767c-1.34 1.28-2.133 2.88-3.037 4.406-.04.068-.254.118-.317.074-.177-.125-.2-.33-.11-.527.697-1.52 1.71-2.845 2.65-4.214.124-.182.337-.24.524-.138.114.062.172.228.29.4zM147.896 119.12c-.38-1.088.056-1.62.266-2.2.364-1.007.663-2.03.82-3.092.04-.275.18-.57.516-.516.122.02.316.338.28.46-.512 1.706-.978 3.433-1.882 5.347zM165.598 78.487c-.953-1.017-1.87-1.985-2.77-2.966-.156-.168-.338-.408-.153-.63.1-.123.362-.206.52-.17.854.193 2.472 2.695 2.403 3.767zM122.168 113.587c-.282-.12-.248-.377-.136-.58.726-1.318 1.408-2.665 2.305-3.883.158-.214.368-.33.612-.18.254.16.253.438.063.613-1.12 1.023-1.607 2.446-2.37 3.693-.1.165-.202.355-.475.337zM141.438 115.414c.75-.52.59-1.605 1.49-2.385-.03 1.975-.904 3.384-1.602 4.846-.07.15-.26.24-.394.117-.093-.085-.135-.276-.124-.414.028-.338.382-.617.18-1l-.024.038c.428.01.253-.302.27-.51l-.018.033c.308-.176.397-.426.25-.754l-.028.028zM126.327 110.773c-.82 1.453-1.61 2.86-2.416 4.262-.026.047-.228.047-.304 0-.155-.1-.15-.28-.07-.426.703-1.288 1.412-2.572 2.124-3.854.107-.193.297-.277.503-.193.09.035.136.17.164.21zM162.047 81.705c-.965-1.084-1.82-2.046-2.678-3.005-.15-.166-.217-.345-.064-.522.136-.16.306-.186.527-.1.85.323 2.23 2.417 2.214 3.627zM130.368 103.658c-1.338 1.086-2.498 1.922-3.33 3.1-.114.16-.292.305-.504.183-.194-.11-.265-.33-.11-.504.917-1.034 1.835-2.075 3.06-2.767.148-.086.385-.012.884-.012zM160.053 82.762c-.685-.756-1.37-1.51-2.053-2.27-.17-.19-.273-.418-.104-.647.175-.235.43-.215.632-.043.887.748 1.57 1.624 1.818 2.758l-.293.202zM158.4 84.455c-.79-1.025-1.4-1.796-1.983-2.588-.113-.155-.44-.313-.184-.58.23-.235.52-.22.752-.002.82.77 1.606 1.564 1.416 3.17zM157.3 85.33c.044.187-.063.28-.202.376-.158.11-.318.087-.425-.023-.654-.68-1.352-1.33-1.733-2.218-.048-.112-.006-.352.08-.41.098-.07.298-.034.44.006.257.075 1.82 2.03 1.84 2.27zM137.904 116.55c-.32-.086-.365-.38-.252-.565.508-.843.69-1.772.846-2.72.026-.157.134-.322.324-.267.134.04.285.146.35.266.237.43-.612 2.938-1.058 3.184-.07.037-.14.067-.21.1zM128.995 113.517c.015.273-.092.422-.252.56-.648.56-1.077 1.257-1.323 2.08-.06.2-.154.515-.48.37-.243-.11-.282-.354-.21-.61.29-1.028.98-1.805 1.67-2.567.23-.256.504-.136.595.167zM121.927 90.725c-.904 1.13-2.024 1.95-3.42 2.373.964-1.043 1.85-2.197 3.42-2.373zM155.313 87.804c-.95-.89-1.25-1.897-2.033-2.51-.16-.127-.06-.384.13-.507.23-.15.46-.09.66.077.81.682 1.154 1.576 1.243 2.94zM160.92 76.585c.895-.196 2.59 1.494 2.558 2.83-.882-.976-1.72-1.903-2.56-2.83zM153.668 88.45c-.053.076-.104.194-.192.263-.224.176-.367-.02-.48-.16-.423-.525-.828-1.064-1.24-1.597-.132-.17-.21-.36.004-.503.12-.08.293-.122.436-.107.284.028 1.504 1.776 1.472 2.104zM128.39 117.365c-.273-.092-.42-.27-.257-.54.372-.614.762-1.218 1.167-1.81.11-.162.326-.276.52-.134.108.08.24.317.2.38-.45.697-.926 1.376-1.405 2.053-.034.047-.148.037-.225.052zM152.357 90.12c-.95-.004-1.883-.815-1.963-1.655-.053-.548.227-.523.562-.33.766.442 1.1 1.195 1.4 1.986zM136.125 115.31c.022-.13.02-.3.082-.438.247-.55.11-1.307.833-1.592.044-.018.275.22.272.334-.024.792-.233 1.54-.72 2.18-.06.084-.31.116-.41.062-.217-.116-.127-.334-.057-.547zM128.268 103.273c-.62.71-1.4 1.21-1.815 2.03-.096.19-.302.293-.494.186-.1-.058-.18-.26-.17-.388.056-.626 1.7-1.87 2.478-1.83zM150.312 92.21c-.816-.46-1.165-1.215-1.634-1.854-.11-.152-.113-.395.063-.538.207-.168.485-.158.642.024.555.644 1.132 1.296.93 2.368zM121.726 128.066c.045-.108.12-.22.234-.123.044.037-.014.194-.024.297l-.21-.174zM98.23 124.55c-.11-.03-.234-.07-.146-.212.016-.024.185.045.283.07-.043.05-.09.096-.137.142zM156.16 44.047c.493.423.81-.06 1.147-.256.858-.502 1.687-1.058 2.53-1.587.386-.243.8-.336 1.493-.133-1.553 1.447-3.776 1.83-4.82 3.662l-.206.274c-.132.044-.187.142-.112.25.02.03.176-.035.27-.057l.227-.2c1.105-.7 2.187-1.44 3.33-2.073.404-.226 1.07-.828 1.38-.236.3.573-.578.7-.977.944-.81.498-1.668.912-2.493 1.384-.45.256-.938.527-.568 1.188l-.054-.204c-.036.02-.072.04-.108.058.056.047.11.095.167.142 1.247-.775 2.358-1.86 3.906-1.952l.18.345c-1.312.783-2.632 1.553-3.93 2.358-.27.167-.885.265-.66.67.264.476.685.035 1.01-.156.616-.365 1.213-.77 1.85-1.098.498-.257 1.226-1.028 1.526-.453.364.696-.716.844-1.202 1.118-1.188.672-2.342 1.358-3.2 2.476.55.213.792-.236 1.148-.455.882-.54 1.774-1.068 2.696-1.537.248-.126.62-.612.896-.115.284.51-.122.783-.558.98-.723.332-1.444.668-2.157 1.022-.665.33-1.182.808-1.462 1.637 1.522-.108 2.27-1.954 4.115-1.75-.863.922-1.96 1.123-2.606 1.916l-.37.218c.18.16.364.08.548.01.708-.313 1.314-.88 2.25-.878-.195.73-.86.805-1.53 1.21h1.748c-1.313.986-2.796 1.62-3.972 2.717l-.78.562c.548.14.815-.04 1.027-.348 1.887-1.194 3.735-2.49 6.085-2.57.85-.03 1.732-.16 2.836.615-2.506-.013-4.644.173-6.703 1.23.495.37.945-.003 1.36.233-.317.995-1.567.926-2.043 1.846.925.12 1.505-1.02 2.56-.49l-1.483 1.328-.65.486-.284.33c.21.147.36.054.494-.118.3-.07.532-.243.724-.478.538-.24 1.082-.446 1.844-.206-.704.704-1.542 1.054-2.303 1.503.032.072.058.145.083.217.028-.015.08-.027.082-.045.02-.15-.08-.173-.198-.17.577.466.98-.09 1.444-.255.296-.105.654-.335.847 0 .192.338-.148.574-.435.728-.3.162-.7.188-.773.606.136.188.284.174.438.11.265-.11.58-.238.724.097.132.312-.234.45-.414.63-.19.188-.432.325-.65.484.05.063.094.125.14.188l.07-.11c-.072-.022-.144-.046-.216-.07.546.47.91-.26 1.39-.21.18.02.44-.075.476.203.017.126-.075.35-.176.393-1.618.678-2.707 2.03-4.103 3.356l.133-1.037c-2.066-.88-4.03-1.724-5.834-2.985-.704.75-.768 2.007-1.73 2.693-.395-.454-.06-.778.1-1.105.702-1.44 1.597-2.753 2.61-3.992.177-.215.64-.492.31-.766-.37-.307-.615.173-.813.434-.344.456-.55 1.05-1.327 1.167.004-1.107.928-1.594 1.337-2.364-.023-.063-.042-.124-.06-.184l-.063.076c.055.04.11.077.165.116-.274-.415-.485-.086-.637.093-.333.392-.63.814-.923 1.238-.203.294-.4.733-.797.487-.34-.21.018-.583.127-.84.184-.433.463-.825.702-1.233.12-.14.243-.28.364-.422.057-.093.308-.135.132-.28-.1-.083-.275-.007-.295.185-.126.1-.252.197-.38.296l-1.613 2.177c-.317-.637-.243-1.13-.01-1.63l.15-.296.318-.38.545-.79c.078-.03.128-.088.152-.168.078-.11.208-.22.054-.35-.017-.017-.14.09-.216.14-.076.083-.152.167-.23.25-.27.166-.422.41-.485.718-.116.13-.23.262-.346.394-.056.098-.11.195-.167.292l-.786 1.02c-.543-.24-.134-.818-.438-1.123-.413.06-.526.954-.985.55-.403-.356-.135-.96.176-1.408.246-.354.483-.714.724-1.072.312-.266.573-.572.718-.963.168-.104.318-.29.17-.43-.216-.21-.26.11-.373.21l-.72.903c-.597.546-1.02 1.208-1.35 1.945-.105.235-.298.55-.627.384-.327-.165-.403-.51-.21-.823.46-.74.95-1.46 1.43-2.188.107-.078.294-.13.173-.31-.114-.173-.233-.072-.333.04-.762.61-1.22 1.455-1.774 2.227-.166.23-.192.853-.7.5-.353-.246-.166-.666.044-.966.468-.666.964-1.315 1.37-2.044-1.326.39-1.424 2.37-3.088 2.38.224-1.064 1.015-1.734 1.368-2.685-1.05.51-1.454 1.66-2.23 2.434-.576-.376-.426-.81-.203-1.255.636-.752 1.38-1.426 1.68-2.42-.867.55-1.495 1.31-1.957 2.214-.118.147-.25.285-.35.443-.16.252-.24.578-.676.37-.468-.226-.343-.518-.16-.843.197-.27.393-.543.59-.814.11-.114.217-.23.326-.342.21-.286.423-.572.634-.857.11-.113.217-.228.326-.34.21-.287.422-.573.634-.86.11-.113.217-.227.326-.34.148-.204.51-.414.233-.655-.158-.138-.364.174-.44.4-.104.116-.208.233-.31.35l-.65.85c-.104.118-.208.235-.31.353l-.64.857-.32.35-.63.86c-.33.16-.467.735-.936.542-.44-.18-.146-.6-.153-.917l.32-.37c.98-1.29 1.96-2.577 2.94-3.865l-.327-.24c-.986 1.254-1.984 2.5-2.823 3.87-.103.12-.206.24-.31.358-.157.18-.302.373-.476.535-.194.183-.452.21-.655.05-.28-.22-.018-.436.088-.616.958-1.62 2.17-3.052 3.366-4.5.183-.22.485-.388.465-.973-1.953 1.785-3.276 3.886-4.766 5.94-.44-.63.023-.98.025-1.383.095-.09.304-.156.148-.327-.15-.164-.247.005-.335.115-.447.292-.57 1.398-1.23.903-.547-.408.293-.96.56-1.408.65-1.086 1.396-2.115 2.066-3.19.188-.303.598-.582.32-1.043-.002 0 .027.03.027.03l.01-.047c-1.234 1.326-2.017 2.958-3.02 4.44-.18.264-.348.534-.537.79-.155.21-.42.332-.627.215-.257-.146-.112-.432-.017-.64.713-1.564 1.647-3 2.6-4.426.26-.39.638-.72.7-1.225l.33-.126-.013-.057.013.066c-.155-.172-.295-.175-.417.033-1.443 1.272-2.142 3.05-3.135 4.626-.402.637-.785 1.287-1.213 1.99-.646-.56-.23-1.024.024-1.472 3.033-5.38 6.723-10.273 10.93-14.793 4.088-4.392 8.738-8.053 13.972-10.978 1.067-.597 2.154-1.157 3.402-1.45-.17.958-.162.98-1 1.276-1.82.644-3.427 1.685-5.05 2.692-.255.157-.578.287-.616.738.588.213.94-.303 1.353-.482 1.422-.62 2.795-1.354 4.208-1.996.352-.16.903-.576 1.156-.03.302.653-.46.59-.788.748-1.787.863-3.595 1.688-5.503 2.576.74.522 1.286.617 2.022.1.872-.614 1.876-1.046 2.84-1.52.373-.182.96-.505 1.167-.053.26.563-.45.64-.812.79-1.698.718-3.306 1.588-4.768 2.712-.196.15-.52.28-.35.744 1.03-.15 1.826-.845 2.733-1.27.685-.323 1.35-.685 2.023-1.03.312-.162.655-.243.818.136.16.374-.258.438-.468.548-1.203.623-2.438 1.183-3.626 1.833-.897.492-1.723 1.105-2.388 2.19 1.125-.193 1.805-.825 2.583-1.235.81-.428 1.595-.905 2.393-1.356.422-.238.848-.507 1.354 0-1.774 1.49-4.142 2.092-5.755 3.853 2.08-.19 3.486-2.092 5.608-2.207-1.636 1.78-4.223 2.193-5.915 4.016.595.423 1.002.136 1.4-.074 1.13-.594 2.24-1.22 3.378-1.795.337-.168.856-.4 1.06.045.187.416-.37.525-.66.68-.735.398-1.472.804-2.242 1.123-1.105.458-2.008 1.105-2.48 2.245-.06.11-.334.158-.16.324.112.107.297.04.354-.156 1.408-.812 2.805-1.645 4.233-2.42.278-.15.758-.57.998-.016.188.432-.336.556-.632.72-1.043.574-2.1 1.125-3.143 1.703-.403.223-.846.422-1.033 1.022.895-.03 1.504-.576 2.19-.918.39-.195.758-.44 1.156-.615.397-.172.913-.74 1.222-.153.254.48-.454.673-.804.828-1.57.696-3.03 1.536-4.146 2.88l.165.153c.004-.02.016-.05.01-.054-.058-.036-.117-.07-.176-.103zm-11.22 7.923l.235-.286c.07-.107.282-.192.067-.34-.023-.015-.147.114-.224.176l-.245.236c-.108.076-.333.11-.18.305.136.173.254.032.347-.09zm3.593 1.94c.093-.133.337-.23.103-.44h.18l-.046-.156-.104.175c-.165-.022-.238.067-.263.216-.15.058-.31.123-.147.31.023.026.182-.067.277-.105zm-1.432-.26l.2-.33c.115-.084.238-.173.068-.307-.017-.013-.137.106-.21.164l-.234.248c-.104.083-.327.127-.172.317.138.172.255.03.35-.092zm-8.794-2.124c-.24.216-.5.422-.473.83.51-.008.516-.42.68-.682-.003-.1.034-.25-.014-.285-.12-.085-.166.035-.194.136zm7.572.83c-.286.39-.764.65-.927 1.324.692-.21.9-.667 1.14-1.09.233-.186.438-.387.44-1.008l-.652.775zM185.203 91.22c-.19-.45.083-.643.22-.854 5.72-8.726 9.11-18.39 11.474-28.466.055-.233.098-.47.18-.694.126-.35-.02-1.053.438-.966.622.117.354.793.253 1.223-2.32 9.91-5.53 19.473-11.067 28.115-.388.605-.562 1.438-1.497 1.642zM167.608 61.878c-.027-.96-1.32-.957-1.425-1.91h1.195c.173-.628-1.74-1.197-.008-1.713-.16-.515-1.514-.933-.016-1.437.283-.096-.02-.59-.29-.75-.488-.28-.402-.6-.147-.967.4-.58.685-.05.96.133 2.272 1.51 2.55 3.91 2.74 6.317.08 1.046.11 2.123-.463 3.374-.31-1.212.146-2.237-.24-3.25-.5.855.228 1.883-.496 2.636-.34-.335-.03-.79-.26-1.146-.56.19-.122.815-.503 1.11-.686-.657 0-1.943-1.072-2.42l.025.024z"/><path d="M184.712 88.505c-.215-.606.138-.987.372-1.38 4.146-6.98 6.62-14.625 8.916-22.34.34-1.14.565-2.313.832-3.474.058-.253-.058-.635.36-.614.46.022.45.44.382.728-.248 1.046-.553 2.078-.828 3.117-2.145 8.072-4.952 15.878-9.212 23.106-.16.27-.333.537-.517.793-.033.044-.145.033-.305.065zM182.04 84.647c1.752-3.76 3.364-7.48 4.794-11.277 1.413-3.756 2.607-7.582 3.638-11.568.646.47.395.963.293 1.427-1.055 4.845-2.89 9.43-4.72 14.014-.883 2.215-1.922 4.37-2.903 6.545-.188.415-.312.938-1.1.857z"/><path d="M184.19 85.582c-.24-.307-.2-.526-.075-.752 3.97-7.232 6.342-15.082 8.69-23.235.893 2.093-6.304 21.554-8.616 23.987zM181.152 81.732c2.37-6.227 5.463-12.2 6.735-18.87.757.238.576.732.463 1.253-1.004 4.583-2.76 8.896-4.73 13.13-.715 1.534-1.295 3.14-2.468 4.487zM185.606 63.594c.59 2.462-4.993 16.225-6.812 16.792 2.792-5.476 5.13-10.997 6.812-16.792zM177.725 78.383c2.473-4.236 3.68-8.985 5.557-13.45-.147 3.717-3.88 12.794-5.557 13.45zM181.49 65.506c-1.284 4.008-2.862 7.892-5.022 11.53l-.373-.158 4.93-11.568.464.196zM176.406 65.773c.46.654.315 1.06.204 1.48-.572 2.162-1.533 4.165-2.49 6.168-.146.308-.324.778-.725.607-.4-.17-.056-.574.044-.83.95-2.42 1.927-4.835 2.966-7.424zM174.425 75.78c-.23-.205-.195-.382-.09-.573 1.615-2.882 2.986-5.875 4.097-8.987.094-.265.193-.6.555-.447.246.105.185.42.11.642-1.093 3.21-2.72 6.17-4.325 9.14-.06.11-.24.158-.347.226zM174.405 66.084c.557 1.08-2.04 7.224-3.304 7.8 1.126-2.653 2.196-5.18 3.305-7.8zM172.72 66.01c.46 1.103-1.265 5.305-2.544 6.18l2.545-6.18z"/></g><g><path d="M75.537 93.5L204.71 67.49l8.636 42.88-129.174 26.01z"/><g fill="#FFF"><path d="M105.34 107.305c-.17-.09-.32-.306-.45-.642-.13-.337-.257-.566-.38-.692-.093-.205-.236-.414-.428-.627-.192-.21-.39-.384-.59-.52-.102-.003-.358-.032-.77-.09-.41-.053-.87-.072-1.38-.06-.51.016-.983.062-1.418.135-.435.076-.742.17-.92.28-.173.134-.435.386-.786.758-.35.37-.673.847-.968 1.432-.296.585-.515 1.266-.66 2.045-.142.78-.103 1.66.118 2.64.474 1.982 1.354 3.505 2.645 4.572 1.29 1.067 2.48 1.578 3.57 1.533.524-.005 1.012-.16 1.465-.462.452-.304.83-.63 1.135-.98.305-.348.542-.694.71-1.042.168-.347.285-.6.352-.765 0-.126.01-.334.025-.626.018-.29.026-.592.026-.904 0-.313-.01-.604-.026-.877-.017-.27.005-.44.068-.5 0-.25.1-.44.298-.567.2-.127.408-.213.624-.256.168-.034.36.114.578.444.216.333.348.683.397 1.047-.034.21-.034.583 0 1.126.034.545-.01 1.16-.135 1.847-.125.688-.367 1.355-.725 2.002-.357.647-.882 1.18-1.575 1.592-1.495.776-2.973.98-4.436.61-1.46-.37-2.8-1.27-4.012-2.703-1.232-1.402-2-2.986-2.305-4.752-.304-1.764-.327-3.497-.068-5.2.147-.88.442-1.62.884-2.222.44-.602.89-1.08 1.344-1.433.454-.354.866-.606 1.237-.755.37-.148.627-.24.77-.268.193-.04.462-.13.808-.274.347-.146.594-.282.743-.412.153-.105.245-.118.274-.037.03.083.158.138.39.167.085.058.34.207.764.446.423.24.906.526 1.447.854.542.33 1.042.666 1.5 1.012.456.346.783.636.98.872.29.44.4.927.33 1.453s-.142.848-.22.962c-.034.082-.183.145-.45.185-.265.045-.526-.073-.78-.347zm-7.58 2.234c.042-.783.19-1.445.445-1.984s.524-.967.812-1.287c.285-.32.538-.528.757-.623.218-.093.356-.12.414-.082-.46.317-.89.74-1.283 1.27-.298.386-.55.898-.76 1.54-.208.643-.252 1.39-.13 2.24.24 1.702.595 2.943 1.066 3.725.47.78.694 1.125.675 1.028-.004-.023-.127-.2-.368-.526-.24-.326-.492-.733-.75-1.22-.262-.484-.5-1.08-.717-1.787-.216-.71-.27-1.473-.16-2.296zm9.26-1.71c.096-.018.183-.085.26-.2.086-.07.23-.297.426-.687.077-.24.004-.658-.214-1.252-.22-.592-.73-1.396-1.535-2.41-.418-.465-.927-.877-1.523-1.232-.597-.354-1.165-.63-1.703-.82-.693-.21-1.377-.387-2.055-.526.216-.043.43-.035.64.022.16.043.356.085.59.126.232.04.455.09.666.146.478.13 1.1.424 1.866.883.768.458 1.49 1.068 2.17 1.834.625.75 1.012 1.49 1.16 2.224.146.733.195 1.23.147 1.49-.01.2-.158.33-.447.388-.167.034-.316.04-.446.015zm2.036 3.793c.112.43.2.874.27 1.335.01.424.022.927.04 1.51.017.586-.094 1.215-.333 1.888-.198.764-.505 1.408-.926 1.93-.42.522-.882.96-1.388 1.312-.563.438-1.162.82-1.795 1.147.364-.174.757-.4 1.174-.686.316-.29.68-.632 1.088-1.026.408-.396.792-.878 1.153-1.45.414-.56.673-1.198.778-1.92s.148-1.38.13-1.977c.002-.727-.06-1.415-.192-2.064zM115.72 98.656c.085-.067.423-.16 1.012-.28s1.1-.22 1.533-.307c.192-.04.558-.12 1.097-.24.538-.12 1.065-.23 1.583-.335.517-.104 1.01-.208 1.476-.315.466-.107.73-.203.787-.29.177-.11.246-.143.206-.098-.042.046.044.1.256.156.245-.024.52.014.83.115.307.102.678.295 1.11.583.47.23.974.643 1.505 1.235.532.595.91 1.395 1.138 2.398.155.52.133 1.068-.064 1.646s-.435 1.138-.713 1.682c-.28.544-.567.976-.864 1.3-.3.32-.452.52-.46.597-.084.093-.102.15-.06.182.044.028.08.115.11.26.038.193.43.9 1.176 2.127.192.336.453.665.78.987.327.32.66.642 1 .96.34.32.64.61.906.87.263.26.432.445.504.555.168.342.24.633.213.876-.025.245-.246.52-.66.827-.19.164-.425.154-.7-.028-.274-.182-.556-.433-.844-.75-.29-.317-.56-.67-.813-1.057-.253-.385-.47-.725-.653-1.013-.18-.265-.426-.627-.744-1.088-.317-.462-.645-.934-.98-1.417-.333-.483-.65-.913-.95-1.29-.302-.377-.546-.6-.734-.66-.394-.097-.728-.04-1 .163-.27.205-.582.366-.932.486-.27.155-.724.297-1.36.424-.637.13-1.02.243-1.15.344-.12.15-.133.402-.036.757.095.355.192.65.29.88.023.12.05.315.08.584.028.27.063.568.104.898.04.33.072.642.094.938.022.296.048.516.077.66.04.192.19.474.452.847.263.373.41.705.444.998.014.323-.094.626-.324.91-.23.284-.497.42-.8.403-.31-.037-.464-.07-.47-.093-.004-.024-.123-.175-.353-.453-.136-.174-.268-.52-.397-1.047-.13-.523-.254-1.075-.37-1.652-.115-.576-.212-1.12-.29-1.628-.077-.51-.128-.825-.152-.947-.03-.142-.136-.678-.322-1.604-.186-.925-.4-1.927-.64-3-.242-1.078-.458-2.093-.65-3.043-.19-.948-.3-1.507-.335-1.676-.073-.36-.124-.8-.153-1.32-.033-.52.036-.858.205-1.018zm7.51.594c-.236.072-.402.124-.496.155s-.167.104-.22.212c-.153.106-.493.193-1.017.26-.523.07-.882.12-1.074.16-.216.043-.435.106-.657.188s-.428.144-.62.183c-.24.047-.398.1-.476.15-.077.054-.21.05-.397-.014-.414-.067-.666-.018-.756.15-.024.13-.01.33.042.594.005.023.04.14.108.352.068.212.14.454.22.726.08.27.163.53.25.775.086.247.143.428.166.55.07.235.133.385.184.45.052.064.042.18-.025.342-.047.136-.088.368-.12.7-.035.332.006.536.122.612.125.126.363.064.713-.18.35-.246.55-.375.6-.384.07-.015.226-.02.464-.018.237.002.518-.004.84-.02s.664-.02 1.028-.018c.363.002.666-.022.905-.07.558-.086 1.075-.22 1.55-.404.476-.182.84-.45 1.097-.8.278-.358.49-.788.64-1.294.15-.505.132-.964-.05-1.378-.137-.422-.326-.803-.57-1.142-.242-.34-.524-.564-.847-.675-.59-.202-1.126-.257-1.606-.16zm-4.74 2.376c-.008-.048.064-.087.22-.12.157-.03.336-.04.538-.03l.823-.017-.503.1c-.337.068-.573.14-.708.217-.145.154-.104.358.123.612.082.16.185.3.31.426l-.087-.06c-.172-.113-.268-.22-.287-.314-.025-.122-.122-.26-.29-.413-.17-.155-.215-.288-.14-.404zm.738 1.99l.282.28c.09.083.253.14.483.167.23.03.45.06.656.093.283.043.583.046.9.007l-1.932.276-.534-.23c-.01-.05-.012-.124-.008-.226.067-.163.087-.317.06-.46l.092.092zm.682 5.827c-.023-.12-.067-.305-.13-.555-.062-.25.01-.357.217-.325.26.05.517.116.772.203.254.086.513.103.778.05.192-.04.4.03.624.21.223.183.218.31-.018.38-.188.063-.478.046-.873-.05l-.36-.115c-.04.186-.036.384.008.6.038.192.07.417.1.674.025.26.094.54.205.842.067.336.11.74.13 1.21l.06 1.416c.02.47.01.897-.025 1.28-.036.382-.087.653-.155.817-.105.22-.39.228-.857.02-.203-.133-.418-.276-.65-.43.082.033.226.066.433.1.254.023.454.02.598-.008.145-.03.213-.057.21-.08-.005-.024.066-.162.215-.418.13-.226.184-.425.162-.595-.02-.173-.08-.436-.176-.792-.035-.166-.122-.475-.262-.923-.14-.446-.28-.925-.42-1.435-.138-.51-.268-.964-.386-1.367-.12-.4-.187-.638-.202-.71zm3.836-13.6c1.198.36 2.133.724 2.807 1.09.673.363 1.186.768 1.537 1.21.352.44.596.91.733 1.41.137.496.303 1.038.495 1.624.14.573.165 1.162.073 1.768-.09.606-.242 1.155-.456 1.65-.213.49-.422.915-.626 1.27-.205.353-.31.567-.32.645 0 .124.104.398.314.818.21.42.476.873.797 1.358.307.54.69 1.137 1.148 1.795-.56-.662-1.054-1.262-1.487-1.802-.418-.465-.768-.896-1.046-1.29-.28-.394-.428-.638-.448-.735-.02-.096.102-.333.364-.71.262-.378.585-.792.97-1.246.397-.506.555-1.342.47-2.513s-.345-2.276-.778-3.314c-.23-.53-.59-.976-1.075-1.34-.487-.366-.995-.684-1.523-.953-.603-.252-1.252-.497-1.948-.733zm7.002 18.628c.06-.086.117-.136.177-.148.06-.013.186-.1.378-.262.1-.12.165-.27.19-.453.026-.18.044-.37.054-.57l-.016-.825c.05.117.09.26.124.427.064.31.042.64-.063.987-.14.427-.32.71-.543.84-.223.132-.322.133-.3.004zM140.434 112.45c-.225-.003-.35-.19-.374-.56-.025-.37.014-.8.118-1.282.102-.482.23-.94.38-1.37.15-.432.25-.775.3-1.035.148-.38.247-.787.297-1.224.05-.436.068-.75.054-.95.023-.254.015-.54-.024-.857-.038-.316.002-.926.122-1.826.128-.976.326-1.927.59-2.856.262-.927.375-1.486.337-1.68-.034-.167-.054-.358-.06-.57-.004-.21.02-.435.073-.67.042-.283.116-.542.22-.776.102-.232.14-.422.11-.566-.033-.168-.12-.352-.26-.548-.14-.197-.226-.442-.26-.735.02-.154.063-.344.13-.57.067-.225.155-.444.263-.653s.235-.39.38-.544c.143-.153.3-.185.467-.094.173.115.33.308.473.58.143.272.28.557.416.854.135.298.243.59.325.873.084.284.172.48.27.585.075.134.266.43.57.88.302.452.638.946 1.01 1.484.37.538.743 1.087 1.12 1.65.375.562.663 1.035.866 1.42.216.332.52.814.91 1.45.39.633.798 1.266 1.225 1.893.427.627.812 1.205 1.155 1.736.344.53.567.86.668.99.183.29.46.54.827.753.368.215.522.49.465.826.028.395-.02.678-.147.854-.127.175-.44.263-.94.264-.467.043-.812-.112-1.033-.468-.22-.355-.392-.646-.513-.873-.024-.12-.113-.29-.27-.51-.157-.216-.31-.418-.46-.6-.15-.183-.31-.364-.483-.54-.174-.178-.275-.277-.304-.296-.14-.07-.328.016-.566.264-.238.25-.486.472-.747.676-.254.227-.563.338-.926.334-.364 0-.942.078-1.735.236-.77.155-1.31.333-1.62.532-.31.2-.597.326-.86.38-.29.058-.51-.01-.662-.205-.15-.195-.33-.246-.536-.156-.183.09-.227.217-.13.385s.133.38.108.635c.014.197 0 .53-.042 1.002-.044.473-.13.87-.266 1.198-.125.375-.29.52-.495.436-.202-.084-.382-.135-.536-.155zm7.474-9.303c-.106-.152-.373-.544-.798-1.17s-.888-1.28-1.387-1.955c-.498-.675-.95-1.272-1.353-1.79-.404-.52-.66-.794-.765-.824-.23-.03-.356.034-.375.188-.02.154-.09.37-.208.643-.105.22-.225.432-.36.634-.135.202-.163.308-.086.317.135.05.276.102.425.16s.235.134.254.23c.004.024-.025.248-.09.675-.065.426-.147.917-.248 1.475-.1.56-.192 1.102-.274 1.632-.08.528-.124.906-.128 1.132-.005.226-.054.48-.148.76-.093.282-.19.545-.29.792-.103.245-.17.465-.206.66-.036.193-.003.294.098.298.183.04.362.06.538.062.175 0 .486-.13.934-.394.428-.236.74-.43.934-.582.195-.15.35-.188.465-.11.288.066.793.026 1.515-.117.168-.035.397-.043.688-.026.29.017.568.023.83.02.262 0 .474-.03.64-.09.162-.057.24-.16.237-.31.027-.356-.03-.74-.175-1.147-.148-.41-.37-.797-.667-1.163zm-5.01 7.196c.137.423.074.923-.186 1.5-.105.223-.288.495-.546.822-.015-.07.007-.15.064-.238.004-.1.037-.188.097-.263s.13-.158.212-.248c.09-.17.18-.475.266-.918.015-.176.046-.395.093-.655zm.668-5.837c.02-.403.058-.836.114-1.298 0-.374.034-.738.102-1.09.066-.35.15-.586.252-.706-.023.255-.03.48-.015.68.033.29-.003.55-.108.77-.006.103-.026.243-.065.426-.04.183-.086.38-.144.59l-.137.628zm-.472 5.498c.703-.242 1.4-.443 2.092-.608.567-.163 1.115-.304 1.64-.423.527-.118.942-.17 1.245-.156l-4.976 1.187zm10.11-3.832c-.1-.004-.265-.195-.49-.574-.228-.382-.523-.854-.885-1.418l-1.254-1.943c-.472-.73-.975-1.49-1.51-2.286-1.13-1.772-2.412-3.79-3.842-6.055 1.626 2.375 3.054 4.502 4.282 6.38.51.8 1.01 1.58 1.502 2.343.49.765.908 1.413 1.252 1.943.345.532.61.955.798 1.268.19.312.238.426.146.344zm-9.01-1.153l.288-.06c.168-.033.308-.086.42-.158.157-.082.304-.037.44.137.133.172.242.337.324.496l-1.472-.417zM169.95 93.17c-.082.09-.17.146-.267.166-.265.053-.5.01-.7-.123-.28-.143-.426-.314-.44-.51-.015-.198-.09-.383-.223-.557-.17-.216-.453-.472-.85-.768-.395-.294-.78-.493-1.15-.594-.33-.158-.848-.142-1.547.047-.7.192-1.244.377-1.634.554-.213.07-.47.215-.776.438-.305.224-.593.47-.863.735-.27.267-.505.54-.7.816-.193.277-.264.548-.21.812.1.504.39.896.873 1.175.48.278.8.427.952.447.25 0 .35.004.303.014-.05.01.164.068.635.174.452.134 1.006.186 1.662.153.657-.03 1.166-.02 1.526.032.463.056.897.044 1.307-.038.2.01.43-.036.685-.138-.03-.02-.045-.04-.05-.065-.03-.145-.04-.255-.03-.333.087-.067.26-.045.52.064.26.112.592.302.996.57.356.278.826.685 1.408 1.218.58.533 1 1.237 1.25 2.113.27.847.252 1.726-.053 2.637-.305.912-.714 1.707-1.23 2.385-.282.333-.68.656-1.192.972-.51.314-1.08.566-1.703.756-.626.188-1.28.32-1.967.395-.685.073-1.318.033-1.9-.125-.602-.13-1.156-.344-1.666-.642s-.99-.657-1.437-1.082c-.448-.422-.806-.862-1.072-1.322-.268-.458-.437-.868-.51-1.23-.077-.383-.055-.675.07-.875.12-.2.244-.363.368-.49.203-.113.42-.156.65-.13-.005-.022-.024-.056-.058-.1-.116-.076-.162-.18-.138-.31-.034-.17.06-.325.28-.47.116-.046.217-.105.304-.173.01.05.013.123.008.223-.066.164-.084.33-.05.5.014.196.07.348.166.453.097.105.212.182.348.23.066.086.16.125.283.11.123-.01.257.094.4.315.135.173.15.338.045.496-.106.16-.14.335-.1.527.042.218.145.39.31.52.163.13.454.366.873.706.23.155.437.307.616.458.18.152.39.26.627.325.238.063.544.09.917.077.372-.013.848-.076 1.425-.192 1.177-.236 2.047-.697 2.608-1.387.56-.688.887-1.254.973-1.696.135-.45.05-1.004-.256-1.654-.307-.652-.686-1.107-1.137-1.367-.25-.123-.618-.207-1.102-.248s-1.02-.058-1.604-.053c-.586.004-1.158.02-1.716.044-.56.024-1.023.037-1.4.037l-1.22-.092c-.455-.033-.898-.188-1.33-.464-.43-.275-.836-.675-1.216-1.2-.38-.523-.67-1.277-.867-2.264-.182-.914-.056-1.746.38-2.496.44-.75 1.013-1.377 1.724-1.884.712-.505 1.483-.893 2.32-1.16.832-.266 1.513-.402 2.036-.408.596-.02 1.142.083 1.637.31.496.226.96.482 1.394.77.433.288.813.588 1.138.897.324.31.53.556.617.74.26.422.342.86.246 1.317-.094.46-.266.764-.51.912zm-2.833 1.394c-.318.04-.657.094-1.017.166-.29.06-.565.114-.83.167-.265.053-.45.065-.555.038-.146.03-.356.065-.636.107-.28.043-.57.065-.87.062-.3-.002-.59-.044-.87-.125-.277-.082-.492-.245-.642-.49-.26-.423-.234-.855.08-1.292.31-.438.656-.708 1.037-.81.168-.033.386-.07.652-.11.267-.04.5-.07.696-.084.28.02.54.016.786-.008l-1.443.29c-.36.072-.676.254-.94.546-.268.292-.258.583.025.876.097.105.296.198.6.273.302.08.634.117.998.12l.996.006c.3 0 .486-.004.558-.02.28.02.563.063.853.13l.52.158zm-3.74 5.103c.058.038.182.063.37.075.19.013.373.013.546.003.188.063.395.096.62.1l-.72.145c-.193.04-.364.062-.513.066-.15.005-.285.02-.404.043l-.27.054c-.133.027-.25.037-.35.032-.184-.037-.327-.06-.427-.063.076.01.152.082.23.215.187.188.35.368.482.54.12.228.294.53.52.91.228.38.41.605.55.677.164.068.355.123.577.166.22.044.417.062.59.05.102.006.236-.01.404-.042l.505-.102c.19-.04.403-.044.634-.016l-1.08.218c-.29.058-.57.09-.845.095-.275.005-.525-.058-.752-.187-.35-.255-.738-.717-1.16-1.38-.42-.667-.734-1.08-.94-1.238-.154-.143-.32-.26-.502-.35-.18-.088-.223-.142-.126-.16.12-.025.432 0 .934.074.504.074.877.1 1.124.075zm7.137-6.123c.08-.09.173-.166.273-.224.102-.057.254-.194.462-.412.12-.148.182-.367.186-.656.005-.29-.056-.557-.18-.808-.107-.278-.244-.59-.413-.93l-.2-.26-.147-.346c-.014-.072-.072-.173-.173-.304-.125-.124-.247-.26-.365-.414-.118-.15-.29-.354-.516-.61-.27-.22-.674-.426-1.212-.618-.54-.19-1.11-.353-1.71-.483-.692-.087-1.44-.186-2.237-.3.03.018.104.016.224-.01l.613-.122c.192-.04.68.02 1.46.177.782.155 1.375.305 1.78.448.35.13.78.412 1.295.846.512.435.754.706.725.81-.028.105.016.198.13.274.068.086.117.14.145.16l.282.092c.206.034.316.087.33.158l-.142.216c-.063.063-.118.1-.167.11.102.253.21.48.325.684.07.235.138.466.195.69.058.228.1.4.123.52.07.337-.007.677-.225 1.022-.22.344-.355.572-.407.682-.077.116-.2.133-.364.054-.167-.08-.267-.203-.3-.37l.21-.078zm-.057 1.775c.105-.097.298-.042.578.165.278.207.584.452.915.735.332.284.648.608.946.974.298.365.498.675.6.93.13.272.232.69.307 1.25.075.562.1 1.182.074 1.862s-.154 1.38-.385 2.103c-.23.72-.612 1.373-1.145 1.954-.558.588-1.196 1.054-1.914 1.397-.72.346-1.398.606-2.037.785-.64.18-1.206.287-1.698.323-.494.037-.752.056-.775.062-.112-.054.083-.11.584-.173.5-.063.977-.14 1.436-.233.456-.092 1.02-.335 1.69-.732.67-.397 1.294-.842 1.87-1.332.548-.51 1.04-1.085 1.475-1.723.435-.637.66-1.67.672-3.098-.01-.674-.146-1.316-.405-1.927-.26-.61-.544-1.122-.853-1.536-.347-.48-.764-.935-1.248-1.36l-.45-.175c-.293-.092-.37-.176-.237-.253zM193.105 83.87c.21.182.26.366.147.55-.112.187-.24.293-.386.322-.048.01-.123.037-.227.083-.105.045-.176.1-.214.155-.034.082-.06.15-.072.202l.187.188c.306.14.48.33.53.57.032.168.023.495-.03.98-.05.487-.046.886.017 1.198.033.17.1.5.2.992s.22 1.1.364 1.82c.147.723.304 1.51.476 2.362.17.854.322 1.644.455 2.366.135.725.248 1.353.342 1.883.095.53.158.882.192 1.05.038.192.102.41.188.656.087.244.22.505.4.78.18.278.3.523.355.737.056.214.085.396.092.544-.203.242-.463.48-.776.72-.315.237-.576.34-.783.306-.052-.014-.147-.15-.287-.41-.14-.26-.2-.56-.182-.902.02-.34.002-.68-.054-1.02l-.11-.653c-.045-.216-.126-.587-.244-1.114-.118-.526-.285-1.075-.5-1.645-.214-.57-.372-1.08-.477-1.536-.104-.454-.178-.727-.22-.818-.04-.067-.125-.125-.26-.173-.135-.046-.246-.1-.332-.157l-.433-.1c-.015.052-.075.126-.18.223-.063.188-.152.305-.268.353-.102.12-.222.2-.364.242-.143.04-.525.125-1.15.25-.312.063-.722.14-1.23.23-.507.087-.976.15-1.405.188-.43.036-.827.083-1.19.144-.362.06-.58.1-.652.113-.095.02-.256.026-.482.02-.226-.003-.436.077-.628.24-.202.24-.16.47.12.688.28.22.436.4.465.544.02.095.066.392.143.89.074.498.143 1.028.206 1.59l.35 2.293c.1.13.215.27.345.42.12.1.23.215.332.345.1.13.16.242.18.338.043.217-.084.486-.38.81-.3.322-.61.553-.932.692-.212.068-.38.045-.5-.068-.124-.112-.236-.234-.338-.363-.1-.13-.198-.272-.292-.43s-.146-.258-.155-.307c-.01-.048-.08-.407-.218-1.082-.134-.672-.255-1.43-.36-2.27-.108-.842-.23-1.6-.363-2.272l-.26-1.298c-.03-.144-.18-.57-.445-1.28-.27-.71-.495-1.496-.682-2.36-.186-.862-.36-1.695-.52-2.5-.163-.806-.202-1.38-.12-1.722.1-.37.27-.672.51-.908.24-.237.52-.41.833-.523.316-.113.587-.193.816-.24l.522-.104c.096-.02.166.08.21.296l.064.325.725 3.98c-.14-.696-.293-1.39-.456-2.083-.115-.45-.248-.894-.396-1.327-.15-.433-.236-.646-.26-.642-.025.005-.17.085-.44.238-.116.05-.21.08-.28.094.033.044.08.096.144.158.168.342.268.584.297.73.053.264.052.702 0 1.31-.01.33.024.654.102.976s.152.663.225 1.024c.077.385.192.8.343 1.244.15.445.385.573.697.385.086-.066.153-.173.197-.32.045-.147.068-.283.068-.408v-.563c.02.096.056.213.107.353.077.135.14.266.19.393.052.128.143.266.272.415.163.318.392.49.686.52.293.028.764-.022 1.413-.152.528-.106 1.115-.3 1.76-.58.645-.28 1.062-.375 1.255-.29.203.135.408.282.615.44.206.16.41.243.613.252.19.087.328.08.407-.026.078-.102.13-.282.154-.537.037-.058.05-.248.035-.57-.016-.322-.047-.667-.095-1.03-.05-.366-.11-.73-.182-1.09-.07-.36-.133-.662-.18-.9-.03-.146-.09-.383-.182-.715-.093-.332-.19-.668-.298-1.01-.105-.34-.174-.683-.205-1.027-.03-.344-.018-.56.038-.646.025-.13.16-.307.402-.53.242-.224.504-.44.79-.646.374-.25.742-.538 1.103-.86zm-6.003 7.657c-.477.12-.907.214-1.294.278-.387.065-.66.014-.82-.154l3.838-.695-1.724.572zm-1.64 5.656c.21.058.355.28.433.663l.362 1.803c.097.48.165.948.206 1.4.04.457.046.85.012 1.182.016.448.047.854.096 1.22l-.035-.182c-.015-.07-.022-.14-.023-.2 0-.063.013-.16.037-.29.017-.278-.02-.652-.113-1.122-.095-.47-.195-.842-.3-1.12-.02-.096-.087-.334-.2-.712-.113-.376-.214-.782-.3-1.214l-.21-1.045s-.043-.393.035-.384zm9.046-7.63c-.02-.097-.053-.296-.1-.6-.05-.302-.11-.634-.183-.995-.092-.457-.17-.916-.238-1.377.256 1.274.5 2.426.73 3.456.207.91.41 1.73.607 2.466.198.736.312 1.175.34 1.32.025.12.03.275.02.466-.013.19-.004.355.025.5.013.197.037.38.07.548.154.645.27 1.16.348 1.545l.384 1.912c-.01.076.02.283.087.62.043.215.072.424.087.62l-.31-1.55c-.098-.48-.18-.89-.248-1.228-.068-.335-.134-.598-.196-.785-.038-.07-.102-.255-.188-.563-.087-.308-.16-.61-.22-.913-.062-.3-.12-.588-.175-.865-.055-.277-.093-.464-.11-.56-.006-.024-.05-.246-.135-.667l-.257-1.28c-.088-.434-.164-.876-.23-1.325-.063-.45-.1-.698-.11-.746z"/></g></g><g><path d="M101.478 165.786c0-4.817 1.176-9.674 3.53-14.567 2.35-4.894 5.384-8.91 9.1-12.047s7.437-4.706 11.17-4.706c3.884 0 5.825 1.717 5.825 5.148 0 2.424-.748 5.05-2.24 7.885-1.494 2.833-3.043 4.25-4.648 4.25-.934 0-1.7-.578-2.295-1.734 1.418-1.564 2.79-3.43 4.115-5.592 1.324-2.162 1.988-3.914 1.988-5.257 0-1.454-.84-2.18-2.52-2.18-2.615 0-5.396 1.584-8.346 4.753-2.95 3.17-5.395 7.064-7.336 11.688s-2.91 8.91-2.91 12.86c0 2.984.673 5.5 2.017 7.55s3.377 3.076 6.104 3.076c2.913 0 5.833-1.175 8.765-3.522 2.93-2.35 5.18-5.163 6.748-8.444l1.455.95c-2.127 4.028-4.77 7.32-7.924 9.874-3.154 2.554-6.617 3.83-10.387 3.83-3.996 0-7.03-1.352-9.1-4.054-2.072-2.705-3.11-5.958-3.11-9.762z"/><path d="M128.527 171.262c0-2.465.71-4.874 2.127-7.227s2.95-3.53 4.592-3.53c.447 0 1.025.156 1.734.467.22-1.738.82-3.176 1.797-4.31.977-1.134 2.35-1.7 4.12-1.7 1.575 0 2.74.427 3.49 1.28.747.85 1.122 1.96 1.122 3.323 0 2.588-1.313 5.775-3.937 9.562.46.226.994.338 1.605.338 1.045 0 2.164-.347 3.36-1.04 1.194-.694 2.108-1.755 2.743-3.18l1.01.73c-.784 1.78-1.84 3.133-3.165 4.06-1.324.926-2.7 1.39-4.13 1.39-.87 0-1.817-.163-2.837-.49-3.07 3.724-6.158 5.586-9.266 5.586-1.568 0-2.688-.503-3.36-1.51s-1.005-2.255-1.005-3.748zm4.478-.163c0 1.71.635 2.565 1.904 2.565 1.315 0 3.07-1.31 5.265-3.928-2.057-1.872-3.14-4.626-3.25-8.26-.71.373-1.54 1.67-2.49 3.888-.953 2.22-1.43 4.132-1.43 5.734zm7-8.665c0 .862.152 1.847.455 2.953.3 1.105.697 1.96 1.188 2.56 2.19-3.113 3.287-5.907 3.287-8.382 0-1.65-.53-2.477-1.588-2.477-.793 0-1.547.524-2.266 1.575-.715 1.05-1.075 2.307-1.075 3.77z"/><path d="M149.974 170.585c0-2.127.615-4.75 1.848-7.867s2.314-4.676 3.248-4.676c.785 0 1.662.485 2.633 1.455-.785 1.158-1.596 2.82-2.436 4.984-.84 2.167-1.262 4.033-1.262 5.6 0 2.24.56 3.36 1.682 3.36.97 0 2.164-.923 3.584-2.77 1.42-1.85 2.622-3.725 3.612-5.628.988-1.904 1.895-3.77 2.717-5.6 2.052.373 3.08 1.008 3.08 1.903 0 .075-.276.774-.823 2.1-.55 1.325-1.088 2.848-1.625 4.563-.535 1.72-.8 3.1-.8 4.145 0 1.27.483 1.904 1.454 1.904h.057c1.23 0 2.752-.83 4.562-2.492 1.81-1.66 3.37-3.816 4.678-6.468l.84.672c-1.27 3.023-3.025 5.553-5.266 7.587-2.238 2.034-4.404 3.052-6.494 3.052-.71 0-1.316-.14-1.82-.42-.504-.28-.89-.608-1.148-.98-.262-.373-.467-.877-.615-1.513-.15-.634-.234-1.176-.252-1.623-.02-.45-.03-1.027-.03-1.736-.82 1.27-1.53 2.287-2.126 3.052-.598.766-1.363 1.493-2.297 2.185-.934.69-1.83 1.035-2.688 1.035-1.232 0-2.26-.58-3.08-1.736-.823-1.157-1.233-2.52-1.233-4.09z"/><path d="M174.688 167.394c1.717-3.06 3.23-6.44 4.537-10.137-.35-.372-.525-.876-.525-1.512 0-.97.28-1.885.836-2.744.56-.856 1.098-1.286 1.62-1.286.425 0 .774.224 1.052.672.275.447.414.82.414 1.12 0 .15-.14.513-.422 1.092-.28.58-.42.905-.42.98.04.335.38.737 1.027 1.203.646.47 1.35.926 2.11 1.373.76.448 1.452 1.11 2.08 1.988s.942 1.858.942 2.94c0 1.195-.495 2.838-1.483 4.928-.99 2.092-1.484 3.436-1.484 4.033 0 .86.475 1.288 1.426 1.288 1.642 0 3.472-.924 5.487-2.77s3.436-3.67 4.256-5.46l1.344 1.007c-1.156 2.614-2.94 4.947-5.348 7s-4.815 3.08-7.224 3.08c-1.365 0-2.47-.372-3.32-1.114-.848-.74-1.27-1.73-1.27-2.973 0-1.083.52-2.8 1.567-5.152 1.045-2.353 1.568-3.956 1.568-4.815 0-1.42-.925-2.613-2.772-3.584-1.387 3.584-3.107 7.074-5.16 10.472l-.84-1.624z"/><path d="M193.933 169.97c0-1.307.232-2.297.7-2.97.464-.67 1.06-1.155 1.788-1.454s1.128-.485 1.202-.56c2.367-2.465 4.162-5.022 5.383-7.673v-.56c0-2.726.857-4.09 2.576-4.09.82 0 1.27.375 1.345 1.122 0 .11-.047.383-.14.812-.095.43-.142.83-.142 1.204 0 1.01.54 3.034 1.625 6.077 1.082 3.043 1.623 5.46 1.623 7.252 0 .634-.073 1.398-.222 2.294 2.537-.634 4.74-2.743 6.607-6.327l.672.504c-1.53 4.444-4.125 6.945-7.783 7.505-.602 1.493-1.578 2.622-2.93 3.388s-2.91 1.148-4.674 1.148c-2.6 0-4.52-.755-5.764-2.267-1.242-1.51-1.863-3.312-1.863-5.403zm3.08.056c0 1.345.37 2.53 1.11 3.556.74 1.027 1.755 1.54 3.05 1.54 1.654 0 2.857-.728 3.61-2.184-1.456-.298-2.8-.868-4.03-1.708-1.23-.84-2.22-1.744-2.963-2.716-.52.112-.777.616-.777 1.512zm1.61-3.528c.634 1.084 1.532 2.063 2.69 2.94 1.158.878 2.467 1.483 3.926 1.82.114-.337.173-.915.173-1.736 0-.784-.078-1.65-.23-2.604-.152-.95-.287-1.697-.4-2.24-.115-.54-.346-1.455-.69-2.743s-.554-2.1-.63-2.437c-1.82 3.173-3.433 5.507-4.84 7z"/><path d="M213.757 170.417c0-3.384 1.576-6.87 4.73-10.462 3.152-3.59 6.408-5.386 9.768-5.386 2.766 0 4.15 1.23 4.15 3.695 0 2.688-1.47 5.077-4.404 7.168-2.933 2.09-6.206 3.323-9.82 3.696-.073.372-.11.802-.11 1.286 0 .374.027.73.084 1.064.055.336.205.793.45 1.372s.694 1.046 1.35 1.4c.657.354 1.474.532 2.45.532 2.275 0 4.6-.925 6.97-2.772 2.372-1.85 4.286-4.153 5.74-6.916l1.12.896c-1.492 3.344-3.63 6.037-6.41 8.08-2.783 2.043-5.668 3.064-8.658 3.064-2.34 0-4.16-.63-5.46-1.89s-1.95-2.866-1.95-4.83zm5.043-3.36c2.176-.26 4.475-1.343 6.895-3.247s3.63-3.845 3.63-5.824c0-.71-.32-1.064-.956-1.064-1.653 0-3.454 1.084-5.405 3.248-1.952 2.165-3.34 4.462-4.165 6.888z"/><path d="M232.685 169.97c0-1.307.232-2.297.7-2.97.464-.67 1.06-1.155 1.788-1.454s1.127-.485 1.2-.56c2.368-2.465 4.163-5.022 5.384-7.673v-.56c0-2.726.857-4.09 2.576-4.09.82 0 1.268.375 1.344 1.122 0 .11-.047.383-.14.812-.095.43-.142.83-.142 1.204 0 1.01.54 3.034 1.625 6.077 1.082 3.043 1.623 5.46 1.623 7.252 0 .634-.074 1.398-.223 2.294 2.537-.634 4.74-2.743 6.607-6.327l.672.504c-1.532 4.444-4.126 6.945-7.784 7.505-.602 1.493-1.578 2.622-2.93 3.388s-2.91 1.148-4.674 1.148c-2.6 0-4.52-.755-5.764-2.267-1.242-1.51-1.863-3.312-1.863-5.403zm3.08.056c0 1.345.37 2.53 1.11 3.556.74 1.027 1.755 1.54 3.05 1.54 1.654 0 2.857-.728 3.61-2.184-1.456-.298-2.8-.868-4.03-1.708-1.23-.84-2.22-1.744-2.963-2.716-.52.112-.777.616-.777 1.512zm1.61-3.528c.634 1.084 1.532 2.063 2.69 2.94 1.158.878 2.467 1.483 3.926 1.82.116-.337.175-.915.175-1.736 0-.784-.078-1.65-.23-2.604-.152-.95-.287-1.697-.4-2.24-.115-.54-.346-1.455-.69-2.743s-.554-2.1-.63-2.437c-1.82 3.173-3.433 5.507-4.84 7z"/><g><path d="M31.116 77.15c.224-.672 1.026-2.483 2.408-5.433l6.72-14.56 8.848-19.264c.337-.747.507-1.363.507-1.848 0-.82-.546-1.232-1.635-1.232-2.142 0-3.804.934-4.987 2.8-1.183 1.867-1.774 3.94-1.774 6.216 0 .783.075 1.68.226 2.687-1.198 0-2.142-.532-2.832-1.596s-1.034-2.23-1.034-3.5c0-2.35 1.234-4.516 3.703-6.495 2.47-1.98 5.058-2.968 7.77-2.968 2.185 0 3.816 1 4.89 2.996 1.075 1.998 1.613 5.628 1.613 10.892 0 2.688-.188 6.347-.56 10.976-.374 4.63-.56 7.6-.56 8.905 1.618-4.816 4.13-10.35 7.537-16.604 3.405-6.252 6.157-10.928 8.255-14.027.597-.933 1.1-1.577 1.512-1.932.41-.353.933-.53 1.568-.53.522 0 1.344.205 2.464.615-1.232 2.65-2.763 8.484-4.592 17.5-1.83 9.016-2.744 16.007-2.744 20.972 0 .486.01.924.028 1.316.02.393.046.71.084.952.037.242.112.532.224.868l.168.672c.037.11.13.373.28.784l.336.84c-2.352 0-3.902-.524-4.648-1.568-.748-1.047-1.12-2.95-1.12-5.713 0-3.733.4-7.69 1.204-11.873.802-4.18 1.988-9.296 3.556-15.344-2.352 3.36-4.943 8.12-7.77 14.28-2.83 6.16-4.924 11.22-6.284 15.176l-.38.11c-.256.113-.51.168-.765.168-1.2 0-1.99-.708-2.373-2.127-.382-1.418-.572-3.677-.572-6.775 0-1.903.074-5.152.224-9.744.15-4.59.224-7.97.224-10.135 0-.373-.01-.933-.028-1.68-.02-.746-.028-1.288-.028-1.624L47.3 48.48l-3.08 7.168-2.464 5.937c-.896 2.09-1.624 3.77-2.184 5.04l-1.904 3.863c-.672 1.308-1.25 2.314-1.736 3.024s-1.008 1.37-1.568 1.988c-.56.615-1.102 1.044-1.624 1.287-.524.243-1.064.365-1.624.365zM75.14 68.133c0-2.127.616-4.75 1.848-7.867s2.314-4.676 3.248-4.676c.784 0 1.66.486 2.632 1.456-.784 1.158-1.596 2.82-2.436 4.984-.84 2.166-1.26 4.032-1.26 5.6 0 2.24.56 3.36 1.68 3.36.97 0 2.165-.924 3.584-2.772 1.418-1.848 2.622-3.724 3.612-5.627.99-1.903 1.895-3.77 2.716-5.6 2.053.374 3.08 1.008 3.08 1.904 0 .075-.274.775-.822 2.1-.547 1.325-1.088 2.848-1.624 4.563-.535 1.72-.802 3.1-.802 4.145 0 1.27.485 1.904 1.456 1.904h.056c1.232 0 2.752-.83 4.564-2.492 1.81-1.66 3.37-3.816 4.676-6.468l.84.672c-1.27 3.024-3.024 5.554-5.264 7.588s-4.406 3.052-6.496 3.052c-.71 0-1.316-.14-1.82-.42-.504-.28-.887-.607-1.148-.98-.262-.372-.467-.876-.616-1.512-.15-.634-.233-1.176-.252-1.623-.02-.45-.028-1.027-.028-1.736-.822 1.27-1.53 2.287-2.128 3.052-.598.765-1.363 1.492-2.296 2.184-.934.69-1.83 1.035-2.688 1.035-1.232 0-2.26-.58-3.08-1.737-.822-1.158-1.232-2.52-1.232-4.09z"/><path d="M98.77 67.518c0-1.307.235-2.297.7-2.97s1.062-1.155 1.79-1.454 1.128-.485 1.202-.56c2.367-2.465 4.16-5.022 5.38-7.673v-.56c0-2.724.86-4.087 2.577-4.087.82 0 1.268.374 1.343 1.12 0 .112-.047.383-.14.812-.094.43-.14.83-.14 1.204 0 1.007.54 3.033 1.624 6.075 1.083 3.043 1.624 5.46 1.624 7.252 0 .635-.074 1.4-.223 2.295 2.538-.634 4.74-2.743 6.608-6.327l.672.504c-1.53 4.442-4.125 6.943-7.784 7.503-.6 1.493-1.578 2.622-2.928 3.388-1.352.767-2.91 1.15-4.674 1.15-2.598 0-4.52-.757-5.763-2.27-1.243-1.51-1.866-3.31-1.866-5.402zm3.082.056c0 1.345.37 2.53 1.11 3.556.74 1.027 1.756 1.54 3.05 1.54 1.655 0 2.857-.728 3.608-2.184-1.454-.298-2.797-.868-4.027-1.708s-2.22-1.744-2.965-2.716c-.517.112-.776.616-.776 1.512zm1.61-3.53c.634 1.085 1.532 2.064 2.69 2.94 1.16.88 2.468 1.484 3.927 1.82.114-.336.17-.914.17-1.735 0-.785-.076-1.652-.228-2.605-.153-.95-.287-1.697-.402-2.24-.115-.54-.344-1.455-.688-2.743-.345-1.288-.555-2.1-.63-2.436-1.818 3.173-3.432 5.507-4.84 7z"/><path d="M119.1 68.973c0-1.492.392-3.462 1.176-5.907.784-2.444 1.85-4.694 3.194-6.748 1.345-2.053 2.67-3.08 3.978-3.08.483 0 .883.14 1.2.422.316.28.476.683.476 1.208 0 .486-.475 1.507-1.42 3.062-.945 1.554-1.896 3.314-2.855 5.28-.96 1.967-1.44 3.66-1.44 5.083 0 1.162.203 1.95.61 2.36.404.412 1.03.618 1.88.618 2.94 0 5.862-2.862 8.767-8.59l.84.9c-1.303 3.273-2.958 5.82-4.965 7.644-2.008 1.822-4.164 2.734-6.467 2.734-1.584 0-2.81-.467-3.675-1.4-.867-.933-1.3-2.128-1.3-3.585zm8.735-22.455c0-.858.477-1.615 1.428-2.268.953-.653 1.97-.98 3.053-.98 1.604 0 2.408.69 2.408 2.072 0 .784-.43 1.54-1.288 2.268-.86.728-1.792 1.092-2.8 1.092-.784 0-1.447-.186-1.988-.56-.542-.373-.813-.914-.813-1.624z"/><path d="M132.874 68.022c0-3.658 1.307-7.02 3.92-10.08 2.613-3.06 5.45-4.592 8.513-4.592 1.437 0 2.505.374 3.205 1.12.7.748 1.05 1.68 1.05 2.8 0 1.12-.254 2.156-.764 3.107-.508.952-1.13 1.428-1.867 1.428-.71 0-1.287-.354-1.735-1.063 1.194-.82 1.792-2.22 1.792-4.2 0-.635-.354-.952-1.063-.952-1.83 0-3.744 1.494-5.74 4.48-1.998 2.987-2.996 5.75-2.996 8.288 0 2.8 1.307 4.2 3.92 4.2h.057c2.2 0 4.45-.925 6.748-2.772 2.295-1.848 4.04-4.246 5.235-7.195l1.12 1.01c-1.344 3.396-3.416 6.215-6.217 8.454-2.798 2.24-5.636 3.36-8.51 3.36-2.017 0-3.632-.626-4.845-1.876-1.214-1.25-1.82-3.088-1.82-5.516z"/></g></g></svg>