<svg xmlns="http://www.w3.org/2000/svg" width="441.121" height="197.4" viewBox="0 0 441.121 197.4"><path fill="#FAD488" d="M242.254 115.426l62.14 3.28L241.88 92.25l54.683-33.242-70.13 15.66 35.063-55.038-54.705 37.433-41.92-49.52 12.777 56.766-40.123-15.494 22.28 31.916-44.45 9.63 42.83 17.232-46.965 19.478 47.84 1.728-21.455 46.972 50.742-34.25 2.05 33.045 14.47-31.972 44.145 49.04-20.432-55.573 41.613 13.775"/><path fill="#F9C662" d="M263.78 103.813l40.68-20.327-45.764-6.098 40.68-30.492-46.78 10.163 9.15-50.82-40.678 45.738-10.17-31.51-6.102 34.56-54.916-36.592 33.56 48.787-43.73-3.05 35.594 26.428-61.018 12.198 67.12 10.164L136.66 158.7l64.07-32.525-20.34 62 43.73-49.803L277 175.978l-26.44-51.836 42.71 5.082"/><path fill="#F5AC1E" d="M255.02 24.906c-15.757-13.254-42.22-.463-57.48 26.862-14.384 25.757-13.39 54.095.74 65.36 14.044 11.2 37.254 2.59 53.293-21.18 16.992-25.186 19.096-57.878 3.447-71.042z"/><path fill="#F5AC1E" d="M224.71 66.816c-17.348-9.868-43.41 3.818-58.21 30.568-14.803 26.75-12.74 56.435 4.607 66.303s43.408-3.818 58.21-30.568c14.8-26.75 12.74-56.435-4.608-66.304z"/><g fill-rule="evenodd" clip-rule="evenodd" fill="#885C14"><path d="M266.054 51.066c-.173 10.484-2.723 20.392-7.077 29.912-5.144 11.245-11.79 21.452-20.375 30.373-.775.806-1.173 1.784-1.433 2.848-2.28 9.312-6.265 17.856-11.55 25.835-3.458 5.222-7.285 10.158-12.046 14.22-7.292 6.22-15.435 11.037-25.066 12.48-9.41 1.41-17.81-.924-24.21-8.36-4.81-5.588-7.465-12.172-8.066-19.55-.368-4.508.162-9.008.188-13.494.033-5.636 2.136-10.608 3.598-15.794 1.122-3.98 3-7.688 4.99-11.32 1.354-2.474 2.38-5.146 4.207-7.336 2.775-3.325 5.21-6.93 8.258-10.033l2.477-2.507c2.43-2.26 4.817-4.558 7.598-6.396.708-.47 1.06-1.177 1.29-1.956 1.627-5.446 4.19-10.495 6.603-15.607 1.502-2.603 1.42-2.62 1.502-2.603 3.574-6.42 7.854-12.312 13.023-17.542 5.35-5.412 11.183-10.31 18.422-12.818 11.72-4.062 22.376-2.998 31.354 7.757 3.492 4.182 5.05 9.357 5.902 14.71.38 2.377.413 4.772.412 7.182zm-33.14 19.274c-.14.156-.443.384-.302.504.274.232.447-.062.564-.31l.206-.374c1.72-2.715 2.766-5.687 2.912-8.883.153-3.347-.572-6.384-4.003-8.007-.19-.09-.45-.23-.26-.556.542-.1 1.048.382 1.638.14.17-.405-.464-.776-.023-1.24l1.98 1.416c-.145-.93-.763-1.154-1.18-1.55-.237-.225-.525-.47-.234-.795.278-.31.58-.12.824.124.375.373.72.803 1.452.736-.315-.916-1.747-1.06-1.36-2.277.61.046.88.68 1.434.79.072.194.292.36.402.248.198-.202-.097-.305-.218-.43-.237-.266-.463-.543-.717-.793-.247-.244-.685-.458-.377-.855.343-.444.698-.062 1.032.135.5.294.835.904 1.56.9-.328-1.116-1.636-1.4-1.85-2.508 1.126-.58 1.59.984 2.582.84-.254-1.095-1.724-1.385-1.63-2.722.852.254 1.326.903 1.996 1.24.112.058.186.31.338.137.1-.113.034-.293-.143-.37-.317-.857-1.347-1.375-1.215-2.47 1.164.18 1.8 1.26 2.865 1.55l-.01.154.1-.013-.12-.123c-.217-1.353-1.727-1.812-2.15-3.104 1.387-.285 1.983 1.12 3.26 1.51-.53-.966-1.18-1.542-1.782-2.152-.272-.275-.496-.603-.248-.942.293-.4.642-.07.947.078.722.35 1.287 1.033 2.27 1.102-.386-.898-1.15-1.316-1.655-1.952-.245-.31-.817-.603-.467-1.05.448-.572.91-.11 1.325.2.508.38 1.028.74 1.543 1.11.09.123.21.196.33.068.032-.036-.047-.175-.075-.267-.43-.83-1.037-1.507-1.77-2.082-.308-.243-.516-.557-.232-.917.31-.392.567.007.802.152.82.508 1.62 1.045 2.43 1.57-.462-1.15-1.374-1.84-2.17-2.632-.25-.25-.593-.54-.285-.907.248-.297.603-.094.867.08.498.328.966.702 1.467 1.025.26.166.425.636.92.31-.57-1.037-1.233-1.958-2.236-2.603-.172-.11-.55-.14-.38-.47.13-.252.443-.422.716-.29.39.188.747.453 1.088.724.847.672 1.676 1.368 2.603 2.13.093-.684-.288-.906-.54-1.19-.768-.864-1.552-1.716-2.33-2.574-.203-.226-.587-.454-.315-.783.245-.297.596-.047.86.11.444.264.88.544 1.298.85.59.433 1.077 1.014 1.945 1.37-.554-1.768-2.092-2.572-2.94-3.953 1.895-.114 2.7 1.75 4.422 2.472-.907-1.65-2.028-2.792-3.224-3.878-.21-.192-.684-.36-.437-.715.215-.31.655-.217.99-.043 1.025.536 2.018 1.126 2.855 1.94.105.134.203.432.36.312.24-.182-.018-.358-.162-.503-.708-1.595-2.205-2.393-3.767-3.53 2.174-.358 3.325 1.2 4.876 1.727-.92-1.254-2.254-2.05-3.508-3.082.868-.364 1.42.2 2.04.092-.1-.477-.714-.41-.74-.876.575-.127 1.024.104 1.48.376 2.713 1.61 5.013 3.685 6.903 6.2 4.644 6.175 5.606 13.398 5.86 20.813.013.35.034.835-.42.868-.59.043-.514-.5-.51-.875.032-2.645-.322-5.25-.75-7.85-.456-2.757-1.134-5.435-2.59-7.86-.063-.073-.17-.218-.182-.21-.162.1-.1.238-.04.372 1.818 4.375 2.254 9.038 2.81 13.672.112.948.22 1.908.045 2.864-.044.24.108.636-.31.644-.44.008-.448-.373-.456-.697-.02-.878.007-1.76-.06-2.635-.272-3.557-1.095-7.02-1.954-10.462-.34-1.36-1.15-2.606-1.787-3.99-.32.386-.168.553-.09.726 1.133 2.525 1.878 5.166 2.338 7.89.513 3.034 1.006 6.07 1.062 9.156.005.308.255.835-.27.883-.52.047-.558-.48-.596-.876-.046-.477-.057-.957-.085-1.436-.26-4.484-.955-8.882-2.663-13.07-.23-.56-.358-1.21-.973-1.595-.19.466.037.83.158 1.183 1.22 3.554 2.22 7.158 2.66 10.904.182 1.55.292 3.098.316 4.655.005.304-.063.655-.355.668-.365.017-.32-.378-.34-.648-.01-.16.008-.32-.004-.48-.367-4.876-1.15-9.662-3.073-14.203-.14-.332-.183-.735-.66-.82-.036.156-.088.24-.067.303.113.34.252.67.366 1.007 1.524 4.48 2.506 9.068 2.762 13.8.047.862-.005.865-.577 1.423-.534-5.204-1.218-10.326-3.38-15.267-.376.386-.284.53-.23.676 1.34 3.488 1.984 7.143 2.56 10.81.198 1.257.233 2.54.336 3.812.024.295-.027.625-.372.645-.47.028-.27-.386-.296-.62-.1-.83-.13-1.67-.264-2.497-.58-3.624-1.11-7.262-2.6-10.665-.11-.25-.155-.638-.508-.518-.376.127-.168.446-.053.697 1.178 2.568 1.64 5.333 2.12 8.08.316 1.806.436 3.646.63 5.473.03.3.13.737-.298.784-.494.054-.51-.384-.517-.756-.002-.12-.01-.238-.018-.358-.233-3.766-1.104-7.41-2.086-11.034-.07-.263-.063-.57-.497-.608-.095.482.02.942.128 1.404.816 3.502 1.508 7.026 1.733 10.624.034.53.355 1.225-.592 1.426-.27-2.285-.484-4.546-.82-6.79-.517-3.464-1.22-5.476-2.104-6.395-.125.337.05.617.153.916 1.35 3.843 1.852 7.833 2.027 11.875.02.428.212 1.163-.48 1.12-.513-.03-.255-.728-.265-1.108-.09-3.706-.886-7.278-1.978-10.797-.095-.3-.115-.737-.803-.687 1.636 4.345 1.956 8.82 1.826 13.363-.56-4.084-.938-8.195-2.755-12.134-.367.603-.07.943.05 1.3 1.128 3.363 1.518 6.848 1.722 10.363.02.326.166.863-.326.88-.512.018-.346-.537-.374-.855-.21-2.308-.447-4.614-1.008-6.867-.274-1.105-.494-2.257-1.363-3.117-.015.334.044.64.13.94.84 2.966 1.494 5.967 1.605 9.058.02.548.34 1.266-.536 1.644-.5-3.678-.705-7.354-2.41-10.702.748 3.677 1.77 7.317 1.387 11.136-.838-3.284-1.108-6.696-2.453-9.836.25 3.51 1.816 6.883.928 10.495-.675-3.04-.542-6.26-2.12-9.203-.347.483-.138.763-.034 1.056.873 2.472 1.146 5.047 1.316 7.64.028.43.15 1.038-.43 1.074-.615.04-.303-.594-.34-.91-.252-2.138-.293-4.312-1.06-6.36-.124-.333-.05-.9-.784-.895.102.365.19.698.287 1.028.616 2.082.912 4.21.91 6.38 0 .45.175 1.168-.46 1.17-.587.004-.263-.682-.296-1.053-.183-2.017-.232-4.055-1.123-5.937l-.22-.184c-.008.13-.014.258-.02.386.466 2.148.876 4.305.765 6.52-.016.31.197.826-.392.81-.53-.014-.44-.494-.412-.83.153-1.733-.102-3.42-.552-5.087-.073-.272-.056-.664-.64-.655.184.868.428 1.697.524 2.542.145 1.266.2 2.543.262 3.818.018.36-.074.83-.52.805-.443-.025-.266-.5-.28-.787-.033-.638-.008-1.28-.05-1.917-.076-1.163-.054-2.358-.984-3.57.108 1.408.613 2.51.51 3.665-.096 1.052.403 2.248-.676 3.397-.185-2.062-.007-3.882-.807-5.55-.4 1.766.36 3.543-.127 5.57-.973-1.386-.242-2.82-.753-4.087-.38.455-.188.9-.208 1.31-.02.436.04.875.03 1.31-.104 4.077-1.617 7.687-3.722 11.09-.3.487-.383.776.02 1.33 3.23 4.437 6.142 9.04 7.037 14.612.322 2.01.763 4 1.052 6.014.562 3.918 1.16 7.85-.133 11.76.358.15.46-.212.612-.393 3.6-4.287 6.874-8.802 9.796-13.586 6.282-10.29 10.834-21.218 12.49-33.234.978-7.11.993-14.164-1.28-21.093-1.808-5.513-4.814-10.163-9.627-13.485-8.025-5.54-16.614-5.235-25.256-1.906-6.37 2.453-11.784 6.52-16.61 11.318-10.13 10.07-17.047 22.118-21.706 35.536-.075.217-.297.497.014.75.67-.265.896-.857 1.136-1.454.79-1.958 1.585-3.913 2.393-5.863.174-.418.264-.95 1.04-.932-.526 2.51-2.207 4.56-2.707 7.143.944-.42 1.43-1.028 1.733-1.874.538-1.5 1.156-2.97 1.76-4.443.15-.366.19-1.047.8-.77.685.312.072.713-.112 1.046-.785 1.416-1.402 2.898-1.925 4.495.94.063 1.31-.44 1.578-1.114.503-1.258 1.018-2.51 1.55-3.757.15-.35.304-.88.824-.62.514.254.023.637-.085.897-.493 1.183-1.27 2.255-1.465 3.654.99-.207 1.258-.916 1.54-1.62.354-.885.71-1.77 1.086-2.647.12-.28.362-.464.675-.295.334.18.057.413-.02.602-.41 1.014-.837 2.02-1.31 3.153.9-.106 1.31-.472 1.513-1.163.212-.724.483-1.432.766-2.13.12-.296.336-.597.732-.357.375.227.07.485-.016.72-.257.714-.81 1.337-.72 2.18.8-.06 1.207-.472 1.405-1.167.12-.418.31-.818.496-1.214.102-.22.298-.456.548-.367.354.125.223.484.14.71-.158.442-.396.856-.63 1.34.673.096 1.13 0 1.404-.655.21-.506.33-1.167 1.098-1.223.183.556-.46.972-.15 1.49l-.154.005.03.098.103-.133c.903.223 1.175-.398 1.43-1.06.104-.268.258-.53.61-.435.487.133.118.442.103.67-.013.176-.235.377.016.514.234.127.493.038.634-.17.15-.224.23-.497.34-.748.12-.27.277-.52.622-.43.506.135.093.435.095.66.002.17-.227.345.013.52.55.08.78-.273.973-.693.095-.205.277-.27.494-.25.215.022.21.175.218.343.01.21-.34.594.232.56.304-.02.728.132.87-.226.64-1.604.843-.087 1.112.197.614-.253 1.11-1 1.636-.055.04.074.216.082.333.104 1.135.22 2.278.637 3.402.592 1.03-.042 1.892.938 2.964.34.252-.14.196.245.264.396.08.175.163.477.38.277.957-.89.73.26.885.562.53.027.523-.708 1.04-.528l.112.99c1.11-.85 1.88-1.94 2.67-3.014.208-.282.514-.503.804-.712 2.166-1.554 3.965-1.072 5.016 1.33.022.05.14.06.275.11.05-1.036-.262-1.865-1.092-2.492-.378-.286-.438-.747-.156-1.055.28-.306.533.16.81.255.256.087.33.575.733.33l-.025-.026c.68 1.708-.21 3.343-.304 5.012-.102 1.822-1.517 3.21-2.477 4.742.427.165.653.004.81-.247.642-1.047 1.502-1.975 1.777-3.226.068-.31.125-.746.528-.644.415.105.22.564.135.813-.19.56-.45 1.104-.735 1.625-.4.733-.85 1.44-1.277 2.156-.014.098-.073.246-.033.282.107.095.185 0 .228-.11 1.256-1.2 1.87-2.772 2.54-4.54.647 1.436-.512 2.22-.73 3.23-.09.158-.18.31-.27.462zm.923 11.417c-.075-.5-.122-.85-.182-1.197-.055-.32.042-.557.363-.655.304-.092.42.145.55.347.106.168.21.34.32.504.147.22.385.365.604.225.274-.175.054-.433-.046-.624-.426-.812-.884-1.606-1.306-2.42-3.017-5.813-7.916-9.57-13.766-12.057-6.137-2.61-12.47-1.954-18.668-.1-9.454 2.827-17.1 8.548-23.657 15.706-4.01 4.377-7.58 9.137-10.55 14.34-1.974 3.458-3.85 6.96-5.356 10.62-1.507 3.66-2.523 7.52-3.536 11.358-.292 1.108-.095 2.07.59 2.898.42.508.426.975.31 1.54-.63 3.09-1.323 6.17-1.258 9.353.01.426-.03.848-.65 1.335.077-4.323.326-8.38.977-12.425-.57.198-.586.636-.643.982-.738 4.495-1.28 8.99-1.16 13.58.198 7.69 2.252 14.713 6.806 20.943 5.34 7.308 12.735 10.53 21.584 10.064 7.347-.387 14.062-3.095 20.233-7.075 11.212-7.232 19.06-17.397 24.834-29.204 5.75-11.754 8.896-24.153 8.037-37.37-.023-.36.193-.82-.326-1.038-.46.403-.41.95-.367 1.456.285 3.488-.387 6.928-.498 10.396-.016.51-.076 1.02-.815 1.303.22-3.018.522-5.912.408-8.812-.025-.638.738-1.766-.737-1.923-.025-.003-.086-.274-.035-.325.992-.994-.228-2.14.22-3.185.092-.22.067-.725-.424-.673-.415.044-.196.39-.23.646-.152 1.2-.05 2.39.05 3.58.09 1.084.2 2.15.21 3.253.015 1.987-.333 3.925-.4 5.89-.018.465-.025 1.03-.57 1.408-.207-.708-.127-1.342-.094-1.964.205-3.92.096-7.824-.435-11.715-.08-.607-.162-1.207-.9-1.61.993 5.312.242 10.5-.727 15.695.026-5.286.366-10.576-.76-15.946-.91 1.44-.144 2.683-.124 3.935.06 3.85-.406 7.657-.827 11.47-.04.368.062.968-.495.91-.585-.06-.297-.647-.258-.978.285-2.422.334-4.85.376-7.286.036-2.08-.607-4.096-.408-6.18.032-.327-.133-.803-.576-.77-.425.03-.346.442-.296.763.75 4.842.188 9.636-.523 14.426-.06.408-.133.792-.728.828.71-5.766 1.048-11.496-.813-17.1.573 5.73.795 11.424-.957 17.01-.18-.308-.222-.614-.173-.905.778-4.545.324-9.07-.226-13.59-.026-.215.168-.65-.33-.59-.333.042-.427.325-.422.63.003.2 0 .402.03.598.502 3.193.085 6.384-.063 9.57-.073 1.583-.022 3.206-.6 4.735-.09.238-.022.67-.42.588-.433-.09-.297-.457-.22-.784.496-2.074.598-4.175.553-6.306-.05-2.408-.31-4.792-.564-7.18-.018-.154-.224-.357-.384-.41-.17-.057-.21.17-.247.32-.08.307-.162.596-.132.934.063.712.574 1.61.438 1.994-.534 1.497.034 2.975-.248 4.452-.375 1.955-.32 3.98-.74 5.938-.082.373-.065 1.025-.474.963-.553-.085-.242-.72-.217-1.09.118-1.715.32-3.422.44-5.136.117-1.72.154-3.443-.333-5.168-.86.478-.63 1.217-.605 1.863.115 3.248-.177 6.454-.914 9.62-.07.3-.07.72-.516.668-.506-.06-.312-.518-.24-.753.773-2.562.655-5.22.846-7.84.1-1.404-.215-2.78-.538-4.142-.058-.24-.103-.625-.503-.53-.43.1-.14.46-.178.698-.023.152.034.316.056.474.54 3.837.373 7.65-.39 11.442-.073.36-.002.98-.567.845-.523-.125-.205-.69-.148-1.03.22-1.302.41-2.603.416-3.927.01-2.248-.106-4.485-.517-6.702-.06-.325.063-.86-.396-.803-.47.06-.276.595-.218.915.69 3.803.126 7.565-.337 11.332-.055.445-.197.82-.674.99-.26-.45-.052-.84 0-1.213.478-3.38.767-6.756.023-10.132-.067-.305.09-.9-.416-.824-.522.08-.338.647-.28 1.018.217 1.38.574 2.743.465 4.16-.166 2.15-.338 4.3-.506 6.45-.025.315.007.66-.483.708-.19-3.65.74-7.383-.715-10.998-.537.396-.41.865-.358 1.335.333 3.052.854 6.103.106 9.167-.08.334-.042.86-.49.805-.485-.06-.27-.56-.253-.897.004-.08.015-.16.027-.238.47-2.88.334-5.728-.452-8.543-.063-.226-.018-.534-.333-.537-.373-.004-.412.317-.41.603.003.197.04.398.087.59.686 2.775.26 5.568.133 8.355-.015.326-.088.725-.516.638-.46-.093-.257-.506-.196-.788.188-.865.29-1.733.2-2.618-.26-2.492-.202-5.037-1.304-7.386-.177-.377-.366-.97.066-1.197.476-.25.738.3.98.663.137.205.27.41.41.625.925-.86-1.418-2.18.552-2.768.117.205.21.435.36.614.186.22.203.758.615.573.38-.17.125-.567 0-.843-.327-.724-.134-1.256.467-1.708.48.36.456 1.288 1.043 1.093.64-.214.078-.793-.018-1.215-.08-.348.026-.652.368-.795.38-.16.7-.11.85.352.07.21.12.535.43.44.3-.09.362-.37.305-.69-.056-.31-.094-.64-.046-.95.032-.21.178-.47.354-.58.275-.174.39.15.555.307.22.207.225.832.74.482.37-.25.206-.65.02-.972-.432-.745.03-1.017.632-1.157.623-.145.29.77.85.78.383-.393.428-.877.31-1.414-.07-.306-.153-.606.27-.796.486-.22.646.074.827.4.108.2.174.505.475.42.292-.08.418-.365.45-.654.032-.317.003-.64.04-.957.072-.594.286-.834.813-.306.205.205.394.625.764.394.32-.2.33-.603.34-.976.012-.48-.21-1.006.19-1.44.125.063.2.09.265.132.438.292.7 1.102 1.27.86.592-.25.35-.962.24-1.513-.07-.34.02-.66.354-.813.49-.225.61.193.773.502.144.272.344.47.664.37.364-.113.46-.404.384-.765-.04-.195-.087-.392-.1-.59-.025-.442-.055-1.004.397-1.148.4-.128.43.474.647.73.122.144.172.404.408.375.273-.034.374-.304.44-.52.064-.22.047-.473.032-.71-.022-.376-.02-.767.407-.89.422-.12.478.313.662.552.158.203.242.595.577.494.314-.094.313-.446.235-.72-.124-.438-.29-.962.153-1.2.434-.23.673.387 1.24.657zm7.71 24.737l-.354-.324c-.87 1.272-2.24 2.12-3.013 3.475l.308.265 3.06-3.416z"/><path d="M205.293 152.233c1.98-1.216 3.82-2.605 5.413-4.307.265-.283.523-.73.967-.318.493.46-.086.688-.31.938-2.23 2.486-4.817 4.53-7.7 6.217-.342.2-.862.252-.953.8.482.27.747-.148 1.06-.327 2.653-1.512 4.99-3.436 7.198-5.527.405-.385.826-.754 1.258-1.106.43-.35.944-.375 1.287.037.328.397-.216.598-.413.83-2.27 2.686-5.157 4.624-8.02 6.593-.32.22-.72.34-.926.712l-.134.188.294-.01c1.96-.772 3.508-2.18 5.165-3.41 1.572-1.17 2.956-2.56 4.353-3.933.228-.224.454-.45.69-.666.323-.298.67-.235.97.014.43.356-.033.554-.2.755-2.13 2.577-4.787 4.575-7.397 6.612-4.093 3.195-8.653 5.525-13.605 7.072-1.38.432-1.4.374-2.132-.016.584-.29 1.14-.563 1.834-.908-.823-.324-1.565.452-2.22-.287.45-.414.924-.85 1.478-1.355-.588-.384-1.59.18-1.68-.646-.088-.78 1.114-.423 1.35-1.103-.468-.16-.936-.323-1.415-.49.175-.755 1.025-.45 1.322-.98-.543-.21-1.45.036-1.56-.556-.144-.8 1-.54 1.36-1.107-.31-.41-1.022.294-1.143-.294-.16-.78.754-.905 1.145-1.465-.817-.1-1.66.104-2.29-.57.3-.55 1.25-.344 1.363-1.134-.38-.267-.768.145-1.2-.062.126-.747.792-1.176 1.198-1.748-.325-.25-.738.24-.886-.096-.226-.515.525-.616.618-1.15l-1.59-.11c.797-.457.775-.85.73-1.57-.23-3.532-1.022-7.014-.897-10.593.03-.867.38-2.13-.6-2.887.034-.56 1.07-.34.78-.92-.26-.52-.664-1.064-1.47-1.02-1.363.077-2.567-.477-3.726-1.13l-.562-.36-.345-.317c-.22-.295-.466-.49-.88-.168.218.14.412.266.605.392l.357.297.588.442c.406.406.93.604 1.452.796.364.133.863.143.823.683-.035.466-.524.405-.834.532-.175.07-.38.072-.564.104-.004.862 1.705.675 1.088 1.805-.35.64-1.02.097-1.63.198.16.542.68.746.934 1.142.36.56.536 1.066-.446 1.08-.257.002-.6-.166-.696.21-.08.314.26.46.43.666.863 1.056.863 1.046-.394 1.434-.356.11-.912.202-.435.75.273.31 1.033.196.85.913-.156.604-.855.308-1.193.643-.006.342.325.416.49.614.566.67.712 1.192-.407 1.34-.29.04-.565.11-.65.43-.062.235.185.312.292.463.3.415 1.25.185 1.107.946-.145.76-1.04.395-1.52.75-.03.352.312.397.48.572.263.273.815.41.68.873-.122.412-.605.474-1.012.436-.47-.042-.484.278-.56.594-.105.443.254.41.487.502.11.044.23.064.35.082.43.064.815.2.718.738-.08.446-.473.486-.84.487-.236 0-.473-.045-.71-.07l-.267.01.138.113c-.027.476.027.902.638.938.627.036.873.44.77.97-.106.535-.598.134-.9.23-.342.11-.912-.357-.973.448-.057.733.535.502.87.68.282.148.91-.224.83.455-.068.565-.324.972-1.05.68-.406-.166-.814-.248-.88.49-.072.788.437.583.82.627.348.04.7.045 1.07.065-.042.894-.39 1.292-1.284 1.04-.212-.06-.577-.275-.61.23-.025.386.032.727.514.79.616.08 1.263-.107 1.984.2-.458.773-1.18.653-1.792.758-.36.062-.78.073-.768.56.012.49.36.67.825.657.2-.005.41-.04.597.01.34.088.946-.303.99.268.05.645-.596.615-1.068.654-.2.017-.402-.006-.6.01-.23.02-.556-.012-.58.283-.028.352.303.41.58.433.4.035.8.034 1.197.074.283.027.598.104.59.46-.01.334-.283.453-.59.456-.554.005-1.107 0-1.774 0 .245.726.708.683 1.173.69.325.004.837-.175.875.333.042.55-.5.41-.81.41-6.517-.022-12.21-2.1-16.812-6.827-1.792-1.84-3.362-3.854-4.457-6.197-.264-.567-.582-1.14-.453-1.805.333-.145.473.082.558.292 2.28 5.677 6.468 9.353 12.05 11.62 1.89.77 3.764 1.544 5.793 1.86.335.05.697.256.97-.188-.365-.495-.93-.31-1.392-.446-5.036-1.487-9.794-3.47-13.218-7.713-1.385-1.717-2.467-3.624-3.372-5.635-.202-.45-.387-.878.16-1.394.822 1.88 1.792 3.593 2.91 5.23 1.904 2.782 4.3 4.89 7.527 6.03 2.135.755 4.118 1.93 6.375 2.352.345.065.9.43 1.027-.105.15-.633-.522-.396-.853-.485-7.45-2.018-13.186-6.09-16.17-13.467-.114-.28-.392-.64.03-.827.48-.21.47.317.567.56 2.8 6.98 8.63 10.264 15.29 12.52.328.11.834.41 1.04-.147.234-.64-.34-.68-.75-.805-6.123-1.86-10.765-5.606-14.096-11.035-.377-.615-.697-1.248-.946-1.926-.137-.375-.198-.688.23-.963 2.1 4.367 5.172 7.85 9.403 10.26 1.703.97 3.485 1.762 5.36 2.337.276.086.673.415.83.006.175-.46-.222-.674-.65-.812-.604-.194-1.188-.452-1.778-.692-5.548-2.26-9.183-6.465-11.84-11.658-.132-.255-.447-.582-.05-.836.443-.283.5.217.645.433.29.43.57.873.786 1.342 2.412 5.196 7.028 7.763 11.927 9.978.254.115.732.64.974-.038.193-.542-.202-.723-.658-.92-4.94-2.146-8.854-5.5-11.635-10.12-.452-.752-1.046-1.58-.652-2.64.455.2.49.54.614.815 2.375 5.27 6.563 8.513 11.812 10.572.24.093.53.365.722 0 .17-.323-.022-.645-.3-.825-.262-.17-.584-.24-.873-.37-4.458-2.004-7.825-5.177-10.082-9.503-.374-.72-.86-1.527-.2-2.51.9 2.474 2.114 4.645 3.932 6.458 1.808 1.805 3.932 3.12 6.21 4.214.665.318.675.296 1.265-.53-4.54-1.905-7.826-5.145-10.02-9.51-.255-.507-.998-1.178-.302-1.63.353-.228.686.722.927 1.183 1.65 3.146 3.78 5.815 7.045 7.43.683.34 1.37.64 2.11.815.25.06.505.126.628-.134.192-.406-.208-.46-.432-.55-2.436-.974-4.354-2.643-6.057-4.572-1.44-1.632-2.28-3.587-2.99-5.73.77.018.857.49 1 .866 1.355 3.604 3.967 6.003 7.33 7.696.558.28 1.085.502 1.633-.2-2.25-.92-4.136-2.282-5.654-4.142-1.252-1.534-2.092-3.29-2.843-5.102-.138-.33-.22-.667.154-.818.51-.208.448.295.528.554 1.113 3.572 3.527 6 6.77 7.694.33.172.76.497 1.033-.028.31-.597-.35-.587-.616-.737-3.538-1.996-5.396-5.144-6.387-9.145.85.437 1.004 1.13 1.192 1.728.903 2.864 3.082 4.583 5.42 6.17.214.143.45.38.688-.017.194-.324.033-.532-.184-.723-.42-.368-.845-.732-1.286-1.076-2.155-1.677-3.484-3.91-4.387-6.44-.122-.344-.357-.76.1-.923.423-.15.443.37.538.626.794 2.16 2.163 3.894 3.917 5.347.518.43 1.05.832 1.85.96-.285-.992-.967-1.514-1.645-2.037-2.104-1.625-3.1-3.897-3.716-6.388-.033-.138.04-.303.075-.547.774.35.875 1.046 1.014 1.66.452 1.98 1.85 3.214 3.39 4.318.28.2.794.667 1.13.104.297-.494-.185-.74-.55-1.014-1.742-1.303-3.036-2.93-3.546-5.096-.118-.502-.242-1.004-.02-1.565.585.194.56.713.655 1.147.374 1.693 1.46 2.887 2.75 3.945.326.27.654.373.934.03.345-.42-.173-.515-.363-.67-1.265-1.05-2.173-2.33-2.638-3.91-.068-.23-.353-.534.046-.722.47-.22.527.202.624.48.498 1.427 1.405 2.45 2.822 3.01.266-.432 0-.62-.233-.856-.446-.455-.916-.903-1.28-1.42-.98-1.387-.928-1.635.675-1.993 1.473-.33 2.597-1.393 4.042-1.738l.21.174c-.33.73-.275 1.498-.106 2.23.172.747.19 1.266-.905 1.145 1.444.938 2.942.937 4.438.722 2.683-.386 4.786-1.856 6.67-3.71 2.638-2.6 4.72-5.6 6.46-8.852.412-.772.408-.775 1.164-1.15.37.814-.08 1.442-.443 2.068-2.08 3.57-4.63 6.77-7.6 9.644-.14.136-.265.288-.386.42.063.32.254.26.45.196.457-.153.675.154.824.485.203.45-.275.497-.484.686-.264.238-.568.433-.855.646l-.82.544c-.266.104-.547.19-.6.553.36.11.582-.097.81-.28l.91-.58c.205-.105.403-.228.617-.313.368-.146.764-.685 1.096-.332.31.33-.157.764-.345 1.132l-1.498 1.06c.895.15 1.304-.43 1.796-.84.34-.072.718-.243.892.24.135.375-.154.583-.402.767-1.002.745-2.016 1.476-3.024 2.21-.218.12-.58.235-.333.535.133.16.376-.127.536-.273.942-.584 1.893-1.155 2.823-1.758.355-.23.635-.456.956.054.344.547-.202.596-.422.778-.736.61-1.506 1.18-2.263 1.763.078.103.154.207.23.31.69-.47 1.366-.962 2.075-1.402.31-.192.623-.747 1.063-.13.438.615-.256.69-.457 1.003-.24.164-.482.326-.724.49l-.38.3-.72.48-.714.475-.534.354-.847.55c-.173.1-.39.268-.223.43.22.215.394-.06.55-.214.29-.087.537-.23.71-.487.185-.12.37-.238.556-.356l.764-.515.73-.49.374-.3.72-.48c.34-.095.673-.57 1.025-.043.374.56-.1.787-.448 1.032-1.465 1.03-2.938 2.05-4.43 3.09.492.395.79-.044 1.096-.24 1.272-.822 2.53-1.668 3.778-2.524.326-.223.694-.426.94-.066.244.352-.07.653-.385.873-1.342.936-2.686 1.87-4.017 2.82-.373.266-.842.446-1.05 1.077 1.148-.307 1.89-1.11 2.774-1.645.784-.475 1.523-1.024 2.263-1.567.356-.262.826-.45 1.076-.14.335.416-.057.815-.423 1.065-1.45.988-2.92 1.95-4.372 2.936-.317.214-.738.328-.89.817.51.207.813-.187 1.138-.392 1.416-.893 2.807-1.826 4.22-2.725.35-.223.8-.632 1.143-.116.335.504-.226.758-.53 1.043-.262.245-.543.47-.815.703-.51.344-1.023.688-1.535 1.03l-2.926 1.81c.064.105.13.21.195.313 1.083-.483 2.028-1.21 3.003-1.882.52-.347 1.04-.695 1.558-1.043.44-.27.88-.54 1.32-.812.293-.184.637-.55.935-.233.335.354.013.78-.252 1.054-.443.456-.943.863-1.446 1.256-.817.638-1.657 1.248-2.487 1.87l-.858.552c-.417.173-.89.276-1.144 1.02.57-.337.96-.568 1.347-.8l.89-.56c1.256-.553 2.306-1.404 3.34-2.28.334-.284.675-.565 1.042-.804.307-.2.718-.35.985-.023.297.362-.037.63-.3.896-.62.624-1.446 1.052-1.716 2.062.725-.568 1.44-1.146 2.175-1.7.23-.173.485-.505.804-.123.26.31.098.588-.113.852-.78.97-1.712 1.777-2.712 2.51-1.283.94-2.575 1.868-3.864 2.8-.155.075-.457.095-.31.345.112.192.32-.03.485-.08 2.125-1.267 4.158-2.654 6-4.322.557-.504 1.264-1.624 2.005-.84.595.63-.467 1.345-.98 1.866-1.523 1.55-3.453 2.562-5.218 3.793-.613.43-1.318.736-1.848 1.357.557.213.96-.072 1.342-.31 2.477-1.542 4.914-3.14 6.942-5.27.165-.174.328-.364.53-.48.293-.17.67-.193.893.056.24.267-.066.513-.227.72-1.112 1.447-2.65 2.41-4.032 3.552-.334.277-.674.55-1.01.824-1.115.692-2.228 1.385-3.34 2.077l.174.257c1.31-.378 2.334-1.225 3.36-2.067zm-9.3-22.1l-.374.18c.2.194.392.094.585-.014.114-.097.265-.212.09-.35-.19-.15-.226.074-.3.182zm-.118 8.04c.52-.213 1.057-.41 1.347-1.21-.765.216-1.213.55-1.582 1.015l-.06.284c.098-.03.196-.06.295-.088zm3.87 11.157c.892-.397 1.81-.758 2.455-1.503l-.184-.286-2.46 1.516c-.07.082-.213.198-.194.238.09.195.246.1.384.036zm2.343-1.598c1.197-.365 1.708-.803 1.883-1.603-.656.5-1.415.79-1.882 1.602zM204.773 68.113c.594.12 1.508-.834 1.737.173.25 1.097-.987.668-1.542.95-.278.143-.628.14-.912.276-.3.143-.854.164-.778.587.088.495.59.583 1.067.516.118-.017.238-.028.355-.052.333-.07.703-.087.82.278.136.423-.278.5-.563.605-.56.21-1.12.418-1.69.596-.265.083-.543.097-.766.302-.217.203-.385.463-.35.727.053.405.443.187.682.26.445.138 1.26-.35 1.288.282.026.583-.853.52-1.375.65-.193.046-.4.04-.59.1-.56.17-1.17.468-1.05 1.1.095.5.75.148 1.146.248.29.073.612.014 1.084.014-.53.926-1.273 1.224-2.067 1.443-.23.062-.477.068-.695.153-.347.135-.48.464-.408.784.09.4.448.216.693.17.448-.083 1.076-.46 1.23.152.104.423-.578.694-1.023.857-.713.26-1.676.153-1.692 1.38.457.332 1.306-.5 1.727.416-.62.285-1.194.677-1.822.804-.643.13-.69.556-.615.946.094.482.513.127.79.124.34-.006.68-.043 1.16-.076-.493.845-1.158 1.142-1.928 1.208-.526.045-.703.32-.684.778.026.61.457.222.703.255.402.054.918.058.982.507.06.41-.495.427-.784.605-.166.103-.364.17-.558.21-.434.09-1.034.15-.975.674.074.655.704.194 1.074.293.18.047.418-.05.512.198.092.246-.116.357-.254.48-.362.327-.77.58-1.27.618-.568.042-.755.415-.734.89.024.533.475.23.73.292.427.103 1.002.13.995.657-.007.454-.6.394-.95.515-.676.236-1.367.437-1.823 1.15.708.447 1.558.29 2.297.64-.307.923-1.09.554-1.687.6-.456.036-.848-.042-.82.654.034.79.538.51.927.5.358-.013.76-.38 1.134.31-1.65.35-3.3-.015-5.107.54l.896-.795c-.366-.66-1.678.45-1.52-.74.06-.464.358-1.28 1.232-1.48-.24-.14-.295-.173-.352-.205-.36-.207-1.03.474-1.148-.336-.097-.663.457-.826.975-.998.334-.11.946.043.9-.55-.047-.57-.52-.294-.847-.267-.498.042-.405-.376-.5-.653-.132-.392.04-.602.403-.71.926-.273 1.854-.548 2.75-1.056-.655 0-1.31.025-1.963-.013-.26-.015-.71.24-.745-.295-.027-.412.274-.684.623-.793.722-.228 1.464-.39 2.197-.584.186-.048.394-.078.52-.41-.938.103-1.81-.513-2.72.03-.31.187-.565.28-.68-.236-.094-.415-.105-.667.4-.775.935-.2 1.86-.453 2.788-.684.366-.09.805-.063 1.05-.933-1.398 1.21-2.824-.392-4.12.664 1.04-2.185 3.638-1.395 5.148-2.728-.532-.37-.907.082-1.314.065-.456-.02-1.022.914-1.405-.166-.05-.142-.54.222-.837.316-.318.102-.753.358-.938-.085-.186-.442.166-.767.573-.897 1.024-.33 2.072-.585 3.088-.937.556-.192 1.24-.187 1.825-.897-1.082-.043-1.83.36-2.617.525-.597.124-1.168.443-1.77-.028-.178-.138-.61.11-.633-.336-.022-.415.332-.502.627-.607 1.39-.492 2.788-.96 4.17-1.47.348-.13.803-.097 1.036-.57-.608-.377-1.124.086-1.64.175-1.14.196-2.262.49-3.378.792-.44.12-.85.15-1-.31-.15-.455.325-.582.63-.732 1.755-.867 3.552-1.622 5.49-1.988.343-.065.71-.075.954-.39-.022-.312-.263-.29-.434-.253-1.63.366-3.258.75-4.887 1.126-.335.077-.756.327-.93-.16-.148-.417.214-.635.555-.787 1.75-.78 3.55-1.416 5.398-1.93.586-.162 1.245-.196 1.77-.72-.14-.088-.25-.206-.305-.184-1.976.76-4.15.812-6.084 1.724-.343.162-.826.5-1.058.074-.237-.438.217-.774.613-.992 2.29-1.257 4.76-2.027 7.272-2.686.465-.122 1.05-.065 1.34-.89-2.217.533-4.253 1.14-6.248 1.89-.56.21-1.102.468-1.652.703-.308.13-.688.228-.867-.084-.212-.368.08-.672.385-.89.227-.16.467-.307.714-.434 3.624-1.87 7.435-3.063 11.582-3.18.107.84-.572.876-1.09 1.075-.75.287-1.723.16-2.103 1.133-.082.28-.044.412.26.21z"/><path d="M197.14 112.313c-.212.18-.413.378-.644.528-.117.077-.31.126-.435.084-.274-.094-.18-.33-.073-.488.38-.564.134-.72-.406-.592-.5.117-.683-.012-.572-.52.016-.075.054-.17.025-.225-.514-.995-.518-.997.41-1.825.712-.634 1.34-1.37 2.18-1.854.7 1.103 1.006 2.314 1.036 3.63 1.86-1.485 1.364-3.29.827-5.04-.223-.728-1.078-.892-1.665-1.288-.177-.12-.64-.11-.408-.517.195-.344.542-.354.81-.09 1.078 1.07 2.04 1 3.164-.037.552-.51 1.424-.683 2.162-.983.76-.31 1.293-.115 1.6.7.807 2.154.337 4.343.205 6.52-.016.26-.307.33-.56.332-.395-.768.272-1.757-.5-2.49-.214.47-.08.904-.08 1.332 0 .45.195 1.154-.402 1.176-.49.018-.502-.697-.562-1.165-.068-.535.14-1.13-.348-1.606-.327.93.206 2-.495 2.955-.69-.814-.132-1.896-.783-2.612-.053.08-.14.153-.13.206.24 1.23-.105 2.21-1.15 2.953-1.456 1.04-1.607 2.84-2.45 4.227-.39.644.44.86.03 1.562-.998 1.7-2.157 3.12-4.183 4.13h1.384c-.834 1.362-2.344 1.747-3.495 2.842 1.8.147 2.623-1.812 4.51-1.555-1.212 1.32-2.73 1.885-3.86 2.976 1.528-.096 2.483-1.62 4.057-1.73 0 .616-.707.727-.667 1.292.485.28.79-.535 1.302-.207.093.482-.44.66-.603 1.05.412.383.764-.286 1.227-.046-.49 1.13-1.388 1.898-2.31 2.627-1.2.95-2.623 1.49-4.026 2.065-.584.24-.813.042-1.058-.5-.6-1.327-.946-2.708-1.074-4.147-.062-.702.068-1.34.736-1.774.476-.308.75-.81 1.074-1.268.768-1.082 1.254-2.362 2.488-3.118.717-.44 1.077-1.26 1.194-2.135.137-1.03.134-2.074 1.73-2.01.52.02.79-1.386.677-1.535-.65-.846.244-1.095.45-1.588.128-.078.26-.21.136-.326-.143-.13-.337-.07-.472.083zm-3.136 13.848c-.238.193-.68.182-.67.692.402.04.628-.21.87-.432l.27-.146c.35-.267.978-.29.927-.997-.53.104-.8.46-1.123.737-.09.05-.182.098-.273.147zm-.743.818c-.104-.066-.072-.28-.255-.178-.098.056-.183.135-.273.202.073.068.072.253.24.168.1-.05.185-.122.29-.192z"/><path d="M207.06 103.04c.12 2.308.318 4.607.183 6.93-.087 1.49-.64 2.893-.665 4.38l.03-.026c-.39.15-.497.394-.252.755l.02-.035c-.425-.007-.258.3-.272.51l.023-.036c-.35.116-.968 1.18-.866-.285.036-.508.23-1.546.57-1.993.45-.593-.256-.89-.478-1.38 1.087-.188 1.42-.71.885-1.737-.184-.354-.125-.853-.117-1.284.04-2.207-.14-4.355-.96-6.46-.587-1.513-1.37-2.68-2.973-3.166-.33-.1-.813-.198-.63-.68.2-.514.638-.127.912-.04 1.723.557 2.89 1.78 3.808 3.286.172.282.185.677.565.813l-.01-.025c-.123.275-.122.487.258.505l-.03-.033zM170.424 127.61c-.77.734-.39 1.73-.63 2.6-.88-.12-.872-.744-.89-1.405-.013-.554.46-1.13-.036-1.73-.692 1.222-.12 2.623-.75 3.882-.55-.64-.246-1.42-.57-2.107-.422.316-.196.75-.28 1.09-.08.326-.19.68-.545.694-.43.02-.457-.437-.44-.703.082-1.31.218-2.62.343-3.928.026-.277.183-.482.47-.332.644.338 1.337.142 1.998.248.578.094 1.055.236 1.328.948.49 1.278 1.547 1.98 2.922 2.162.383.05.785.04 1.286.394-1.24.123-2.407-.203-3.376.624-.334.285-1.026-.658-.9-1.264.074-.37.406-.712.07-1.173zM191.694 111.922c.155.283.48-.104.593.125.1.2-.1.48-.255.46-1.136-.14-1.252.99-1.868 1.502-.537-.45-.133-.835.063-1.164.796-1.332 1.66-2.616 2.766-3.726.18-.18 1.105-.497.098-.912-.152-.062-.102-.277.013-.41 1.107-1.285 2.297-2.47 4.01-3.42-.172.74-.464 1.273.177 1.693.225.147.134.51-.108.83-.798 1.048-2.082 1.538-2.902 2.585-.14.18-1.03-.112-1.232.587-.068.236-1.042.614.08.75.04.005.098.294.057.422-.083.257-.31.216-.485.11-.706-.422-.765.2-.974.588-.052.04-.104.082-.155.124.054.01.106.022.16.033-.014-.06-.025-.12-.036-.178zm2.29-3.713c.235-.142.625-.357.395-.592-.373-.382-.46.187-.666.36-.092.1-.254.203-.09.35.157.14.25-.047.36-.12zm1.18-1.273c.063-.096.14-.18.173-.277.05-.148-.097-.21-.174-.17-.085.048-.134.182-.167.287-.008.028.096.092.17.16zM163.507 123.345c.333.128.667.258 1 .384 1.09.41 1.65 1.42 1.502 2.557-.154 1.183-.21 2.378-.348 3.562-.04.328.135.855-.55.82-.735-.035-.563-.55-.522-.948.153-1.507.343-3.01.513-4.514.042-.377.238-.892-.343-.967-.59-.075-.375.494-.43.79-.33 1.76-.626 3.528-.94 5.292-.06.337-.056.836-.542.75-.405-.07-.227-.543-.2-.814.22-2.26.476-4.515.72-6.77.05-.047.095-.094.14-.143zM177.487 83.91c1.52-3.02 8.963-9.677 10.654-9.53-4.164 2.49-6.93 6.545-10.653 9.53zM211.174 105.603c-.07 1.067.132 2.192-.174 3.29-.067.243.05.683-.348.636-.41-.048-.345-.48-.312-.78.127-1.148.235-2.292.168-3.456-.12-2.085-.584-4.092-1.188-6.08-.125-.408-.5-.98.233-1.184.735-.203.708.5.828.902.645 2.16.69 4.397.794 6.67zM187.885 76.79c-3.487 2.404-6.48 5.32-9.362 8.362-.165.173-.348.57-.65.302-.25-.22-.045-.507.158-.723 2.657-2.82 5.304-5.652 8.52-7.87.403-.28.817-.52 1.335-.07z"/><path d="M209.692 106.567c-.088.603.14 1.576-.168 2.51-.086.26.067.777-.422.667-.326-.074-.29-.49-.252-.83.077-.712.108-1.43.142-2.146.104-2.223-.32-4.36-1.025-6.456-.138-.41-.478-1.098.01-1.238.657-.188 1.003.412 1.114 1.09.33 2.01.687 4.012.602 6.403zM159.513 131.972c-.258-.158-.307-.426-.293-.638.196-3.017.162-6.062 1.01-9.005.056-.194-.087-.708.42-.415.276.16.835.032.672.727-.682 2.902-1.54 5.777-1.55 8.8-.003.176-.168.35-.26.53zM179.393 88.443c.46-1.847 6.388-6.997 7.98-6.858-2.97 2.14-5.36 4.626-7.98 6.858zM230.262 122.398c.654-1.734 1.337-3.46 1.954-5.207.49-1.387.84-2.817 1.013-4.286.035-.298-.054-.745.42-.688.45.054.317.48.28.778-.305 2.55-1.155 4.947-2.126 7.3-.33.802-.453 1.768-1.542 2.104zM178.638 87c.39-1.74 7.765-8.06 9.19-7.808-3.524 2.227-6.198 5.202-9.19 7.808zM160.974 131.48c-.07-3.05.048-5.75.9-8.385.15-.456.352-.23.615-.177.505.1.495.346.368.762-.593 1.94-1.015 3.916-1.3 5.926-.074.525.085 1.12-.584 1.874z"/><path d="M206.84 102.592c.402-.453-.083-.77-.203-1.12-.17-.503-.436-.97.04-1.436 1.518.886 2.338 7.758 1.103 9.99-.337-.468-.16-.923-.107-1.35.225-1.803.112-3.58-.343-5.34-.04-.154-.058-.31-.27-.297l.03.03c.146-.288.135-.495-.26-.505l.01.027zM228.518 121.366c-.205-.604.072-1.034.227-1.473.78-2.214 1.635-4.403 1.95-6.753.04-.318.013-.835.55-.737.586.107.25.562.193.862-.482 2.51-1.274 4.926-2.23 7.293-.132.333-.205.683-.69.808zM224.007 120.484c-.32-.404.014-.762.123-1.11.67-2.126 1.367-4.244 2.07-6.36.075-.224.018-.66.45-.538.254.07.26.374.208.617-.51 2.47-1.335 4.834-2.358 7.133-.08.177-.254.306-.493.258zM186.307 122.39c.737-2.33 1.143-4.553 2.244-6.553.135-.243.21-.573.565-.48.37.1.3.487.228.705-.635 1.873-1.29 3.74-1.983 5.59-.118.312-.443.55-1.053.74zM176.33 92.187c-.036.05-.11.192-.216.302-1.908 1.96-3.126 4.39-4.524 6.695-.13.215-.177.614-.565.38-.26-.157-.137-.398-.007-.622 1.395-2.405 2.768-4.824 4.575-6.958.152-.18.26-.417.554-.286.157.07.226.21.183.487zM174.082 90.994c-1.39 1.637-2.475 3.413-3.463 5.25-.433.804-.848 1.617-1.268 2.427-.115.223-.25.45-.532.293-.205-.115-.154-.35-.063-.532 1.274-2.564 2.618-5.088 4.435-7.325.198-.245.43-.332.89-.11zM187.085 83.406c-2.17 1.954-4.193 3.976-6.27 5.94-.14.13-.278.298-.497.096-.208-.192-.103-.35.037-.504 1.86-2.037 3.88-3.894 6.163-5.452.142-.096.376-.056.567-.08zM221.997 119.8c-.044-1.174.337-1.93.604-2.705.492-1.427 1.06-2.83 1.27-4.34.034-.258-.07-.63.38-.564.44.066.42.437.35.75-.29 1.32-.62 2.633-1.14 3.886-.385.922-.533 1.962-1.463 2.973zM228.997 112.177c.438 2.41-1.086 6.873-2.848 8.443 1.247-2.912 2.292-5.6 2.847-8.443zM174.69 102.6c-.39-.246-.256-.534-.097-.81.737-1.276 1.456-2.564 2.23-3.817.524-.847 1.125-1.646 1.703-2.458.136-.19.315-.4.585-.197.192.143.193.372.053.53-1.727 1.964-2.946 4.25-4.178 6.53-.048.09-.177.136-.294.22zM172.842 100.28c.066-.162.12-.312.188-.455 1.077-2.23 2.263-4.39 3.943-6.24.217-.24.396-.577.754-.297.225.176.105.45-.08.622-1.856 1.724-2.925 3.963-4.05 6.166-.118.23-.182.564-.557.48-.082-.02-.132-.18-.198-.276zM187.095 85.693c.057.297-.11.35-.244.424-1.898 1.072-3.32 2.713-4.93 4.13-.178.157-.387.537-.675.274-.255-.232-.038-.522.172-.715 1.49-1.372 2.817-2.933 4.56-4.018.377-.233.756-.42 1.118-.094zM176.674 103.422c-.285-.107-.352-.277-.18-.55 1.18-1.88 2.17-3.88 3.547-5.636.186-.235.45-.58.783-.303.373.31.01.533-.208.76-1.416 1.49-2.268 3.352-3.33 5.075-.156.254-.2.628-.61.654zM219.532 119.27c.74-2.248 1.48-4.498 2.225-6.745.06-.182.15-.41.397-.31.11.044.254.27.225.363-.74 2.31-1.155 4.746-2.48 6.826-.123-.045-.245-.09-.368-.133zM178.515 105.238c-.378-.14-.5-.304-.396-.518 1.017-2.12 2.153-4.173 3.643-6.007.124-.153.322-.27.517-.107.178.148.177.357.026.528-1.52 1.72-2.574 3.73-3.6 5.755-.072.138-.15.273-.19.348zM219.58 111.585c.233.33.413.47.4.584-.22 1.916-.923 3.673-1.827 5.36-.09.168-.267.23-.397.15-.257-.156-.17-.42-.074-.632.57-1.27 1.053-2.567 1.42-3.91.122-.446.272-.886.478-1.553zM184.182 100.518c-.084.14-.143.293-.25.402-1.158 1.195-1.863 2.668-2.57 4.142-.126.26-.218.726-.63.53-.313-.148-.097-.49.02-.74.693-1.53 1.518-2.98 2.547-4.308.166-.216.33-.493.674-.328.088.043.13.184.208.302zM182.24 92.114c-.28-.546.013-.783.273-1.018 1.21-1.09 2.42-2.183 3.643-3.26.25-.22.586-.624.902-.24.294.357-.223.518-.422.695-1.44 1.28-2.906 2.535-4.395 3.824zM207.986 117.09l1.46-4.62c.068-.214.234-.352.442-.316.212.036.348.245.302.45-.362 1.647-.8 3.263-1.785 4.646l-.42-.16zM185.705 102.56c-.038.056-.088.164-.167.246-1.205 1.248-2.04 2.74-2.83 4.265-.113.222-.17.632-.547.43-.236-.126-.12-.44-.025-.656.722-1.645 1.792-3.07 2.85-4.504.12-.16.288-.29.514-.208.166.06.23.197.205.427zM215.08 118.12l1.99-6.05c.635 1.134-.45 4.7-1.99 6.05zM188.83 106.24c-.103.17-.166.313-.267.425-1.08 1.195-1.84 2.6-2.637 3.982-.135.232-.273.61-.59.453-.294-.146-.162-.472 0-.73.825-1.316 1.634-2.643 2.466-3.954.143-.227.318-.5.64-.47.128.013.24.176.39.294zM210.504 117.73c-.186-.827.3-1.52.48-2.257.255-1.04.616-2.05.94-3.07.058-.185.148-.41.376-.385.106.013.294.242.27.318-.56 1.797-.804 3.7-1.788 5.354-.024.042-.148.025-.278.04zM196.897 102.644c.174.583-.023.888-.408 1.213-1.21 1.025-2.677 1.76-3.573 3.142-.117.18-.317.265-.513.13-.29-.2-.112-.424.034-.602.793-.96 1.776-1.715 2.737-2.492l1.722-1.392zM187.265 104.704c-1.34 1.28-2.133 2.88-3.037 4.406-.04.068-.254.118-.317.074-.177-.125-.2-.33-.11-.527.697-1.52 1.71-2.845 2.65-4.214.124-.182.337-.24.524-.138.114.062.172.228.29.4zM213.035 118.056c-.38-1.087.056-1.62.266-2.2.365-1.006.664-2.028.82-3.09.04-.276.18-.572.517-.517.122.02.316.337.28.46-.512 1.705-.978 3.432-1.882 5.346zM230.737 77.424c-.953-1.017-1.87-1.985-2.77-2.966-.156-.17-.338-.41-.153-.632.1-.122.362-.205.52-.17.854.194 2.473 2.696 2.403 3.768zM187.308 112.524c-.282-.12-.248-.377-.136-.58.726-1.318 1.408-2.665 2.305-3.883.158-.213.368-.33.612-.18.254.16.253.44.063.614-1.12 1.023-1.607 2.446-2.37 3.693-.1.165-.202.355-.475.337zM206.578 114.35c.75-.52.59-1.604 1.49-2.384-.03 1.976-.904 3.385-1.602 4.847-.07.15-.26.24-.394.117-.093-.085-.135-.276-.124-.414.028-.337.382-.616.18-.998l-.024.037c.428.01.253-.302.27-.51l-.018.033c.308-.177.397-.427.25-.755l-.028.028zM191.467 109.71c-.82 1.453-1.61 2.86-2.416 4.262-.026.047-.228.047-.304 0-.155-.1-.15-.28-.07-.426.703-1.287 1.412-2.57 2.124-3.853.107-.193.297-.277.503-.193.09.035.135.17.164.21zM227.187 80.642c-.965-1.084-1.82-2.046-2.678-3.005-.15-.166-.217-.345-.064-.522.136-.16.306-.186.527-.1.85.323 2.23 2.417 2.214 3.627zM195.508 102.595c-1.338 1.086-2.498 1.922-3.33 3.1-.114.16-.292.305-.504.183-.194-.112-.265-.332-.11-.505.917-1.034 1.835-2.075 3.06-2.767.147-.085.385-.01.884-.01zM225.192 81.7c-.685-.757-1.37-1.512-2.053-2.27-.17-.19-.274-.42-.105-.648.175-.235.43-.215.632-.043.887.747 1.57 1.623 1.818 2.757l-.293.202zM223.54 83.392c-.79-1.025-1.4-1.796-1.983-2.588-.113-.155-.44-.313-.184-.58.23-.235.52-.22.752-.002.818.77 1.605 1.564 1.416 3.17zM222.438 84.268c.045.186-.062.28-.2.375-.16.11-.32.087-.426-.023-.654-.68-1.352-1.33-1.733-2.218-.05-.112-.007-.352.078-.41.1-.07.3-.034.44.006.258.074 1.82 2.03 1.84 2.27zM203.043 115.486c-.32-.085-.365-.378-.252-.564.51-.843.69-1.772.847-2.72.026-.157.134-.322.324-.267.135.04.286.146.352.266.236.43-.613 2.94-1.06 3.185-.067.037-.138.067-.21.1zM194.135 112.454c.015.273-.092.422-.252.56-.648.56-1.077 1.257-1.323 2.08-.06.2-.154.515-.48.37-.243-.11-.282-.354-.21-.61.29-1.028.98-1.805 1.67-2.567.23-.256.503-.136.595.167zM187.066 89.662c-.904 1.13-2.024 1.95-3.42 2.373.964-1.043 1.852-2.197 3.42-2.373zM220.453 86.74c-.95-.89-1.25-1.896-2.033-2.51-.16-.126-.06-.383.13-.506.23-.15.46-.09.66.077.81.683 1.153 1.577 1.243 2.94zM226.06 75.522c.895-.196 2.59 1.494 2.558 2.83l-2.56-2.83zM218.808 87.387c-.053.076-.104.194-.192.263-.224.176-.367-.02-.48-.16-.423-.525-.828-1.064-1.24-1.597-.132-.17-.21-.36.004-.503.12-.08.293-.122.436-.107.284.028 1.503 1.776 1.472 2.104zM193.53 116.302c-.274-.092-.42-.27-.258-.54.372-.614.762-1.218 1.167-1.81.11-.162.325-.276.52-.134.107.08.238.316.198.38-.448.696-.925 1.375-1.404 2.052-.034.047-.148.037-.225.052zM217.497 89.058c-.95-.005-1.883-.816-1.963-1.656-.053-.548.227-.523.562-.33.765.442 1.1 1.195 1.4 1.986zM201.265 114.246c.022-.13.02-.298.082-.437.247-.552.11-1.308.833-1.593.044-.018.275.22.272.334-.024.793-.233 1.54-.72 2.18-.06.085-.31.117-.41.063-.217-.116-.127-.334-.057-.547zM193.407 102.21c-.62.71-1.4 1.21-1.815 2.03-.096.19-.302.293-.494.186-.1-.057-.18-.26-.17-.387.058-.627 1.702-1.872 2.48-1.83zM215.452 91.147c-.816-.46-1.165-1.215-1.634-1.854-.11-.152-.113-.395.063-.538.207-.168.485-.158.642.024.554.643 1.132 1.295.93 2.367zM186.865 127.003c.045-.108.12-.22.234-.123.043.037-.015.194-.025.297l-.21-.174zM163.37 123.487c-.11-.03-.234-.07-.146-.212.016-.024.185.045.283.07-.044.05-.09.096-.137.142zM221.3 42.984c.493.423.81-.06 1.147-.256.858-.503 1.687-1.06 2.53-1.588.386-.243.8-.336 1.493-.133-1.553 1.447-3.776 1.83-4.82 3.662l-.206.273c-.132.044-.187.142-.112.25.02.03.176-.035.27-.057l.227-.2c1.105-.698 2.187-1.438 3.33-2.072.404-.226 1.07-.828 1.38-.236.3.572-.578.698-.977.943-.81.5-1.668.913-2.493 1.385-.45.256-.938.527-.568 1.188l-.054-.204-.108.057c.056.047.11.095.167.142 1.247-.776 2.358-1.86 3.906-1.953l.18.345c-1.312.783-2.632 1.553-3.93 2.358-.27.167-.885.265-.66.67.264.476.685.035 1.01-.156.616-.365 1.213-.77 1.85-1.098.498-.256 1.226-1.027 1.526-.452.364.696-.716.844-1.202 1.118-1.188.672-2.342 1.358-3.2 2.476.55.212.792-.237 1.148-.456.882-.54 1.774-1.068 2.696-1.537.248-.126.62-.612.896-.115.284.51-.122.783-.558.98-.723.332-1.444.668-2.157 1.022-.665.33-1.182.808-1.462 1.637 1.522-.11 2.27-1.955 4.115-1.752-.863.923-1.96 1.124-2.606 1.917l-.37.218c.18.16.364.08.548.01.708-.313 1.314-.88 2.25-.878-.195.73-.86.805-1.53 1.21h1.748c-1.313.986-2.796 1.62-3.972 2.717l-.78.562c.548.14.815-.04 1.027-.348 1.887-1.193 3.735-2.488 6.085-2.57.85-.03 1.732-.158 2.836.616-2.506-.013-4.644.173-6.703 1.23.495.37.945-.003 1.36.233-.317.995-1.567.926-2.043 1.846.925.122 1.505-1.02 2.56-.488l-1.483 1.327-.65.485-.284.33c.21.147.36.054.494-.118.3-.07.532-.243.724-.478.538-.242 1.082-.447 1.844-.207-.704.704-1.542 1.054-2.303 1.503.032.073.058.146.083.218.028-.015.08-.027.082-.045.02-.15-.08-.174-.198-.17.577.465.98-.09 1.444-.256.296-.105.654-.335.847 0 .192.338-.148.574-.435.728-.3.162-.7.188-.773.606.136.187.284.173.438.11.265-.11.58-.24.724.096.132.312-.234.45-.414.63-.19.188-.432.325-.65.484.05.062.094.124.14.187l.07-.11c-.072-.022-.144-.046-.216-.07.546.47.91-.26 1.39-.21.18.02.44-.075.476.203.017.125-.075.35-.176.392-1.618.678-2.707 2.03-4.103 3.356l.133-1.036c-2.066-.88-4.03-1.724-5.834-2.985-.704.75-.768 2.007-1.73 2.693-.395-.455-.06-.78.1-1.106.702-1.44 1.597-2.753 2.61-3.992.177-.215.64-.492.31-.766-.37-.307-.615.173-.813.434-.344.455-.55 1.048-1.327 1.166.004-1.107.928-1.594 1.337-2.364-.023-.063-.042-.124-.06-.184l-.063.077c.055.04.11.077.165.116-.274-.416-.485-.087-.637.092-.333.392-.63.814-.923 1.238-.203.294-.4.733-.797.487-.34-.21.018-.583.127-.84.184-.433.463-.825.702-1.233.12-.14.243-.28.364-.422.057-.093.308-.135.132-.28-.1-.083-.275-.007-.295.185-.126.1-.252.197-.38.296l-1.613 2.177c-.317-.637-.243-1.13-.01-1.63l.15-.296.318-.38.545-.79c.078-.03.128-.088.152-.168.078-.11.208-.218.054-.35-.017-.016-.14.09-.216.14l-.23.252c-.27.165-.422.41-.485.717-.116.13-.23.262-.346.394-.056.097-.11.194-.167.29l-.786 1.02c-.543-.24-.134-.817-.438-1.122-.413.06-.526.953-.985.548-.403-.355-.135-.96.176-1.407.246-.355.483-.715.724-1.073.312-.266.573-.572.718-.963.168-.104.318-.29.17-.43-.216-.21-.26.11-.373.21l-.72.903c-.597.546-1.02 1.208-1.35 1.945-.105.235-.298.55-.627.384-.327-.164-.403-.51-.21-.822.46-.74.95-1.46 1.43-2.188.107-.077.294-.128.173-.31-.114-.172-.233-.07-.333.042-.762.608-1.22 1.454-1.774 2.226-.166.23-.192.853-.7.5-.353-.246-.166-.666.044-.966.468-.667.964-1.316 1.37-2.045-1.326.39-1.424 2.37-3.088 2.38.224-1.064 1.015-1.734 1.368-2.685-1.05.508-1.454 1.66-2.23 2.433-.576-.375-.426-.81-.203-1.254.636-.75 1.38-1.425 1.68-2.42-.867.552-1.495 1.31-1.957 2.215-.118.148-.25.286-.35.444-.16.252-.24.578-.676.37-.468-.226-.343-.518-.16-.843l.59-.813c.11-.114.217-.23.326-.342.21-.286.423-.572.634-.857.11-.114.217-.23.326-.342.21-.286.422-.572.634-.858l.326-.342c.148-.203.51-.413.233-.654-.158-.138-.364.174-.44.4-.104.116-.208.233-.31.35l-.65.85c-.104.118-.208.235-.31.353l-.64.857-.32.35-.63.86c-.33.16-.467.735-.936.542-.44-.18-.146-.6-.153-.917l.32-.37c.98-1.29 1.96-2.577 2.94-3.865l-.327-.24c-.986 1.254-1.984 2.5-2.823 3.87-.103.12-.206.24-.31.358-.157.18-.302.373-.476.535-.194.183-.452.21-.655.05-.28-.22-.018-.436.088-.616.958-1.622 2.17-3.053 3.366-4.5.183-.222.485-.39.465-.974-1.953 1.786-3.276 3.887-4.766 5.94-.44-.628.023-.98.025-1.382.095-.09.304-.156.148-.327-.15-.164-.247.005-.335.115-.447.292-.57 1.398-1.23.903-.547-.408.293-.96.56-1.408.65-1.086 1.396-2.115 2.066-3.19.188-.303.598-.582.32-1.043-.002 0 .027.03.027.03l.01-.047c-1.234 1.326-2.017 2.958-3.02 4.44-.18.264-.348.534-.537.79-.155.21-.42.332-.627.215-.257-.146-.112-.432-.017-.64.713-1.564 1.647-3 2.6-4.426.26-.39.638-.72.7-1.224l.33-.126-.013-.056.013.066c-.155-.17-.295-.174-.417.034-1.443 1.272-2.142 3.05-3.135 4.626-.402.638-.785 1.288-1.213 1.992-.646-.562-.23-1.025.024-1.473 3.033-5.38 6.723-10.273 10.93-14.793 4.088-4.392 8.738-8.053 13.972-10.978 1.067-.597 2.154-1.157 3.402-1.45-.17.958-.162.98-1 1.276-1.82.644-3.427 1.685-5.05 2.692-.255.157-.578.287-.616.738.588.213.94-.303 1.353-.482 1.422-.622 2.795-1.355 4.208-1.997.352-.158.903-.575 1.156-.03.302.654-.46.59-.788.75-1.787.862-3.595 1.687-5.503 2.575.74.522 1.286.617 2.022.1.872-.614 1.876-1.046 2.84-1.52.373-.182.96-.505 1.167-.053.26.563-.45.64-.812.79-1.698.718-3.306 1.588-4.768 2.712-.196.15-.52.28-.35.744 1.03-.15 1.826-.846 2.733-1.272.685-.322 1.35-.684 2.023-1.03.312-.16.655-.242.818.137.16.374-.258.438-.468.548-1.203.624-2.438 1.184-3.626 1.834-.897.492-1.723 1.105-2.388 2.19 1.125-.193 1.805-.825 2.583-1.235.81-.43 1.595-.906 2.393-1.357.422-.238.848-.507 1.354 0-1.774 1.49-4.142 2.092-5.755 3.853 2.08-.188 3.486-2.09 5.608-2.206-1.636 1.78-4.223 2.193-5.915 4.016.595.424 1.002.137 1.4-.073 1.13-.594 2.24-1.22 3.378-1.795.337-.17.856-.402 1.06.044.187.416-.37.525-.66.68-.735.398-1.472.804-2.242 1.123-1.105.458-2.008 1.105-2.48 2.245-.06.11-.334.158-.16.324.112.107.297.04.354-.156 1.408-.813 2.805-1.646 4.233-2.42.278-.152.758-.57.998-.017.188.433-.336.557-.632.72-1.043.575-2.1 1.126-3.143 1.704-.403.223-.846.422-1.033 1.022.895-.03 1.504-.575 2.19-.917.39-.196.758-.442 1.156-.616.397-.172.913-.74 1.222-.153.254.482-.454.674-.804.83-1.57.695-3.03 1.535-4.146 2.878l.165.154c.004-.02.016-.05.01-.054-.058-.037-.118-.07-.176-.104zm-11.22 7.923l.235-.286c.07-.106.282-.19.067-.338-.023-.016-.147.113-.224.175l-.245.236c-.108.076-.333.11-.18.305.136.172.254.03.347-.09zm3.593 1.94c.093-.133.337-.23.103-.44h.18l-.046-.156-.104.176c-.165-.02-.238.068-.263.217-.15.058-.31.123-.147.31.022.026.18-.067.277-.105zm-1.432-.26l.2-.33c.115-.084.238-.173.068-.307-.017-.013-.137.106-.21.164l-.234.248c-.104.083-.327.127-.172.317.138.17.254.03.35-.093zm-8.795-2.124c-.24.216-.5.422-.473.83.51-.008.516-.42.68-.682-.003-.098.034-.25-.014-.284-.118-.084-.164.036-.193.137zm7.573.83c-.286.39-.764.65-.927 1.324.692-.21.9-.667 1.14-1.09.233-.186.438-.387.44-1.008l-.652.774zM250.343 90.157c-.19-.45.083-.643.22-.854 5.72-8.726 9.11-18.39 11.474-28.466.055-.233.098-.47.18-.694.126-.35-.02-1.053.438-.966.622.117.354.793.253 1.223-2.32 9.91-5.53 19.473-11.067 28.115-.388.605-.563 1.438-1.497 1.642zM232.748 60.815c-.027-.96-1.32-.957-1.425-1.91h1.195c.173-.628-1.74-1.197-.008-1.713-.16-.515-1.514-.933-.016-1.437.283-.096-.02-.59-.29-.75-.488-.28-.402-.6-.147-.967.4-.58.685-.05.96.132 2.272 1.51 2.55 3.91 2.74 6.317.08 1.046.11 2.123-.463 3.374-.31-1.21.146-2.236-.24-3.25-.5.856.228 1.884-.496 2.637-.34-.335-.03-.79-.26-1.146-.56.192-.122.816-.503 1.112-.686-.658 0-1.944-1.072-2.42l.025.023z"/><path d="M249.852 87.442c-.215-.606.138-.987.372-1.38 4.146-6.98 6.62-14.625 8.916-22.34.34-1.14.565-2.313.832-3.474.058-.254-.058-.636.36-.615.46.022.45.44.382.728-.248 1.047-.553 2.08-.828 3.118-2.145 8.07-4.952 15.877-9.212 23.105-.16.27-.333.537-.517.793-.033.045-.145.034-.305.066zM247.18 83.584c1.752-3.76 3.364-7.48 4.794-11.277 1.413-3.756 2.607-7.582 3.638-11.568.646.47.395.962.293 1.426-1.055 4.846-2.89 9.432-4.72 14.015-.883 2.216-1.922 4.37-2.903 6.546-.188.416-.312.94-1.1.858z"/><path d="M249.33 84.52c-.24-.308-.2-.527-.075-.753 3.97-7.232 6.342-15.082 8.69-23.235.893 2.093-6.304 21.554-8.616 23.987zM246.292 80.67c2.37-6.228 5.463-12.202 6.735-18.87.757.237.576.73.463 1.252-1.004 4.583-2.76 8.896-4.73 13.13-.715 1.534-1.295 3.14-2.468 4.487zM250.746 62.53c.59 2.463-4.993 16.226-6.812 16.793 2.792-5.476 5.128-10.997 6.812-16.792zM242.864 77.32c2.473-4.236 3.68-8.985 5.557-13.45-.146 3.717-3.88 12.794-5.556 13.45zM246.63 64.443c-1.284 4.008-2.862 7.892-5.022 11.53l-.373-.158 4.93-11.568.464.196zM241.546 64.71c.46.654.315 1.06.204 1.48-.572 2.162-1.533 4.165-2.49 6.168-.146.307-.324.777-.725.606-.4-.17-.056-.574.044-.83.95-2.42 1.927-4.835 2.966-7.424zM239.564 74.718c-.23-.206-.195-.383-.09-.574 1.615-2.882 2.986-5.875 4.097-8.987.095-.265.194-.6.556-.447.246.105.185.42.11.642-1.093 3.21-2.72 6.17-4.325 9.14-.06.11-.238.158-.346.226zM239.545 65.02c.557 1.08-2.04 7.225-3.304 7.8 1.125-2.652 2.196-5.18 3.305-7.8zM237.86 64.946c.46 1.104-1.266 5.306-2.545 6.18l2.545-6.18z"/></g><g><path d="M140.194 97.117l126.078-38.332 12.725 41.854-126.078 38.33z"/><g fill="#FFF"><path d="M171.178 107.983c-.177-.074-.347-.273-.508-.596-.162-.322-.312-.54-.447-.652-.11-.196-.273-.39-.485-.584-.212-.188-.425-.343-.64-.458-.1.006-.357 0-.773-.016-.413-.014-.873.01-1.38.074-.506.063-.972.154-1.397.27-.426.117-.723.24-.89.366-.158.15-.395.427-.708.83-.313.403-.59.91-.826 1.52-.238.61-.39 1.31-.46 2.1-.066.79.057 1.66.372 2.616.662 1.927 1.686 3.357 3.072 4.295 1.386.938 2.62 1.332 3.702 1.183.52-.056.99-.256 1.413-.6.42-.347.766-.708 1.035-1.085.27-.376.473-.744.606-1.106.134-.36.226-.626.276-.796-.012-.124-.023-.332-.035-.624-.01-.29-.03-.592-.062-.902-.03-.312-.067-.602-.11-.87-.043-.27-.037-.44.02-.506-.024-.25.057-.446.242-.593.188-.147.386-.252.597-.315.164-.05.37.08.618.387.247.31.412.646.496 1.004-.014.21.022.582.11 1.12.085.538.1 1.155.042 1.85-.06.698-.234 1.386-.528 2.063-.293.678-.765 1.257-1.414 1.735-1.413.916-2.865 1.26-4.356 1.033-1.49-.227-2.91-.994-4.254-2.303-1.36-1.277-2.28-2.78-2.752-4.508-.473-1.727-.662-3.45-.568-5.17.062-.89.285-1.655.667-2.297.382-.64.782-1.16 1.2-1.556s.804-.687 1.158-.87c.355-.184.603-.3.743-.34.188-.06.446-.175.777-.352.33-.178.563-.338.7-.48.142-.12.23-.143.27-.064.036.08.17.12.403.128.09.05.36.173.804.37.444.2.952.437 1.522.71.57.277 1.1.564 1.587.864.488.3.842.56 1.06.774.332.41.487.884.47 1.414-.02.53-.06.858-.126.98-.025.084-.168.16-.43.226-.26.07-.532-.023-.812-.27zm-7.33 2.954c-.032-.783.052-1.456.253-2.018.202-.562.43-1.014.685-1.36.253-.346.484-.576.693-.69.208-.114.343-.155.404-.123-.43.36-.813.823-1.154 1.387-.26.413-.462.948-.608 1.607-.146.66-.117 1.407.085 2.244.404 1.67.877 2.87 1.42 3.604.543.732.8 1.053.772.958-.007-.022-.146-.187-.417-.488-.27-.302-.56-.683-.865-1.14-.307-.46-.6-1.03-.885-1.712-.284-.684-.41-1.44-.382-2.27zm9.053-2.592c.095-.028.175-.104.24-.227.08-.076.2-.316.357-.724.054-.246-.06-.655-.333-1.226-.275-.568-.862-1.32-1.76-2.252-.46-.422-1.007-.783-1.635-1.08-.63-.295-1.22-.514-1.774-.652-.71-.143-1.41-.252-2.098-.326.21-.063.425-.076.64-.04.163.028.362.05.6.07.235.017.46.044.677.08.487.083 1.135.317 1.94.7.81.383 1.588.92 2.338 1.617.694.686 1.15 1.386 1.368 2.102.218.716.314 1.205.292 1.47.01.2-.125.344-.407.43-.164.05-.31.07-.444.058zm2.393 3.578c.152.416.284.85.396 1.303.05.42.11.92.186 1.5.073.58.023 1.217-.15 1.91-.123.78-.367 1.45-.735 2.01-.367.56-.785 1.04-1.254 1.438-.518.49-1.077.93-1.676 1.315.346-.21.715-.474 1.103-.797.288-.317.617-.693.985-1.125.368-.433.704-.95 1.008-1.555.357-.596.554-1.257.59-1.985s.014-1.39-.063-1.98c-.067-.723-.196-1.4-.39-2.035zM180.676 98.375c.08-.075.406-.2.98-.375l1.497-.454c.188-.057.544-.17 1.068-.344.525-.17 1.04-.333 1.544-.486.505-.153.984-.305 1.438-.456.453-.15.705-.272.754-.364.166-.126.23-.167.195-.117-.036.05.055.093.27.13.243-.05.522-.038.838.033.316.07.704.228 1.163.474.49.184 1.03.546 1.617 1.084.587.54 1.04 1.3 1.363 2.278.204.502.235 1.05.095 1.644s-.322 1.174-.547 1.742c-.226.568-.47 1.025-.735 1.376-.267.35-.4.562-.4.64-.074.1-.087.16-.04.187.045.023.09.106.132.247.057.19.515.855 1.376 2.004.226.316.517.62.873.908s.72.576 1.088.86c.37.287.697.546.986.778.287.233.473.4.556.504.2.324.3.606.297.852-.003.245-.196.54-.578.886-.175.182-.408.194-.698.04s-.596-.377-.913-.666c-.317-.287-.62-.61-.91-.973-.288-.36-.537-.676-.747-.945-.203-.246-.484-.583-.845-1.012s-.73-.867-1.11-1.315c-.38-.45-.737-.847-1.073-1.193-.336-.346-.6-.542-.793-.585-.4-.06-.73.028-.98.258s-.544.42-.88.574c-.255.18-.692.364-1.313.552-.623.19-.993.34-1.113.453-.104.16-.093.413.038.756.13.347.254.63.373.85.035.118.08.31.135.574.055.266.118.56.19.884.073.324.135.632.185.925.05.292.098.51.14.65.058.187.234.452.53.798.3.348.478.664.54.952.045.32-.033.632-.235.937-.202.305-.454.465-.758.478-.31-.008-.47-.024-.476-.048s-.14-.162-.397-.417c-.15-.16-.316-.493-.496-1.004-.18-.51-.356-1.046-.527-1.61-.17-.56-.32-1.093-.445-1.592-.126-.5-.207-.81-.242-.928-.043-.14-.2-.662-.476-1.566-.273-.902-.583-1.88-.927-2.926-.344-1.05-.656-2.038-.938-2.965s-.446-1.472-.496-1.637c-.107-.352-.2-.785-.28-1.3s-.042-.856.11-1.03zm7.532-.133c-.228.095-.388.162-.478.202s-.156.12-.198.233c-.143.12-.472.24-.987.357-.515.12-.866.205-1.054.263-.21.063-.422.148-.635.25-.213.103-.412.184-.6.24-.234.07-.387.138-.46.196-.07.062-.203.07-.395.024-.418-.026-.664.048-.738.224-.012.134.02.33.1.587.008.023.055.137.143.34.088.204.184.438.29.7.103.263.212.512.322.75.11.235.183.41.218.528.094.228.17.37.227.43.058.06.06.176.008.344-.034.14-.053.374-.053.708-.002.334.06.533.182.598.135.113.366.03.69-.248.326-.278.513-.426.56-.44.07-.02.225-.04.462-.06.236-.022.515-.055.834-.1.32-.046.66-.086 1.02-.118.362-.033.66-.086.896-.156.547-.14 1.05-.324 1.504-.553.456-.226.794-.528 1.015-.9.243-.384.414-.832.514-1.35.1-.517.038-.972-.184-1.366-.176-.407-.4-.77-.675-1.082-.274-.314-.577-.51-.91-.59-.61-.15-1.148-.152-1.617-.01zm-4.487 2.822c-.013-.047.056-.093.21-.14.15-.047.328-.074.53-.084l.817-.095-.492.15c-.33.1-.557.193-.684.282-.128.168-.067.367.183.598.097.15.213.282.35.395l-.092-.05c-.182-.097-.287-.194-.315-.286-.036-.12-.146-.246-.328-.383s-.24-.263-.176-.386zm.927 1.91l.308.253c.1.072.265.112.497.118.232.007.453.017.662.03.287.015.586-.012.898-.08l-1.897.46-.554-.178c-.013-.047-.022-.12-.028-.223.05-.17.056-.324.014-.465l.1.084zm1.24 5.734c-.035-.117-.097-.297-.184-.54-.086-.24-.024-.356.185-.344.263.023.525.065.788.127.262.063.52.054.78-.024.188-.058.4-.007.642.15.24.16.246.285.02.378-.182.082-.473.093-.875.035l-.37-.08c-.02.187 0 .384.065.595.057.188.11.408.163.66.052.256.147.528.287.818.1.328.182.727.246 1.192l.195 1.403c.064.467.098.893.1 1.276s-.025.66-.076.83c-.084.23-.367.265-.852.103-.215-.113-.443-.235-.688-.367.084.026.23.046.44.06.255-.002.454-.023.595-.066s.207-.076.2-.1.05-.168.175-.437c.107-.237.142-.44.104-.607-.038-.17-.122-.425-.252-.77-.05-.163-.166-.462-.35-.895-.182-.43-.366-.894-.555-1.388-.19-.494-.36-.934-.518-1.323-.153-.385-.243-.616-.265-.686zm2.508-13.905c1.227.243 2.192.514 2.898.813.705.298 1.254.65 1.646 1.056.392.407.68.85.864 1.333.185.48.4 1.006.65 1.57.193.557.274 1.14.242 1.752-.03.612-.13 1.173-.296 1.686-.165.51-.332.952-.5 1.324-.17.37-.256.596-.258.674.013.125.143.388.392.785.25.4.558.823.925 1.275.357.507.797 1.065 1.315 1.676-.62-.605-1.17-1.155-1.653-1.65-.462-.423-.852-.817-1.167-1.183s-.487-.595-.517-.69c-.027-.093.07-.34.294-.74.225-.402.506-.846.845-1.334.348-.543.424-1.39.227-2.548s-.562-2.232-1.094-3.224c-.28-.504-.68-.915-1.2-1.23-.52-.317-1.055-.584-1.606-.802-.623-.194-1.293-.376-2.01-.543zm8.764 17.866c.05-.093.103-.148.16-.167.06-.018.177-.116.353-.297.09-.13.138-.285.146-.47.007-.18.007-.372-.003-.573l-.095-.818c.06.11.114.25.163.412.094.306.104.635.032.99-.098.438-.25.736-.46.89-.21.152-.31.163-.298.032zM206.605 109.726c-.225.018-.368-.158-.427-.523-.06-.366-.062-.795-.006-1.286.055-.49.138-.958.247-1.4.107-.444.174-.796.196-1.06.11-.393.17-.808.18-1.246.007-.437-.005-.753-.038-.948 0-.256-.036-.54-.105-.853-.068-.313-.087-.923-.055-1.83.034-.983.14-1.95.312-2.9.173-.95.23-1.517.175-1.706-.05-.163-.088-.35-.113-.562-.025-.21-.023-.435.007-.674.014-.286.062-.55.143-.794.08-.24.1-.434.057-.574-.05-.164-.154-.338-.312-.52s-.268-.42-.33-.708c.005-.155.03-.348.074-.58.045-.23.11-.457.2-.675.087-.22.194-.41.323-.58.128-.166.28-.212.457-.138.184.097.36.274.526.53.168.258.333.528.496.81.163.285.3.564.407.838.11.274.218.46.324.556.09.126.307.4.652.82.345.42.728.88 1.15 1.38.42.5.844 1.013 1.27 1.537.43.524.762.968 1 1.332.248.31.597.76 1.046 1.354s.917 1.184 1.4 1.767.924 1.122 1.317 1.617.646.804.76.923c.21.27.51.493.896.67.387.178.567.438.543.777.065.39.044.678-.065.865-.11.187-.414.305-.91.354-.46.087-.818-.035-1.073-.367-.254-.333-.452-.606-.595-.82-.035-.117-.14-.276-.318-.48-.178-.2-.35-.387-.515-.554-.167-.168-.345-.333-.534-.492s-.3-.25-.33-.265c-.145-.06-.324.047-.537.316-.213.27-.438.516-.678.743-.23.25-.528.39-.89.422-.362.035-.93.168-1.704.402-.75.23-1.27.457-1.56.686-.29.23-.562.382-.82.46-.282.086-.508.04-.678-.14-.17-.18-.353-.213-.55-.104-.173.104-.204.235-.092.394s.17.364.17.62c.032.196.05.53.054 1.003.002.475-.047.88-.15 1.218-.087.386-.236.546-.45.48-.21-.06-.394-.095-.55-.1zm6.543-9.98l-.907-1.09c-.483-.583-1.006-1.187-1.567-1.812-.56-.624-1.067-1.175-1.52-1.652-.452-.478-.733-.726-.84-.745-.233-.006-.353.068-.356.223-.004.156-.053.375-.146.66-.083.23-.182.453-.296.667-.115.214-.133.323-.056.324.14.036.284.075.438.118s.246.112.274.206c.007.023 0 .25-.024.68-.023.43-.06.927-.104 1.492-.047.566-.085 1.115-.115 1.65-.03.534-.036.914-.02 1.14.018.225-.007.482-.073.77-.065.29-.137.56-.213.815-.077.255-.123.48-.14.678-.018.196.024.293.125.287.186.02.366.023.54.01.176-.016.473-.175.893-.48.403-.277.694-.5.873-.67.18-.17.33-.222.453-.156.294.038.793-.05 1.497-.263.164-.05.392-.08.683-.092.29-.012.567-.03.828-.06.262-.027.47-.078.628-.15.156-.074.226-.185.207-.333-.007-.357-.102-.732-.284-1.125s-.44-.756-.772-1.092zm-4.292 7.645c.176.408.162.912-.04 1.51-.084.233-.24.522-.466.873-.02-.07-.008-.15.04-.243-.005-.1.02-.19.072-.27.053-.08.115-.17.188-.27.074-.176.134-.488.177-.937-.003-.18.006-.4.03-.662zm.102-5.873c-.02-.403-.023-.838-.012-1.304-.035-.372-.037-.737-.004-1.093.032-.356.093-.6.183-.73 0 .257.018.48.05.678.063.288.052.548-.03.777.003.103-.004.245-.024.43-.02.187-.048.388-.085.603l-.077.64zm.06 5.517c.675-.31 1.35-.576 2.022-.807.55-.218 1.08-.41 1.593-.58.512-.168.92-.26 1.223-.274l-4.84 1.66zm9.693-4.788c-.1.006-.28-.17-.543-.524-.263-.357-.602-.8-1.017-1.326l-1.435-1.813s-1.114-1.39-1.722-2.13c-1.298-1.656-2.767-3.543-4.408-5.658 1.848 2.207 3.474 4.187 4.877 5.94l1.72 2.186c.563.715 1.04 1.32 1.435 1.814.395.495.7.89.916 1.184.218.292.278.4.178.328zm-9.078-.28l.28-.086c.165-.05.3-.115.402-.198.15-.097.3-.065.45.094.15.16.275.313.372.464l-1.504-.274zM234.127 87.69c-.072.1-.155.165-.25.193-.258.078-.494.06-.707-.055-.292-.115-.455-.27-.487-.466-.034-.194-.126-.372-.276-.53-.19-.2-.496-.428-.918-.684-.425-.255-.826-.415-1.204-.48-.346-.125-.858-.06-1.536.196-.678.258-1.202.494-1.572.708-.204.09-.447.26-.73.51s-.544.525-.788.816c-.245.292-.45.585-.618.88-.167.294-.21.57-.133.828.148.492.476.854.982 1.085.505.23.836.35.99.354.25-.023.35-.03.303-.015s.17.05.648.11c.463.09 1.02.087 1.67-.008.65-.094 1.158-.133 1.52-.115.467.012.897-.042 1.298-.163.202-.01.425-.077.67-.203-.032-.015-.05-.035-.058-.06-.043-.14-.063-.25-.06-.326.078-.075.253-.07.52.014.272.085.62.242 1.047.47.38.244.888.603 1.52 1.077.63.475 1.112 1.136 1.445 1.983.35.816.418 1.692.202 2.63-.215.936-.546 1.767-.993 2.49-.25.36-.614.72-1.094 1.083-.48.363-1.02.67-1.624.917-.604.247-1.244.44-1.92.582-.674.14-1.31.16-1.902.058-.61-.07-1.185-.23-1.72-.478s-1.05-.56-1.535-.938c-.487-.377-.886-.78-1.195-1.213-.31-.43-.52-.823-.625-1.176-.114-.375-.12-.667-.017-.88.103-.21.21-.383.32-.52.19-.133.402-.197.635-.192-.007-.022-.03-.054-.066-.094-.123-.065-.18-.164-.167-.295-.05-.165.028-.33.234-.494.11-.06.204-.127.284-.203.014.047.023.12.028.22-.05.17-.052.337-.002.502.033.194.104.34.21.435.105.096.228.16.367.197.074.08.172.108.293.083.12-.022.265.068.43.274.15.16.18.32.092.49-.09.167-.107.346-.05.533.063.212.184.374.358.486.176.113.488.32.938.618.245.132.465.263.658.396.195.134.413.22.656.263.243.04.55.037.92-.01.37-.05.836-.158 1.4-.33 1.148-.348 1.97-.89 2.463-1.63.492-.74.762-1.334.805-1.783.09-.46-.05-1.004-.415-1.622-.368-.62-.79-1.035-1.263-1.25-.262-.1-.636-.147-1.12-.14-.485.005-1.02.04-1.603.1-.585.063-1.152.133-1.705.21-.554.08-1.016.137-1.39.172-.356.006-.764.014-1.223.025-.457.01-.914-.1-1.37-.335-.454-.233-.896-.592-1.325-1.077-.43-.485-.79-1.208-1.082-2.17-.27-.893-.224-1.733.14-2.522.362-.788.873-1.47 1.532-2.04.66-.572 1.39-1.032 2.196-1.378.804-.346 1.468-.547 1.988-.604.592-.078 1.146-.027 1.66.15.516.177 1.002.387 1.46.632.46.245.866.507 1.22.783.352.277.58.502.685.676.3.396.424.825.372 1.29-.05.465-.19.784-.42.955zm-2.686 1.663c-.31.07-.644.156-.995.263l-.81.246c-.26.08-.44.108-.55.09-.14.043-.348.1-.62.17-.274.07-.56.12-.86.145-.3.027-.592.013-.877-.04-.285-.055-.515-.196-.687-.427-.3-.396-.314-.827-.045-1.292.268-.466.586-.768.955-.905.164-.05.377-.108.64-.175.26-.065.49-.116.685-.15.28-.007.54-.036.78-.084l-1.407.427c-.352.108-.647.32-.884.635-.237.316-.2.604.11.87.106.096.313.168.622.214.31.047.644.053 1.006.02l.992-.088c.3-.027.483-.05.554-.072.28-.008.566.007.86.046l.533.107zm-3.23 5.438c.062.033.188.046.377.04.19-.006.37-.023.543-.05.192.046.4.06.627.04l-.704.214c-.188.057-.355.096-.503.115-.148.02-.28.046-.398.082l-.264.08s-.245.06-.345.065c-.186-.02-.33-.027-.43-.022.077.002.16.066.25.19.205.17.383.334.533.493.143.214.344.5.605.854.263.358.467.564.612.622.17.052.366.088.59.11.225.02.423.02.594-.007.102-.005.234-.033.398-.083l.492-.15c.188-.056.398-.082.63-.075l-1.055.32c-.28.085-.558.144-.83.175-.272.032-.527-.006-.765-.113-.374-.22-.804-.642-1.287-1.263-.483-.623-.836-1.002-1.057-1.142-.166-.127-.343-.228-.53-.3s-.236-.12-.143-.148c.117-.036.43-.04.937-.016.51.026.884.016 1.127-.033zm6.515-6.78c.07-.1.155-.182.25-.25.096-.066.234-.217.42-.453.105-.16.146-.383.123-.67-.023-.29-.11-.55-.258-.788-.133-.268-.3-.563-.5-.887l-.226-.24-.178-.33c-.02-.07-.09-.165-.2-.286-.138-.11-.272-.236-.404-.377-.132-.14-.323-.325-.572-.557-.29-.193-.712-.36-1.266-.5-.556-.138-1.14-.243-1.75-.315-.696-.02-1.45-.045-2.254-.083.03.016.104.006.222-.03l.6-.18c.187-.058.677-.046 1.47.034.793.078 1.397.17 1.813.274.362.096.818.335 1.37.718.553.385.82.63.8.738-.018.107.035.195.157.26.075.08.13.128.158.144l.29.065c.208.013.323.056.345.125l-.12.23c-.058.068-.11.11-.156.124.124.243.254.46.39.65.093.227.18.45.26.67.08.22.137.387.172.503.1.33.058.675-.126 1.04-.186.362-.3.603-.34.717-.065.123-.185.152-.357.09-.174-.063-.285-.177-.335-.34l.2-.1zm.114 1.772c.095-.106.29-.07.59.11.297.18.625.393.982.643s.703.542 1.035.878c.332.334.56.624.686.867.156.26.3.667.427 1.216.13.55.214 1.166.253 1.845.04.68-.02 1.39-.18 2.13-.16.742-.478 1.428-.952 2.058-.497.64-1.088 1.163-1.77 1.575s-1.333.737-1.952.977c-.62.24-1.173.4-1.66.485-.487.084-.742.128-.765.136-.117-.042.072-.118.564-.228.49-.11.96-.234 1.406-.37.445-.136.982-.432 1.612-.893.628-.46 1.207-.963 1.733-1.507.496-.56.93-1.18 1.302-1.856.37-.676.495-1.726.37-3.15-.075-.667-.27-1.293-.59-1.876-.317-.58-.648-1.063-.995-1.446-.392-.444-.85-.856-1.374-1.235l-.46-.13c-.3-.063-.387-.14-.26-.228zM256.28 76.205c.227.16.294.34.2.534-.096.194-.213.313-.355.356-.047.014-.12.05-.218.104-.1.055-.164.115-.196.175-.025.084-.043.154-.052.208l.204.17c.316.11.51.28.58.515.05.165.072.492.066.98-.005.49.04.885.13 1.19.05.165.15.487.295.968l.54 1.777.698 2.305c.254.834.48 1.604.683 2.31.202.71.376 1.324.52 1.843s.243.863.293 1.027c.057.188.14.4.25.635.11.234.27.482.475.74.207.257.35.49.424.698.076.208.123.385.144.533-.178.26-.413.522-.702.79-.29.268-.54.395-.75.38-.054-.008-.162-.135-.326-.38-.165-.246-.254-.54-.268-.88-.014-.342-.064-.68-.153-1.012-.09-.33-.147-.543-.175-.638-.064-.21-.18-.572-.35-1.085-.168-.512-.387-1.042-.654-1.588-.268-.548-.475-1.042-.622-1.484-.147-.44-.247-.707-.3-.792-.043-.063-.135-.113-.273-.148-.14-.034-.255-.077-.346-.125l-.44-.057c-.01.054-.063.134-.16.24-.043.193-.12.318-.23.377-.09.13-.2.22-.34.276-.137.055-.51.174-1.12.36-.305.092-.705.207-1.202.345-.496.138-.957.247-1.38.324-.427.078-.816.163-1.172.258-.355.096-.568.154-.64.175-.093.03-.252.05-.478.068-.225.017-.426.117-.602.297-.178.26-.115.484.186.674.3.19.473.355.516.497.03.094.104.385.228.873.122.49.24 1.01.358 1.562l.567 2.25c.113.12.242.248.386.383.13.09.25.194.364.313.112.12.184.226.212.32.063.21-.037.49-.302.84-.266.35-.553.61-.86.78-.203.088-.372.08-.504-.02-.134-.1-.257-.21-.37-.33-.112-.12-.224-.252-.332-.398s-.17-.243-.185-.29l-.32-1.057c-.2-.656-.393-1.398-.58-2.227-.188-.825-.38-1.568-.58-2.225-.198-.656-.326-1.08-.384-1.267-.042-.14-.23-.55-.565-1.232-.334-.68-.635-1.44-.903-2.282s-.52-1.654-.76-2.44-.333-1.354-.285-1.702c.064-.376.205-.695.422-.953.215-.26.476-.46.778-.602s.564-.25.788-.317c.223-.066.393-.118.51-.154.094-.028.173.063.237.274l.096.317 1.104 3.892c-.206-.68-.425-1.357-.654-2.03-.16-.44-.334-.867-.523-1.284-.19-.416-.298-.62-.32-.613-.024.007-.162.1-.416.28-.11.06-.2.1-.27.12.037.04.09.088.158.144.2.324.322.556.365.696.078.26.12.694.127 1.307.022.327.087.647.195.96.106.313.214.645.32.998.114.376.27.777.462 1.205.193.428.438.534.73.316.08-.075.136-.19.166-.34.03-.15.04-.287.03-.412l-.056-.56c.028.095.076.208.142.342.09.126.166.25.23.372.06.123.165.25.31.387.192.3.437.45.73.45.296 0 .76-.096 1.394-.288.516-.157 1.08-.405 1.695-.746.614-.34 1.02-.476 1.22-.41.216.116.434.242.655.38.22.14.432.203.635.19.2.07.334.048.402-.063.068-.11.104-.294.103-.55.032-.06.025-.25-.02-.57-.046-.32-.11-.66-.193-1.017-.084-.36-.18-.715-.285-1.066s-.196-.646-.267-.88c-.043-.142-.126-.372-.25-.693-.123-.32-.253-.646-.393-.977-.138-.33-.24-.663-.304-1.003-.063-.34-.07-.555-.023-.646.012-.13.128-.32.348-.565.22-.246.46-.486.725-.72.347-.284.685-.605 1.014-.96zm-5.24 8.2c-.462.165-.882.3-1.26.402s-.657.078-.83-.074l3.75-1.062-1.66.735zm-1.087 5.787c.216.038.38.243.495.618s.292.962.534 1.76c.143.47.255.93.34 1.376.085.45.127.84.125 1.174.06.444.13.845.213 1.204l-.054-.176c-.02-.07-.035-.136-.042-.2-.006-.06-.003-.158.01-.29-.01-.278-.082-.647-.22-1.105-.14-.458-.276-.82-.408-1.087-.028-.093-.118-.324-.267-.688-.15-.364-.29-.758-.417-1.18-.128-.423-.23-.763-.31-1.02s-.078-.388 0-.386zm8.27-8.466c-.028-.094-.08-.29-.158-.586s-.17-.62-.276-.973c-.137-.445-.26-.895-.37-1.348.376 1.242.73 2.365 1.06 3.367.293.885.574 1.683.842 2.396s.423 1.14.466 1.28c.036.118.056.272.063.463.007.19.03.354.074.496.033.194.075.375.125.538.214.627.38 1.128.493 1.504l.565 1.865c-.002.075.047.28.146.607.064.21.113.415.147.608l-.458-1.513-.363-1.197c-.1-.327-.19-.582-.272-.763-.045-.064-.126-.243-.24-.542-.117-.298-.22-.593-.31-.887l-.255-.845-.166-.545-.197-.65c-.125-.412-.25-.828-.38-1.25-.128-.423-.246-.855-.354-1.297-.108-.44-.17-.684-.183-.73z"/></g></g><g><path d="M15.296 116.072c.224-.672 1.026-2.483 2.408-5.433l6.72-14.56 8.848-19.265c.337-.747.507-1.363.507-1.848 0-.82-.546-1.232-1.635-1.232-2.142 0-3.804.934-4.987 2.8-1.183 1.867-1.774 3.94-1.774 6.216 0 .785.075 1.68.226 2.69-1.198 0-2.142-.533-2.832-1.597s-1.034-2.23-1.034-3.5c0-2.352 1.234-4.517 3.703-6.496 2.47-1.98 5.058-2.968 7.77-2.968 2.185 0 3.816.998 4.89 2.995 1.075 1.998 1.613 5.628 1.613 10.892 0 2.688-.188 6.347-.56 10.976-.374 4.63-.56 7.598-.56 8.904 1.618-4.816 4.13-10.35 7.537-16.604 3.405-6.253 6.157-10.93 8.255-14.028.597-.933 1.1-1.577 1.512-1.932.41-.354.933-.532 1.568-.532.522 0 1.344.207 2.464.617-1.232 2.65-2.763 8.484-4.592 17.5-1.83 9.016-2.744 16.007-2.744 20.972 0 .485.01.923.028 1.315.02.393.046.71.084.952.037.242.112.532.224.868l.168.672c.037.11.13.373.28.784l.336.84c-2.352 0-3.902-.522-4.648-1.566-.748-1.047-1.12-2.95-1.12-5.713 0-3.73.4-7.688 1.204-11.87.802-4.182 1.988-9.297 3.556-15.345-2.352 3.36-4.943 8.12-7.77 14.28-2.83 6.16-4.924 11.22-6.284 15.176l-.38.112c-.256.113-.51.168-.765.168-1.2 0-1.99-.708-2.373-2.127-.382-1.42-.572-3.678-.572-6.776 0-1.903.074-5.152.224-9.744.15-4.592.224-7.97.224-10.136 0-.373-.01-.933-.028-1.68-.02-.746-.028-1.288-.028-1.624L31.48 87.4l-3.08 7.168-2.464 5.937c-.896 2.09-1.624 3.77-2.184 5.04l-1.904 3.863c-.672 1.308-1.25 2.314-1.736 3.024s-1.008 1.37-1.568 1.988c-.56.615-1.102 1.044-1.624 1.287-.523.243-1.064.365-1.624.365zM59.32 107.056c0-2.127.616-4.75 1.848-7.867s2.314-4.677 3.248-4.677c.784 0 1.66.486 2.632 1.456-.784 1.157-1.596 2.82-2.436 4.983-.84 2.166-1.26 4.032-1.26 5.6 0 2.24.56 3.36 1.68 3.36.97 0 2.165-.924 3.584-2.772 1.418-1.847 2.622-3.723 3.612-5.626.99-1.904 1.895-3.77 2.716-5.6 2.053.373 3.08 1.007 3.08 1.903 0 .075-.274.775-.822 2.1-.547 1.325-1.088 2.848-1.624 4.563-.535 1.72-.802 3.1-.802 4.145 0 1.27.485 1.904 1.456 1.904h.056c1.232 0 2.752-.83 4.564-2.493 1.81-1.66 3.37-3.816 4.676-6.468l.84.67c-1.27 3.025-3.024 5.555-5.264 7.59-2.24 2.033-4.406 3.05-6.496 3.05-.71 0-1.316-.14-1.82-.42-.504-.278-.887-.606-1.148-.98-.262-.37-.467-.875-.616-1.51-.15-.635-.233-1.177-.252-1.624-.02-.45-.028-1.027-.028-1.736-.822 1.27-1.53 2.287-2.128 3.052-.598.766-1.363 1.493-2.296 2.185-.934.69-1.83 1.035-2.688 1.035-1.232 0-2.26-.58-3.08-1.736-.82-1.16-1.232-2.522-1.232-4.09z"/><path d="M82.952 106.44c0-1.307.234-2.297.7-2.97s1.06-1.155 1.79-1.454 1.127-.485 1.2-.56c2.368-2.465 4.162-5.022 5.382-7.673v-.56c0-2.725.858-4.088 2.576-4.088.82 0 1.27.374 1.344 1.12 0 .112-.047.383-.14.812-.094.43-.14.83-.14 1.204 0 1.01.54 3.035 1.624 6.077 1.083 3.043 1.624 5.46 1.624 7.252 0 .634-.075 1.398-.224 2.294 2.538-.634 4.74-2.743 6.608-6.327l.672.504c-1.53 4.444-4.125 6.945-7.784 7.505-.6 1.493-1.578 2.622-2.928 3.388-1.352.766-2.91 1.148-4.674 1.148-2.6 0-4.52-.755-5.764-2.267-1.244-1.51-1.866-3.312-1.866-5.403zm3.08.056c0 1.345.37 2.53 1.11 3.556.74 1.027 1.756 1.54 3.05 1.54 1.655 0 2.857-.728 3.608-2.184-1.454-.298-2.797-.868-4.027-1.708s-2.22-1.744-2.965-2.716c-.516.113-.776.617-.776 1.512zm1.61-3.528c.635 1.084 1.533 2.063 2.692 2.94 1.158.878 2.467 1.483 3.926 1.82.115-.337.172-.915.172-1.736 0-.784-.077-1.65-.23-2.604-.152-.95-.286-1.697-.4-2.24-.116-.54-.345-1.455-.69-2.743-.344-1.288-.554-2.1-.63-2.436-1.817 3.172-3.43 5.506-4.84 6.998z"/><path d="M103.28 107.896c0-1.492.393-3.462 1.177-5.907s1.85-4.695 3.194-6.75c1.346-2.052 2.672-3.08 3.98-3.08.483 0 .883.142 1.2.423.316.28.475.683.475 1.208 0 .487-.474 1.508-1.418 3.063-.946 1.554-1.898 3.314-2.856 5.28-.958 1.967-1.437 3.66-1.437 5.083 0 1.162.202 1.95.608 2.36.406.412 1.033.618 1.88.618 2.942 0 5.864-2.863 8.77-8.59l.84.898c-1.305 3.274-2.96 5.822-4.967 7.645-2.007 1.822-4.163 2.734-6.467 2.734-1.584 0-2.81-.466-3.675-1.4-.866-.932-1.3-2.127-1.3-3.584zm8.736-22.456c0-.858.476-1.615 1.428-2.268.952-.653 1.97-.98 3.052-.98 1.604 0 2.408.69 2.408 2.072 0 .784-.43 1.54-1.288 2.268-.86.728-1.792 1.092-2.8 1.092-.784 0-1.447-.186-1.988-.56-.54-.373-.812-.914-.812-1.624z"/><path d="M117.055 106.944c0-3.658 1.306-7.02 3.92-10.08 2.613-3.06 5.45-4.592 8.512-4.592 1.437 0 2.505.374 3.205 1.12.7.748 1.05 1.68 1.05 2.8 0 1.12-.254 2.156-.763 3.107-.51.95-1.132 1.427-1.87 1.427-.71 0-1.287-.354-1.735-1.063 1.194-.82 1.792-2.22 1.792-4.2 0-.635-.355-.952-1.064-.952-1.83 0-3.743 1.494-5.74 4.48-1.998 2.987-2.996 5.75-2.996 8.288 0 2.8 1.306 4.2 3.92 4.2h.056c2.202 0 4.452-.925 6.748-2.772 2.297-1.848 4.042-4.246 5.237-7.195l1.12 1.008c-1.344 3.398-3.416 6.217-6.216 8.456-2.8 2.24-5.637 3.36-8.51 3.36-2.017 0-3.632-.626-4.845-1.876-1.213-1.25-1.82-3.088-1.82-5.516zM282.863 102.256c0-4.818 1.176-9.674 3.53-14.567 2.35-4.894 5.384-8.91 9.1-12.047 3.714-3.138 7.437-4.707 11.17-4.707 3.884 0 5.825 1.717 5.825 5.148 0 2.424-.748 5.052-2.24 7.885-1.494 2.832-3.043 4.25-4.648 4.25-.934 0-1.7-.58-2.295-1.734 1.418-1.565 2.79-3.43 4.115-5.592 1.324-2.162 1.988-3.915 1.988-5.257 0-1.454-.84-2.18-2.52-2.18-2.615 0-5.396 1.584-8.346 4.753-2.95 3.17-5.395 7.065-7.336 11.688-1.94 4.624-2.912 8.91-2.912 12.86 0 2.984.674 5.5 2.018 7.55s3.377 3.076 6.104 3.076c2.912 0 5.832-1.175 8.764-3.522 2.93-2.35 5.18-5.163 6.748-8.444l1.455.95c-2.127 4.028-4.77 7.32-7.924 9.874-3.155 2.554-6.618 3.83-10.388 3.83-3.996 0-7.03-1.352-9.1-4.054-2.072-2.705-3.11-5.957-3.11-9.762z"/><path d="M309.912 107.732c0-2.465.71-4.874 2.127-7.227 1.417-2.353 2.948-3.53 4.59-3.53.448 0 1.026.156 1.735.466.22-1.737.82-3.174 1.797-4.308s2.35-1.7 4.12-1.7c1.575 0 2.74.426 3.49 1.278.747.852 1.122 1.96 1.122 3.324 0 2.588-1.312 5.776-3.936 9.563.46.226.994.338 1.605.338 1.045 0 2.164-.347 3.36-1.04 1.194-.694 2.108-1.755 2.743-3.18l1.008.73c-.783 1.78-1.838 3.133-3.164 4.06-1.324.926-2.7 1.39-4.13 1.39-.87 0-1.817-.163-2.837-.49-3.07 3.724-6.158 5.586-9.266 5.586-1.568 0-2.688-.503-3.36-1.51s-1.005-2.254-1.005-3.748zm4.48-.163c0 1.71.634 2.565 1.903 2.565 1.316 0 3.072-1.31 5.266-3.928-2.056-1.872-3.14-4.626-3.25-8.26-.708.373-1.538 1.67-2.49 3.888-.953 2.22-1.43 4.132-1.43 5.734zm7-8.665c0 .862.15 1.847.454 2.953.3 1.105.697 1.96 1.188 2.56 2.19-3.113 3.287-5.907 3.287-8.382 0-1.65-.528-2.476-1.587-2.476-.793 0-1.547.525-2.266 1.575-.717 1.05-1.076 2.307-1.076 3.77z"/><path d="M331.36 107.056c0-2.127.614-4.75 1.847-7.867s2.314-4.677 3.248-4.677c.785 0 1.662.486 2.633 1.456-.785 1.157-1.596 2.82-2.436 4.983-.84 2.166-1.262 4.032-1.262 5.6 0 2.24.56 3.36 1.682 3.36.97 0 2.164-.924 3.584-2.772 1.418-1.847 2.62-3.723 3.61-5.626.99-1.904 1.896-3.77 2.718-5.6 2.053.373 3.08 1.007 3.08 1.903 0 .075-.275.775-.822 2.1-.55 1.325-1.088 2.848-1.625 4.563-.535 1.72-.8 3.1-.8 4.145 0 1.27.483 1.904 1.454 1.904h.058c1.23 0 2.752-.83 4.562-2.493 1.81-1.66 3.37-3.816 4.678-6.468l.84.67c-1.27 3.025-3.025 5.555-5.266 7.59-2.238 2.033-4.404 3.05-6.494 3.05-.71 0-1.316-.14-1.82-.42-.504-.278-.89-.606-1.148-.98-.262-.37-.467-.875-.615-1.51-.15-.635-.234-1.177-.252-1.624-.02-.45-.03-1.027-.03-1.736-.82 1.27-1.53 2.287-2.126 3.052-.598.766-1.363 1.493-2.297 2.185-.934.69-1.83 1.035-2.688 1.035-1.232 0-2.26-.58-3.08-1.736-.822-1.16-1.233-2.522-1.233-4.09z"/><path d="M356.074 103.864c1.717-3.06 3.23-6.44 4.537-10.136-.35-.373-.524-.876-.524-1.512 0-.97.28-1.885.836-2.744.56-.858 1.098-1.288 1.62-1.288.425 0 .774.224 1.052.672.275.448.414.822.414 1.12 0 .15-.14.514-.422 1.092-.28.58-.42.905-.42.98.04.336.38.737 1.027 1.204.646.467 1.35.924 2.11 1.372.76.448 1.452 1.11 2.08 1.988.63.877.942 1.857.942 2.94 0 1.194-.494 2.837-1.482 4.927-.99 2.09-1.484 3.435-1.484 4.032 0 .86.474 1.287 1.425 1.287 1.643 0 3.473-.925 5.488-2.772s3.436-3.668 4.256-5.46l1.343 1.008c-1.156 2.614-2.94 4.947-5.348 7s-4.814 3.08-7.223 3.08c-1.365 0-2.47-.372-3.32-1.114-.848-.742-1.27-1.732-1.27-2.974 0-1.083.52-2.8 1.567-5.152 1.044-2.353 1.567-3.956 1.567-4.816 0-1.418-.926-2.613-2.773-3.584-1.387 3.584-3.107 7.075-5.16 10.472l-.84-1.624z"/><path d="M375.318 106.44c0-1.307.232-2.297.7-2.97.464-.67 1.06-1.155 1.788-1.454s1.127-.485 1.2-.56c2.368-2.465 4.163-5.022 5.384-7.673v-.56c0-2.725.857-4.088 2.576-4.088.82 0 1.268.374 1.344 1.12 0 .112-.047.383-.14.812-.095.43-.142.83-.142 1.204 0 1.01.54 3.035 1.625 6.077 1.082 3.043 1.623 5.46 1.623 7.252 0 .634-.074 1.398-.223 2.294 2.537-.634 4.74-2.743 6.607-6.327l.672.504c-1.53 4.444-4.125 6.945-7.783 7.505-.603 1.493-1.58 2.622-2.93 3.388s-2.91 1.148-4.675 1.148c-2.6 0-4.52-.755-5.764-2.267-1.24-1.51-1.862-3.312-1.862-5.403zm3.08.056c0 1.345.37 2.53 1.11 3.556.74 1.027 1.755 1.54 3.05 1.54 1.654 0 2.857-.728 3.61-2.184-1.456-.298-2.8-.868-4.03-1.708-1.23-.84-2.22-1.744-2.963-2.716-.52.113-.777.617-.777 1.512zm1.61-3.528c.635 1.084 1.533 2.063 2.69 2.94 1.16.878 2.468 1.483 3.927 1.82.115-.337.174-.915.174-1.736 0-.784-.08-1.65-.23-2.604-.153-.95-.288-1.697-.4-2.24-.116-.54-.347-1.455-.69-2.743s-.555-2.1-.63-2.436c-1.82 3.172-3.434 5.506-4.842 6.998z"/><path d="M395.143 106.888c0-3.384 1.576-6.87 4.73-10.462 3.152-3.59 6.408-5.386 9.768-5.386 2.767 0 4.15 1.232 4.15 3.696 0 2.688-1.468 5.077-4.403 7.168-2.934 2.09-6.207 3.323-9.82 3.696-.074.373-.11.803-.11 1.287 0 .374.026.73.083 1.064.055.337.205.794.45 1.373s.694 1.046 1.35 1.4c.657.354 1.474.532 2.45.532 2.275 0 4.6-.925 6.97-2.772 2.372-1.85 4.286-4.153 5.74-6.916l1.12.896c-1.492 3.344-3.63 6.037-6.41 8.08-2.783 2.043-5.668 3.064-8.658 3.064-2.34 0-4.16-.63-5.46-1.89s-1.95-2.866-1.95-4.83zm5.043-3.36c2.176-.26 4.475-1.344 6.895-3.248s3.632-3.845 3.632-5.824c0-.708-.32-1.064-.957-1.064-1.652 0-3.453 1.083-5.404 3.248-1.952 2.166-3.338 4.463-4.164 6.888z"/><path d="M414.07 106.44c0-1.307.232-2.297.7-2.97.464-.67 1.06-1.155 1.788-1.454s1.127-.485 1.2-.56c2.368-2.465 4.163-5.022 5.384-7.673v-.56c0-2.725.857-4.088 2.576-4.088.82 0 1.268.374 1.344 1.12 0 .112-.047.383-.14.812-.095.43-.142.83-.142 1.204 0 1.01.54 3.035 1.625 6.077 1.082 3.043 1.623 5.46 1.623 7.252 0 .634-.074 1.398-.223 2.294 2.537-.634 4.74-2.743 6.607-6.327l.672.504c-1.53 4.444-4.125 6.945-7.783 7.505-.6 1.493-1.577 2.622-2.93 3.388s-2.91 1.148-4.673 1.148c-2.6 0-4.52-.755-5.764-2.267-1.242-1.51-1.863-3.312-1.863-5.403zm3.08.056c0 1.345.37 2.53 1.11 3.556.74 1.027 1.755 1.54 3.05 1.54 1.654 0 2.857-.728 3.61-2.184-1.456-.298-2.8-.868-4.03-1.708-1.23-.84-2.22-1.744-2.963-2.716-.52.113-.777.617-.777 1.512zm1.61-3.528c.635 1.084 1.533 2.063 2.69 2.94 1.16.878 2.468 1.483 3.927 1.82.115-.337.174-.915.174-1.736 0-.784-.077-1.65-.23-2.604-.15-.95-.286-1.697-.4-2.24-.114-.54-.345-1.455-.688-2.743s-.555-2.1-.63-2.436c-1.82 3.172-3.434 5.506-4.842 6.998z"/></g></svg>